<svg width="75" height="75" viewBox="0 0 75 75" fill="none" xmlns="http://www.w3.org/2000/svg">
<rect x="0.75" y="0.75" width="73.5" height="73.5" rx="36.75" fill="url(#paint0_linear_1_555)" fill-opacity="0.06"/>
<rect x="0.75" y="0.75" width="73.5" height="73.5" rx="36.75" stroke="url(#paint1_linear_1_555)" stroke-width="1.5"/>
<path d="M49.5 25.5H25.5C23.8431 25.5 22.5 26.8431 22.5 28.5V46.5C22.5 48.1569 23.8431 49.5 25.5 49.5H49.5C51.1569 49.5 52.5 48.1569 52.5 46.5V28.5C52.5 26.8431 51.1569 25.5 49.5 25.5Z" stroke="url(#paint2_linear_1_555)" stroke-width="3" stroke-linecap="round" stroke-linejoin="round"/>
<path d="M52.5 30L39.045 38.55C38.5819 38.8401 38.0465 38.994 37.5 38.994C36.9535 38.994 36.4181 38.8401 35.955 38.55L22.5 30" stroke="url(#paint3_linear_1_555)" stroke-width="3" stroke-linecap="round" stroke-linejoin="round"/>
<defs>
<linearGradient id="paint0_linear_1_555" x1="32.625" y1="-25.3125" x2="99.9542" y2="32.0119" gradientUnits="userSpaceOnUse">
<stop stop-color="white" stop-opacity="0"/>
<stop offset="0.520833" stop-color="white"/>
<stop offset="1" stop-color="white" stop-opacity="0"/>
</linearGradient>
<linearGradient id="paint1_linear_1_555" x1="66.2847" y1="-6.63194" x2="10.7228" y2="84.3707" gradientUnits="userSpaceOnUse">
<stop stop-color="#FDEEBD"/>
<stop offset="1" stop-color="#6D5C4B"/>
</linearGradient>
<linearGradient id="paint2_linear_1_555" x1="49.0139" y1="23.3778" x2="33.2489" y2="55.6539" gradientUnits="userSpaceOnUse">
<stop stop-color="#FDEEBD"/>
<stop offset="1" stop-color="#6D5C4B"/>
</linearGradient>
<linearGradient id="paint3_linear_1_555" x1="49.0139" y1="29.2047" x2="46.3606" y2="43.7002" gradientUnits="userSpaceOnUse">
<stop stop-color="#FDEEBD"/>
<stop offset="1" stop-color="#6D5C4B"/>
</linearGradient>
</defs>
</svg>
