<svg width="6" height="782" viewBox="0 0 6 782" fill="none" xmlns="http://www.w3.org/2000/svg">
<path d="M2.6665 781.333C4.13926 781.333 5.33317 780.14 5.33317 778.667C5.33317 777.194 4.13926 776 2.6665 776C1.19374 776 -0.000162776 777.194 -0.00016284 778.667C-0.000162904 780.14 1.19374 781.333 2.6665 781.333ZM2.66654 5.33344C4.1393 5.33344 5.3332 4.13953 5.3332 2.66675C5.3332 1.19397 4.1393 6.10995e-05 2.66654 6.10352e-05C1.19378 6.09708e-05 -0.000128855 1.19397 -0.00012892 2.66675C-0.000128984 4.13953 1.19378 5.33343 2.66654 5.33344ZM3.1665 777.667C3.1665 777.391 2.94265 777.167 2.6665 777.167C2.39036 777.167 2.1665 777.391 2.1665 777.667L2.6665 777.667L3.1665 777.667ZM2.1665 771.667C2.1665 771.943 2.39036 772.167 2.6665 772.167C2.94265 772.167 3.1665 771.943 3.1665 771.667L2.6665 771.667L2.1665 771.667ZM3.1665 769.667C3.1665 769.391 2.94265 769.167 2.6665 769.167C2.39036 769.167 2.1665 769.391 2.1665 769.667L2.6665 769.667L3.1665 769.667ZM2.1665 763.667C2.1665 763.943 2.39036 764.167 2.6665 764.167C2.94265 764.167 3.1665 763.943 3.1665 763.667L2.6665 763.667L2.1665 763.667ZM3.1665 761.667C3.1665 761.391 2.94265 761.167 2.6665 761.167C2.39036 761.167 2.1665 761.391 2.1665 761.667L2.6665 761.667L3.1665 761.667ZM2.1665 755.667C2.1665 755.943 2.39036 756.167 2.6665 756.167C2.94265 756.167 3.1665 755.943 3.1665 755.667L2.6665 755.667L2.1665 755.667ZM3.1665 753.667C3.16651 753.391 2.94265 753.167 2.66651 753.167C2.39036 753.167 2.16651 753.391 2.1665 753.667L2.6665 753.667L3.1665 753.667ZM2.16651 747.667C2.16651 747.943 2.39036 748.167 2.66651 748.167C2.94265 748.167 3.16651 747.943 3.16651 747.667L2.66651 747.667L2.16651 747.667ZM3.16651 745.667C3.16651 745.391 2.94265 745.167 2.66651 745.167C2.39036 745.167 2.16651 745.391 2.16651 745.667L2.66651 745.667L3.16651 745.667ZM2.16651 739.667C2.16651 739.943 2.39036 740.167 2.66651 740.167C2.94265 740.167 3.16651 739.943 3.16651 739.667L2.66651 739.667L2.16651 739.667ZM3.16651 737.667C3.16651 737.391 2.94265 737.167 2.66651 737.167C2.39036 737.167 2.16651 737.391 2.16651 737.667L2.66651 737.667L3.16651 737.667ZM2.16651 731.667C2.16651 731.943 2.39036 732.167 2.66651 732.167C2.94265 732.167 3.16651 731.943 3.16651 731.667L2.66651 731.667L2.16651 731.667ZM3.16651 729.667C3.16651 729.391 2.94265 729.167 2.66651 729.167C2.39036 729.167 2.16651 729.391 2.16651 729.667L2.66651 729.667L3.16651 729.667ZM2.16651 723.667C2.16651 723.943 2.39036 724.167 2.66651 724.167C2.94265 724.167 3.16651 723.943 3.16651 723.667L2.66651 723.667L2.16651 723.667ZM3.16651 721.667C3.16651 721.391 2.94265 721.167 2.66651 721.167C2.39036 721.167 2.16651 721.391 2.16651 721.667L2.66651 721.667L3.16651 721.667ZM2.16651 715.667C2.16651 715.943 2.39036 716.167 2.66651 716.167C2.94265 716.167 3.16651 715.943 3.16651 715.667L2.66651 715.667L2.16651 715.667ZM3.16651 713.667C3.16651 713.391 2.94265 713.167 2.66651 713.167C2.39036 713.167 2.16651 713.391 2.16651 713.667L2.66651 713.667L3.16651 713.667ZM2.16651 707.667C2.16651 707.943 2.39036 708.167 2.66651 708.167C2.94265 708.167 3.16651 707.943 3.16651 707.667L2.66651 707.667L2.16651 707.667ZM3.16651 705.667C3.16651 705.391 2.94265 705.167 2.66651 705.167C2.39036 705.167 2.16651 705.391 2.16651 705.667L2.66651 705.667L3.16651 705.667ZM2.16651 699.667C2.16651 699.943 2.39036 700.167 2.66651 700.167C2.94265 700.167 3.16651 699.943 3.16651 699.667L2.66651 699.667L2.16651 699.667ZM3.16651 697.667C3.16651 697.391 2.94265 697.167 2.66651 697.167C2.39037 697.167 2.16651 697.391 2.16651 697.667L2.66651 697.667L3.16651 697.667ZM2.16651 691.667C2.16651 691.943 2.39037 692.167 2.66651 692.167C2.94265 692.167 3.16651 691.943 3.16651 691.667L2.66651 691.667L2.16651 691.667ZM3.16651 689.667C3.16651 689.391 2.94265 689.167 2.66651 689.167C2.39037 689.167 2.16651 689.391 2.16651 689.667L2.66651 689.667L3.16651 689.667ZM2.16651 683.667C2.16651 683.943 2.39037 684.167 2.66651 684.167C2.94265 684.167 3.16651 683.943 3.16651 683.667L2.66651 683.667L2.16651 683.667ZM3.16651 681.667C3.16651 681.391 2.94265 681.167 2.66651 681.167C2.39037 681.167 2.16651 681.391 2.16651 681.667L2.66651 681.667L3.16651 681.667ZM2.16651 675.667C2.16651 675.943 2.39037 676.167 2.66651 676.167C2.94265 676.167 3.16651 675.943 3.16651 675.667L2.66651 675.667L2.16651 675.667ZM3.16651 673.667C3.16651 673.391 2.94265 673.167 2.66651 673.167C2.39037 673.167 2.16651 673.391 2.16651 673.667L2.66651 673.667L3.16651 673.667ZM2.16651 667.667C2.16651 667.943 2.39037 668.167 2.66651 668.167C2.94265 668.167 3.16651 667.943 3.16651 667.667L2.66651 667.667L2.16651 667.667ZM3.16651 665.667C3.16651 665.391 2.94265 665.167 2.66651 665.167C2.39037 665.167 2.16651 665.391 2.16651 665.667L2.66651 665.667L3.16651 665.667ZM2.16651 659.667C2.16651 659.943 2.39037 660.167 2.66651 660.167C2.94265 660.167 3.16651 659.943 3.16651 659.667L2.66651 659.667L2.16651 659.667ZM3.16651 657.667C3.16651 657.391 2.94265 657.167 2.66651 657.167C2.39037 657.167 2.16651 657.391 2.16651 657.667L2.66651 657.667L3.16651 657.667ZM2.16651 651.667C2.16651 651.943 2.39037 652.167 2.66651 652.167C2.94265 652.167 3.16651 651.943 3.16651 651.667L2.66651 651.667L2.16651 651.667ZM3.16651 649.667C3.16651 649.391 2.94265 649.167 2.66651 649.167C2.39037 649.167 2.16651 649.391 2.16651 649.667L2.66651 649.667L3.16651 649.667ZM2.16651 643.667C2.16651 643.943 2.39037 644.167 2.66651 644.167C2.94265 644.167 3.16651 643.943 3.16651 643.667L2.66651 643.667L2.16651 643.667ZM3.16651 641.667C3.16651 641.391 2.94265 641.167 2.66651 641.167C2.39037 641.167 2.16651 641.391 2.16651 641.667L2.66651 641.667L3.16651 641.667ZM2.16651 635.667C2.16651 635.943 2.39037 636.167 2.66651 636.167C2.94265 636.167 3.16651 635.943 3.16651 635.667L2.66651 635.667L2.16651 635.667ZM3.16651 633.667C3.16651 633.391 2.94265 633.167 2.66651 633.167C2.39037 633.167 2.16651 633.391 2.16651 633.667L2.66651 633.667L3.16651 633.667ZM2.16651 627.667C2.16651 627.943 2.39037 628.167 2.66651 628.167C2.94265 628.167 3.16651 627.943 3.16651 627.667L2.66651 627.667L2.16651 627.667ZM3.16651 625.667C3.16651 625.391 2.94265 625.167 2.66651 625.167C2.39037 625.167 2.16651 625.391 2.16651 625.667L2.66651 625.667L3.16651 625.667ZM2.16651 619.667C2.16651 619.943 2.39037 620.167 2.66651 620.167C2.94265 620.167 3.16651 619.943 3.16651 619.667L2.66651 619.667L2.16651 619.667ZM3.16651 617.667C3.16651 617.391 2.94265 617.167 2.66651 617.167C2.39037 617.167 2.16651 617.391 2.16651 617.667L2.66651 617.667L3.16651 617.667ZM2.16651 611.667C2.16651 611.943 2.39037 612.167 2.66651 612.167C2.94265 612.167 3.16651 611.943 3.16651 611.667L2.66651 611.667L2.16651 611.667ZM3.16651 609.667C3.16651 609.391 2.94265 609.167 2.66651 609.167C2.39037 609.167 2.16651 609.391 2.16651 609.667L2.66651 609.667L3.16651 609.667ZM2.16651 603.667C2.16651 603.943 2.39037 604.167 2.66651 604.167C2.94265 604.167 3.16651 603.943 3.16651 603.667L2.66651 603.667L2.16651 603.667ZM3.16651 601.667C3.16651 601.391 2.94265 601.167 2.66651 601.167C2.39037 601.167 2.16651 601.391 2.16651 601.667L2.66651 601.667L3.16651 601.667ZM2.16651 595.667C2.16651 595.943 2.39037 596.167 2.66651 596.167C2.94265 596.167 3.16651 595.943 3.16651 595.667L2.66651 595.667L2.16651 595.667ZM3.16651 593.667C3.16651 593.391 2.94265 593.167 2.66651 593.167C2.39037 593.167 2.16651 593.391 2.16651 593.667L2.66651 593.667L3.16651 593.667ZM2.16651 587.667C2.16651 587.943 2.39037 588.167 2.66651 588.167C2.94265 588.167 3.16651 587.943 3.16651 587.667L2.66651 587.667L2.16651 587.667ZM3.16651 585.667C3.16651 585.391 2.94265 585.167 2.66651 585.167C2.39037 585.167 2.16651 585.391 2.16651 585.667L2.66651 585.667L3.16651 585.667ZM2.16651 579.667C2.16651 579.943 2.39037 580.167 2.66651 580.167C2.94265 580.167 3.16651 579.943 3.16651 579.667L2.66651 579.667L2.16651 579.667ZM3.16651 577.667C3.16651 577.391 2.94266 577.167 2.66651 577.167C2.39037 577.167 2.16651 577.391 2.16651 577.667L2.66651 577.667L3.16651 577.667ZM2.16651 571.667C2.16651 571.943 2.39037 572.167 2.66651 572.167C2.94266 572.167 3.16651 571.943 3.16651 571.667L2.66651 571.667L2.16651 571.667ZM3.16651 569.667C3.16651 569.391 2.94266 569.167 2.66651 569.167C2.39037 569.167 2.16651 569.391 2.16651 569.667L2.66651 569.667L3.16651 569.667ZM2.16651 563.667C2.16651 563.943 2.39037 564.167 2.66651 564.167C2.94266 564.167 3.16651 563.943 3.16651 563.667L2.66651 563.667L2.16651 563.667ZM3.16651 561.667C3.16651 561.391 2.94266 561.167 2.66651 561.167C2.39037 561.167 2.16651 561.391 2.16651 561.667L2.66651 561.667L3.16651 561.667ZM2.16651 555.667C2.16651 555.943 2.39037 556.167 2.66651 556.167C2.94266 556.167 3.16651 555.943 3.16651 555.667L2.66651 555.667L2.16651 555.667ZM3.16651 553.667C3.16651 553.391 2.94266 553.167 2.66651 553.167C2.39037 553.167 2.16651 553.391 2.16651 553.667L2.66651 553.667L3.16651 553.667ZM2.16651 547.667C2.16651 547.943 2.39037 548.167 2.66651 548.167C2.94266 548.167 3.16651 547.943 3.16651 547.667L2.66651 547.667L2.16651 547.667ZM3.16651 545.667C3.16651 545.391 2.94266 545.167 2.66651 545.167C2.39037 545.167 2.16651 545.391 2.16651 545.667L2.66651 545.667L3.16651 545.667ZM2.16651 539.667C2.16651 539.943 2.39037 540.167 2.66651 540.167C2.94266 540.167 3.16651 539.943 3.16651 539.667L2.66651 539.667L2.16651 539.667ZM3.16651 537.667C3.16651 537.391 2.94266 537.167 2.66651 537.167C2.39037 537.167 2.16651 537.391 2.16651 537.667L2.66651 537.667L3.16651 537.667ZM2.16651 531.667C2.16651 531.943 2.39037 532.167 2.66651 532.167C2.94266 532.167 3.16651 531.943 3.16651 531.667L2.66651 531.667L2.16651 531.667ZM3.16651 529.667C3.16651 529.391 2.94266 529.167 2.66651 529.167C2.39037 529.167 2.16651 529.391 2.16651 529.667L2.66651 529.667L3.16651 529.667ZM2.16652 523.667C2.16652 523.943 2.39037 524.167 2.66652 524.167C2.94266 524.167 3.16652 523.943 3.16652 523.667L2.66652 523.667L2.16652 523.667ZM3.16652 521.667C3.16652 521.391 2.94266 521.167 2.66652 521.167C2.39037 521.167 2.16652 521.391 2.16652 521.667L2.66652 521.667L3.16652 521.667ZM2.16652 515.667C2.16652 515.943 2.39037 516.167 2.66652 516.167C2.94266 516.167 3.16652 515.943 3.16652 515.667L2.66652 515.667L2.16652 515.667ZM3.16652 513.667C3.16652 513.391 2.94266 513.167 2.66652 513.167C2.39037 513.167 2.16652 513.391 2.16652 513.667L2.66652 513.667L3.16652 513.667ZM2.16652 507.667C2.16652 507.943 2.39037 508.167 2.66652 508.167C2.94266 508.167 3.16652 507.943 3.16652 507.667L2.66652 507.667L2.16652 507.667ZM3.16652 505.667C3.16652 505.391 2.94266 505.167 2.66652 505.167C2.39037 505.167 2.16652 505.391 2.16652 505.667L2.66652 505.667L3.16652 505.667ZM2.16652 499.667C2.16652 499.943 2.39037 500.167 2.66652 500.167C2.94266 500.167 3.16652 499.943 3.16652 499.667L2.66652 499.667L2.16652 499.667ZM3.16652 497.667C3.16652 497.391 2.94266 497.167 2.66652 497.167C2.39037 497.167 2.16652 497.391 2.16652 497.667L2.66652 497.667L3.16652 497.667ZM2.16652 491.667C2.16652 491.943 2.39037 492.167 2.66652 492.167C2.94266 492.167 3.16652 491.943 3.16652 491.667L2.66652 491.667L2.16652 491.667ZM3.16652 489.667C3.16652 489.391 2.94266 489.167 2.66652 489.167C2.39037 489.167 2.16652 489.391 2.16652 489.667L2.66652 489.667L3.16652 489.667ZM2.16652 483.667C2.16652 483.943 2.39037 484.167 2.66652 484.167C2.94266 484.167 3.16652 483.943 3.16652 483.667L2.66652 483.667L2.16652 483.667ZM3.16652 481.667C3.16652 481.391 2.94266 481.167 2.66652 481.167C2.39037 481.167 2.16652 481.391 2.16652 481.667L2.66652 481.667L3.16652 481.667ZM2.16652 475.667C2.16652 475.943 2.39037 476.167 2.66652 476.167C2.94266 476.167 3.16652 475.943 3.16652 475.667L2.66652 475.667L2.16652 475.667ZM3.16652 473.667C3.16652 473.391 2.94266 473.167 2.66652 473.167C2.39037 473.167 2.16652 473.391 2.16652 473.667L2.66652 473.667L3.16652 473.667ZM2.16652 467.667C2.16652 467.943 2.39038 468.167 2.66652 468.167C2.94266 468.167 3.16652 467.943 3.16652 467.667L2.66652 467.667L2.16652 467.667ZM3.16652 465.667C3.16652 465.391 2.94266 465.167 2.66652 465.167C2.39038 465.167 2.16652 465.391 2.16652 465.667L2.66652 465.667L3.16652 465.667ZM2.16652 459.667C2.16652 459.943 2.39038 460.167 2.66652 460.167C2.94266 460.167 3.16652 459.943 3.16652 459.667L2.66652 459.667L2.16652 459.667ZM3.16652 457.667C3.16652 457.391 2.94266 457.167 2.66652 457.167C2.39038 457.167 2.16652 457.391 2.16652 457.667L2.66652 457.667L3.16652 457.667ZM2.16652 451.667C2.16652 451.943 2.39038 452.167 2.66652 452.167C2.94266 452.167 3.16652 451.943 3.16652 451.667L2.66652 451.667L2.16652 451.667ZM3.16652 449.667C3.16652 449.391 2.94266 449.167 2.66652 449.167C2.39038 449.167 2.16652 449.391 2.16652 449.667L2.66652 449.667L3.16652 449.667ZM2.16652 443.667C2.16652 443.943 2.39038 444.167 2.66652 444.167C2.94266 444.167 3.16652 443.943 3.16652 443.667L2.66652 443.667L2.16652 443.667ZM3.16652 441.667C3.16652 441.391 2.94266 441.167 2.66652 441.167C2.39038 441.167 2.16652 441.391 2.16652 441.667L2.66652 441.667L3.16652 441.667ZM2.16652 435.667C2.16652 435.943 2.39038 436.167 2.66652 436.167C2.94266 436.167 3.16652 435.943 3.16652 435.667L2.66652 435.667L2.16652 435.667ZM3.16652 433.667C3.16652 433.391 2.94266 433.167 2.66652 433.167C2.39038 433.167 2.16652 433.391 2.16652 433.667L2.66652 433.667L3.16652 433.667ZM2.16652 427.667C2.16652 427.943 2.39038 428.167 2.66652 428.167C2.94266 428.167 3.16652 427.943 3.16652 427.667L2.66652 427.667L2.16652 427.667ZM3.16652 425.667C3.16652 425.391 2.94266 425.167 2.66652 425.167C2.39038 425.167 2.16652 425.391 2.16652 425.667L2.66652 425.667L3.16652 425.667ZM2.16652 419.667C2.16652 419.943 2.39038 420.167 2.66652 420.167C2.94266 420.167 3.16652 419.943 3.16652 419.667L2.66652 419.667L2.16652 419.667ZM3.16652 417.667C3.16652 417.391 2.94266 417.167 2.66652 417.167C2.39038 417.167 2.16652 417.391 2.16652 417.667L2.66652 417.667L3.16652 417.667ZM2.16652 411.667C2.16652 411.943 2.39038 412.167 2.66652 412.167C2.94266 412.167 3.16652 411.943 3.16652 411.667L2.66652 411.667L2.16652 411.667ZM3.16652 409.667C3.16652 409.391 2.94266 409.167 2.66652 409.167C2.39038 409.167 2.16652 409.391 2.16652 409.667L2.66652 409.667L3.16652 409.667ZM2.16652 403.667C2.16652 403.943 2.39038 404.167 2.66652 404.167C2.94266 404.167 3.16652 403.943 3.16652 403.667L2.66652 403.667L2.16652 403.667ZM3.16652 401.667C3.16652 401.391 2.94266 401.167 2.66652 401.167C2.39038 401.167 2.16652 401.391 2.16652 401.667L2.66652 401.667L3.16652 401.667ZM2.16652 395.667C2.16652 395.943 2.39038 396.167 2.66652 396.167C2.94266 396.167 3.16652 395.943 3.16652 395.667L2.66652 395.667L2.16652 395.667ZM3.16652 393.667C3.16652 393.391 2.94266 393.167 2.66652 393.167C2.39038 393.167 2.16652 393.391 2.16652 393.667L2.66652 393.667L3.16652 393.667ZM2.16652 387.667C2.16652 387.943 2.39038 388.167 2.66652 388.167C2.94266 388.167 3.16652 387.943 3.16652 387.667L2.66652 387.667L2.16652 387.667ZM3.16652 385.667C3.16652 385.391 2.94266 385.167 2.66652 385.167C2.39038 385.167 2.16652 385.391 2.16652 385.667L2.66652 385.667L3.16652 385.667ZM2.16652 379.667C2.16652 379.943 2.39038 380.167 2.66652 380.167C2.94266 380.167 3.16652 379.943 3.16652 379.667L2.66652 379.667L2.16652 379.667ZM3.16652 377.667C3.16652 377.391 2.94266 377.167 2.66652 377.167C2.39038 377.167 2.16652 377.391 2.16652 377.667L2.66652 377.667L3.16652 377.667ZM2.16652 371.667C2.16652 371.943 2.39038 372.167 2.66652 372.167C2.94266 372.167 3.16652 371.943 3.16652 371.667L2.66652 371.667L2.16652 371.667ZM3.16652 369.667C3.16652 369.391 2.94266 369.167 2.66652 369.167C2.39038 369.167 2.16652 369.391 2.16652 369.667L2.66652 369.667L3.16652 369.667ZM2.16652 363.667C2.16652 363.943 2.39038 364.167 2.66652 364.167C2.94266 364.167 3.16652 363.943 3.16652 363.667L2.66652 363.667L2.16652 363.667ZM3.16652 361.667C3.16652 361.391 2.94266 361.167 2.66652 361.167C2.39038 361.167 2.16652 361.391 2.16652 361.667L2.66652 361.667L3.16652 361.667ZM2.16652 355.667C2.16652 355.943 2.39038 356.167 2.66652 356.167C2.94266 356.167 3.16652 355.943 3.16652 355.667L2.66652 355.667L2.16652 355.667ZM3.16652 353.667C3.16652 353.391 2.94266 353.167 2.66652 353.167C2.39038 353.167 2.16652 353.391 2.16652 353.667L2.66652 353.667L3.16652 353.667ZM2.16652 347.667C2.16652 347.943 2.39038 348.167 2.66652 348.167C2.94267 348.167 3.16652 347.943 3.16652 347.667L2.66652 347.667L2.16652 347.667ZM3.16652 345.667C3.16652 345.391 2.94267 345.167 2.66652 345.167C2.39038 345.167 2.16652 345.391 2.16652 345.667L2.66652 345.667L3.16652 345.667ZM2.16652 339.667C2.16652 339.943 2.39038 340.167 2.66652 340.167C2.94267 340.167 3.16652 339.943 3.16652 339.667L2.66652 339.667L2.16652 339.667ZM3.16652 337.667C3.16652 337.391 2.94267 337.167 2.66652 337.167C2.39038 337.167 2.16652 337.391 2.16652 337.667L2.66652 337.667L3.16652 337.667ZM2.16652 331.667C2.16652 331.943 2.39038 332.167 2.66652 332.167C2.94267 332.167 3.16652 331.943 3.16652 331.667L2.66652 331.667L2.16652 331.667ZM3.16652 329.667C3.16652 329.391 2.94267 329.167 2.66652 329.167C2.39038 329.167 2.16652 329.391 2.16652 329.667L2.66652 329.667L3.16652 329.667ZM2.16652 323.667C2.16652 323.943 2.39038 324.167 2.66652 324.167C2.94267 324.167 3.16652 323.943 3.16652 323.667L2.66652 323.667L2.16652 323.667ZM3.16652 321.667C3.16652 321.391 2.94267 321.167 2.66652 321.167C2.39038 321.167 2.16652 321.391 2.16652 321.667L2.66652 321.667L3.16652 321.667ZM2.16652 315.667C2.16652 315.943 2.39038 316.167 2.66652 316.167C2.94267 316.167 3.16652 315.943 3.16652 315.667L2.66652 315.667L2.16652 315.667ZM3.16652 313.667C3.16652 313.391 2.94267 313.167 2.66652 313.167C2.39038 313.167 2.16652 313.391 2.16652 313.667L2.66652 313.667L3.16652 313.667ZM2.16652 307.667C2.16652 307.943 2.39038 308.167 2.66652 308.167C2.94267 308.167 3.16652 307.943 3.16652 307.667L2.66652 307.667L2.16652 307.667ZM3.16652 305.667C3.16652 305.391 2.94267 305.167 2.66652 305.167C2.39038 305.167 2.16652 305.391 2.16652 305.667L2.66652 305.667L3.16652 305.667ZM2.16652 299.667C2.16652 299.943 2.39038 300.167 2.66652 300.167C2.94267 300.167 3.16652 299.943 3.16652 299.667L2.66652 299.667L2.16652 299.667ZM3.16652 297.667C3.16652 297.391 2.94267 297.167 2.66652 297.167C2.39038 297.167 2.16652 297.391 2.16652 297.667L2.66652 297.667L3.16652 297.667ZM2.16653 291.667C2.16653 291.943 2.39038 292.167 2.66653 292.167C2.94267 292.167 3.16653 291.943 3.16653 291.667L2.66653 291.667L2.16653 291.667ZM3.16653 289.667C3.16653 289.391 2.94267 289.167 2.66653 289.167C2.39038 289.167 2.16653 289.391 2.16653 289.667L2.66653 289.667L3.16653 289.667ZM2.16653 283.667C2.16653 283.943 2.39038 284.167 2.66653 284.167C2.94267 284.167 3.16653 283.943 3.16653 283.667L2.66653 283.667L2.16653 283.667ZM3.16653 281.667C3.16653 281.391 2.94267 281.167 2.66653 281.167C2.39038 281.167 2.16653 281.391 2.16653 281.667L2.66653 281.667L3.16653 281.667ZM2.16653 275.667C2.16653 275.943 2.39038 276.167 2.66653 276.167C2.94267 276.167 3.16653 275.943 3.16653 275.667L2.66653 275.667L2.16653 275.667ZM3.16653 273.667C3.16653 273.391 2.94267 273.167 2.66653 273.167C2.39038 273.167 2.16653 273.391 2.16653 273.667L2.66653 273.667L3.16653 273.667ZM2.16653 267.667C2.16653 267.943 2.39038 268.167 2.66653 268.167C2.94267 268.167 3.16653 267.943 3.16653 267.667L2.66653 267.667L2.16653 267.667ZM3.16653 265.667C3.16653 265.391 2.94267 265.167 2.66653 265.167C2.39038 265.167 2.16653 265.391 2.16653 265.667L2.66653 265.667L3.16653 265.667ZM2.16653 259.667C2.16653 259.943 2.39038 260.167 2.66653 260.167C2.94267 260.167 3.16653 259.943 3.16653 259.667L2.66653 259.667L2.16653 259.667ZM3.16653 257.667C3.16653 257.391 2.94267 257.167 2.66653 257.167C2.39038 257.167 2.16653 257.391 2.16653 257.667L2.66653 257.667L3.16653 257.667ZM2.16653 251.667C2.16653 251.943 2.39038 252.167 2.66653 252.167C2.94267 252.167 3.16653 251.943 3.16653 251.667L2.66653 251.667L2.16653 251.667ZM3.16653 249.667C3.16653 249.391 2.94267 249.167 2.66653 249.167C2.39038 249.167 2.16653 249.391 2.16653 249.667L2.66653 249.667L3.16653 249.667ZM2.16653 243.667C2.16653 243.943 2.39038 244.167 2.66653 244.167C2.94267 244.167 3.16653 243.943 3.16653 243.667L2.66653 243.667L2.16653 243.667ZM3.16653 241.667C3.16653 241.391 2.94267 241.167 2.66653 241.167C2.39039 241.167 2.16653 241.391 2.16653 241.667L2.66653 241.667L3.16653 241.667ZM2.16653 235.667C2.16653 235.943 2.39039 236.167 2.66653 236.167C2.94267 236.167 3.16653 235.943 3.16653 235.667L2.66653 235.667L2.16653 235.667ZM3.16653 233.667C3.16653 233.391 2.94267 233.167 2.66653 233.167C2.39039 233.167 2.16653 233.391 2.16653 233.667L2.66653 233.667L3.16653 233.667ZM2.16653 227.667C2.16653 227.943 2.39039 228.167 2.66653 228.167C2.94267 228.167 3.16653 227.943 3.16653 227.667L2.66653 227.667L2.16653 227.667ZM3.16653 225.667C3.16653 225.391 2.94267 225.167 2.66653 225.167C2.39039 225.167 2.16653 225.391 2.16653 225.667L2.66653 225.667L3.16653 225.667ZM2.16653 219.667C2.16653 219.943 2.39039 220.167 2.66653 220.167C2.94267 220.167 3.16653 219.943 3.16653 219.667L2.66653 219.667L2.16653 219.667ZM3.16653 217.667C3.16653 217.391 2.94267 217.167 2.66653 217.167C2.39039 217.167 2.16653 217.391 2.16653 217.667L2.66653 217.667L3.16653 217.667ZM2.16653 211.667C2.16653 211.943 2.39039 212.167 2.66653 212.167C2.94267 212.167 3.16653 211.943 3.16653 211.667L2.66653 211.667L2.16653 211.667ZM3.16653 209.667C3.16653 209.391 2.94267 209.167 2.66653 209.167C2.39039 209.167 2.16653 209.391 2.16653 209.667L2.66653 209.667L3.16653 209.667ZM2.16653 203.667C2.16653 203.943 2.39039 204.167 2.66653 204.167C2.94267 204.167 3.16653 203.943 3.16653 203.667L2.66653 203.667L2.16653 203.667ZM3.16653 201.667C3.16653 201.391 2.94267 201.167 2.66653 201.167C2.39039 201.167 2.16653 201.391 2.16653 201.667L2.66653 201.667L3.16653 201.667ZM2.16653 195.667C2.16653 195.943 2.39039 196.167 2.66653 196.167C2.94267 196.167 3.16653 195.943 3.16653 195.667L2.66653 195.667L2.16653 195.667ZM3.16653 193.667C3.16653 193.391 2.94267 193.167 2.66653 193.167C2.39039 193.167 2.16653 193.391 2.16653 193.667L2.66653 193.667L3.16653 193.667ZM2.16653 187.667C2.16653 187.943 2.39039 188.167 2.66653 188.167C2.94267 188.167 3.16653 187.943 3.16653 187.667L2.66653 187.667L2.16653 187.667ZM3.16653 185.667C3.16653 185.391 2.94267 185.167 2.66653 185.167C2.39039 185.167 2.16653 185.391 2.16653 185.667L2.66653 185.667L3.16653 185.667ZM2.16653 179.667C2.16653 179.943 2.39039 180.167 2.66653 180.167C2.94267 180.167 3.16653 179.943 3.16653 179.667L2.66653 179.667L2.16653 179.667ZM3.16653 177.667C3.16653 177.391 2.94267 177.167 2.66653 177.167C2.39039 177.167 2.16653 177.391 2.16653 177.667L2.66653 177.667L3.16653 177.667ZM2.16653 171.667C2.16653 171.943 2.39039 172.167 2.66653 172.167C2.94267 172.167 3.16653 171.943 3.16653 171.667L2.66653 171.667L2.16653 171.667ZM3.16653 169.667C3.16653 169.391 2.94267 169.167 2.66653 169.167C2.39039 169.167 2.16653 169.391 2.16653 169.667L2.66653 169.667L3.16653 169.667ZM2.16653 163.667C2.16653 163.943 2.39039 164.167 2.66653 164.167C2.94267 164.167 3.16653 163.943 3.16653 163.667L2.66653 163.667L2.16653 163.667ZM3.16653 161.667C3.16653 161.391 2.94267 161.167 2.66653 161.167C2.39039 161.167 2.16653 161.391 2.16653 161.667L2.66653 161.667L3.16653 161.667ZM2.16653 155.667C2.16653 155.943 2.39039 156.167 2.66653 156.167C2.94267 156.167 3.16653 155.943 3.16653 155.667L2.66653 155.667L2.16653 155.667ZM3.16653 153.667C3.16653 153.391 2.94267 153.167 2.66653 153.167C2.39039 153.167 2.16653 153.391 2.16653 153.667L2.66653 153.667L3.16653 153.667ZM2.16653 147.667C2.16653 147.943 2.39039 148.167 2.66653 148.167C2.94267 148.167 3.16653 147.943 3.16653 147.667L2.66653 147.667L2.16653 147.667ZM3.16653 145.667C3.16653 145.391 2.94267 145.167 2.66653 145.167C2.39039 145.167 2.16653 145.391 2.16653 145.667L2.66653 145.667L3.16653 145.667ZM2.16653 139.667C2.16653 139.943 2.39039 140.167 2.66653 140.167C2.94267 140.167 3.16653 139.943 3.16653 139.667L2.66653 139.667L2.16653 139.667ZM3.16653 137.667C3.16653 137.391 2.94267 137.167 2.66653 137.167C2.39039 137.167 2.16653 137.391 2.16653 137.667L2.66653 137.667L3.16653 137.667ZM2.16653 131.667C2.16653 131.943 2.39039 132.167 2.66653 132.167C2.94267 132.167 3.16653 131.943 3.16653 131.667L2.66653 131.667L2.16653 131.667ZM3.16653 129.667C3.16653 129.391 2.94267 129.167 2.66653 129.167C2.39039 129.167 2.16653 129.391 2.16653 129.667L2.66653 129.667L3.16653 129.667ZM2.16653 123.667C2.16653 123.943 2.39039 124.167 2.66653 124.167C2.94267 124.167 3.16653 123.943 3.16653 123.667L2.66653 123.667L2.16653 123.667ZM3.16653 121.667C3.16653 121.391 2.94268 121.167 2.66653 121.167C2.39039 121.167 2.16653 121.391 2.16653 121.667L2.66653 121.667L3.16653 121.667ZM2.16653 115.667C2.16653 115.943 2.39039 116.167 2.66653 116.167C2.94268 116.167 3.16653 115.943 3.16653 115.667L2.66653 115.667L2.16653 115.667ZM3.16653 113.667C3.16653 113.391 2.94268 113.167 2.66653 113.167C2.39039 113.167 2.16653 113.391 2.16653 113.667L2.66653 113.667L3.16653 113.667ZM2.16653 107.667C2.16653 107.943 2.39039 108.167 2.66653 108.167C2.94268 108.167 3.16653 107.943 3.16653 107.667L2.66653 107.667L2.16653 107.667ZM3.16653 105.667C3.16653 105.391 2.94268 105.167 2.66653 105.167C2.39039 105.167 2.16653 105.391 2.16653 105.667L2.66653 105.667L3.16653 105.667ZM2.16653 99.6667C2.16653 99.9429 2.39039 100.167 2.66653 100.167C2.94268 100.167 3.16653 99.9429 3.16653 99.6667L2.66653 99.6667L2.16653 99.6667ZM3.16653 97.6667C3.16653 97.3906 2.94268 97.1667 2.66653 97.1667C2.39039 97.1667 2.16653 97.3906 2.16653 97.6667L2.66653 97.6667L3.16653 97.6667ZM2.16653 91.6667C2.16653 91.9429 2.39039 92.1667 2.66653 92.1667C2.94268 92.1667 3.16653 91.9429 3.16653 91.6667L2.66653 91.6667L2.16653 91.6667ZM3.16653 89.6667C3.16653 89.3906 2.94268 89.1667 2.66653 89.1667C2.39039 89.1667 2.16653 89.3906 2.16653 89.6667L2.66653 89.6667L3.16653 89.6667ZM2.16653 83.6667C2.16653 83.9429 2.39039 84.1667 2.66653 84.1667C2.94268 84.1667 3.16653 83.9429 3.16653 83.6667L2.66653 83.6667L2.16653 83.6667ZM3.16653 81.6667C3.16653 81.3906 2.94268 81.1667 2.66653 81.1667C2.39039 81.1667 2.16653 81.3906 2.16653 81.6667L2.66653 81.6667L3.16653 81.6667ZM2.16653 75.6667C2.16653 75.9429 2.39039 76.1667 2.66653 76.1667C2.94268 76.1667 3.16653 75.9429 3.16653 75.6667L2.66653 75.6667L2.16653 75.6667ZM3.16653 73.6667C3.16653 73.3906 2.94268 73.1667 2.66653 73.1667C2.39039 73.1667 2.16653 73.3906 2.16653 73.6667L2.66653 73.6667L3.16653 73.6667ZM2.16653 67.6667C2.16653 67.9429 2.39039 68.1667 2.66653 68.1667C2.94268 68.1667 3.16653 67.9429 3.16653 67.6667L2.66653 67.6667L2.16653 67.6667ZM3.16654 65.6667C3.16654 65.3906 2.94268 65.1667 2.66654 65.1667C2.39039 65.1667 2.16654 65.3906 2.16654 65.6667L2.66654 65.6667L3.16654 65.6667ZM2.16654 59.6667C2.16654 59.9429 2.39039 60.1667 2.66654 60.1667C2.94268 60.1667 3.16654 59.9429 3.16654 59.6667L2.66654 59.6667L2.16654 59.6667ZM3.16654 57.6667C3.16654 57.3906 2.94268 57.1667 2.66654 57.1667C2.39039 57.1667 2.16654 57.3906 2.16654 57.6667L2.66654 57.6667L3.16654 57.6667ZM2.16654 51.6667C2.16654 51.9429 2.39039 52.1667 2.66654 52.1667C2.94268 52.1667 3.16654 51.9429 3.16654 51.6667L2.66654 51.6667L2.16654 51.6667ZM3.16654 49.6667C3.16654 49.3906 2.94268 49.1667 2.66654 49.1667C2.39039 49.1667 2.16654 49.3906 2.16654 49.6667L2.66654 49.6667L3.16654 49.6667ZM2.16654 43.6667C2.16654 43.9429 2.39039 44.1667 2.66654 44.1667C2.94268 44.1667 3.16654 43.9429 3.16654 43.6667L2.66654 43.6667L2.16654 43.6667ZM3.16654 41.6667C3.16654 41.3906 2.94268 41.1667 2.66654 41.1667C2.39039 41.1667 2.16654 41.3906 2.16654 41.6667L2.66654 41.6667L3.16654 41.6667ZM2.16654 35.6667C2.16654 35.9429 2.39039 36.1667 2.66654 36.1667C2.94268 36.1667 3.16654 35.9429 3.16654 35.6667L2.66654 35.6667L2.16654 35.6667ZM3.16654 33.6667C3.16654 33.3906 2.94268 33.1667 2.66654 33.1667C2.39039 33.1667 2.16654 33.3906 2.16654 33.6667L2.66654 33.6667L3.16654 33.6667ZM2.16654 27.6667C2.16654 27.9429 2.39039 28.1667 2.66654 28.1667C2.94268 28.1667 3.16654 27.9429 3.16654 27.6667L2.66654 27.6667L2.16654 27.6667ZM3.16654 25.6667C3.16654 25.3906 2.94268 25.1667 2.66654 25.1667C2.39039 25.1667 2.16654 25.3906 2.16654 25.6667L2.66654 25.6667L3.16654 25.6667ZM2.16654 19.6667C2.16654 19.9429 2.39039 20.1667 2.66654 20.1667C2.94268 20.1667 3.16654 19.9429 3.16654 19.6667L2.66654 19.6667L2.16654 19.6667ZM3.16654 17.6667C3.16654 17.3906 2.94268 17.1667 2.66654 17.1667C2.39039 17.1667 2.16654 17.3906 2.16654 17.6667L2.66654 17.6667L3.16654 17.6667ZM2.16654 11.6667C2.16654 11.9429 2.3904 12.1667 2.66654 12.1667C2.94268 12.1667 3.16654 11.9429 3.16654 11.6667L2.66654 11.6667L2.16654 11.6667ZM3.16654 9.66675C3.16654 9.39063 2.94268 9.16675 2.66654 9.16675C2.3904 9.16675 2.16654 9.39062 2.16654 9.66675L2.66654 9.66675L3.16654 9.66675ZM2.16654 3.66675C2.16654 3.94287 2.3904 4.16675 2.66654 4.16675C2.94268 4.16675 3.16654 3.94287 3.16654 3.66675L2.66654 3.66675L2.16654 3.66675ZM2.6665 778.667L3.1665 778.667L3.1665 777.667L2.6665 777.667L2.1665 777.667L2.1665 778.667L2.6665 778.667ZM2.6665 771.667L3.1665 771.667L3.1665 769.667L2.6665 769.667L2.1665 769.667L2.1665 771.667L2.6665 771.667ZM2.6665 763.667L3.1665 763.667L3.1665 761.667L2.6665 761.667L2.1665 761.667L2.1665 763.667L2.6665 763.667ZM2.6665 755.667L3.1665 755.667L3.1665 753.667L2.6665 753.667L2.1665 753.667L2.1665 755.667L2.6665 755.667ZM2.66651 747.667L3.16651 747.667L3.16651 745.667L2.66651 745.667L2.16651 745.667L2.16651 747.667L2.66651 747.667ZM2.66651 739.667L3.16651 739.667L3.16651 737.667L2.66651 737.667L2.16651 737.667L2.16651 739.667L2.66651 739.667ZM2.66651 731.667L3.16651 731.667L3.16651 729.667L2.66651 729.667L2.16651 729.667L2.16651 731.667L2.66651 731.667ZM2.66651 723.667L3.16651 723.667L3.16651 721.667L2.66651 721.667L2.16651 721.667L2.16651 723.667L2.66651 723.667ZM2.66651 715.667L3.16651 715.667L3.16651 713.667L2.66651 713.667L2.16651 713.667L2.16651 715.667L2.66651 715.667ZM2.66651 707.667L3.16651 707.667L3.16651 705.667L2.66651 705.667L2.16651 705.667L2.16651 707.667L2.66651 707.667ZM2.66651 699.667L3.16651 699.667L3.16651 697.667L2.66651 697.667L2.16651 697.667L2.16651 699.667L2.66651 699.667ZM2.66651 691.667L3.16651 691.667L3.16651 689.667L2.66651 689.667L2.16651 689.667L2.16651 691.667L2.66651 691.667ZM2.66651 683.667L3.16651 683.667L3.16651 681.667L2.66651 681.667L2.16651 681.667L2.16651 683.667L2.66651 683.667ZM2.66651 675.667L3.16651 675.667L3.16651 673.667L2.66651 673.667L2.16651 673.667L2.16651 675.667L2.66651 675.667ZM2.66651 667.667L3.16651 667.667L3.16651 665.667L2.66651 665.667L2.16651 665.667L2.16651 667.667L2.66651 667.667ZM2.66651 659.667L3.16651 659.667L3.16651 657.667L2.66651 657.667L2.16651 657.667L2.16651 659.667L2.66651 659.667ZM2.66651 651.667L3.16651 651.667L3.16651 649.667L2.66651 649.667L2.16651 649.667L2.16651 651.667L2.66651 651.667ZM2.66651 643.667L3.16651 643.667L3.16651 641.667L2.66651 641.667L2.16651 641.667L2.16651 643.667L2.66651 643.667ZM2.66651 635.667L3.16651 635.667L3.16651 633.667L2.66651 633.667L2.16651 633.667L2.16651 635.667L2.66651 635.667ZM2.66651 627.667L3.16651 627.667L3.16651 625.667L2.66651 625.667L2.16651 625.667L2.16651 627.667L2.66651 627.667ZM2.66651 619.667L3.16651 619.667L3.16651 617.667L2.66651 617.667L2.16651 617.667L2.16651 619.667L2.66651 619.667ZM2.66651 611.667L3.16651 611.667L3.16651 609.667L2.66651 609.667L2.16651 609.667L2.16651 611.667L2.66651 611.667ZM2.66651 603.667L3.16651 603.667L3.16651 601.667L2.66651 601.667L2.16651 601.667L2.16651 603.667L2.66651 603.667ZM2.66651 595.667L3.16651 595.667L3.16651 593.667L2.66651 593.667L2.16651 593.667L2.16651 595.667L2.66651 595.667ZM2.66651 587.667L3.16651 587.667L3.16651 585.667L2.66651 585.667L2.16651 585.667L2.16651 587.667L2.66651 587.667ZM2.66651 579.667L3.16651 579.667L3.16651 577.667L2.66651 577.667L2.16651 577.667L2.16651 579.667L2.66651 579.667ZM2.66651 571.667L3.16651 571.667L3.16651 569.667L2.66651 569.667L2.16651 569.667L2.16651 571.667L2.66651 571.667ZM2.66651 563.667L3.16651 563.667L3.16651 561.667L2.66651 561.667L2.16651 561.667L2.16651 563.667L2.66651 563.667ZM2.66651 555.667L3.16651 555.667L3.16651 553.667L2.66651 553.667L2.16651 553.667L2.16651 555.667L2.66651 555.667ZM2.66651 547.667L3.16651 547.667L3.16651 545.667L2.66651 545.667L2.16651 545.667L2.16651 547.667L2.66651 547.667ZM2.66651 539.667L3.16651 539.667L3.16651 537.667L2.66651 537.667L2.16651 537.667L2.16651 539.667L2.66651 539.667ZM2.66651 531.667L3.16651 531.667L3.16651 529.667L2.66651 529.667L2.16651 529.667L2.16651 531.667L2.66651 531.667ZM2.66652 523.667L3.16652 523.667L3.16652 521.667L2.66652 521.667L2.16652 521.667L2.16652 523.667L2.66652 523.667ZM2.66652 515.667L3.16652 515.667L3.16652 513.667L2.66652 513.667L2.16652 513.667L2.16652 515.667L2.66652 515.667ZM2.66652 507.667L3.16652 507.667L3.16652 505.667L2.66652 505.667L2.16652 505.667L2.16652 507.667L2.66652 507.667ZM2.66652 499.667L3.16652 499.667L3.16652 497.667L2.66652 497.667L2.16652 497.667L2.16652 499.667L2.66652 499.667ZM2.66652 491.667L3.16652 491.667L3.16652 489.667L2.66652 489.667L2.16652 489.667L2.16652 491.667L2.66652 491.667ZM2.66652 483.667L3.16652 483.667L3.16652 481.667L2.66652 481.667L2.16652 481.667L2.16652 483.667L2.66652 483.667ZM2.66652 475.667L3.16652 475.667L3.16652 473.667L2.66652 473.667L2.16652 473.667L2.16652 475.667L2.66652 475.667ZM2.66652 467.667L3.16652 467.667L3.16652 465.667L2.66652 465.667L2.16652 465.667L2.16652 467.667L2.66652 467.667ZM2.66652 459.667L3.16652 459.667L3.16652 457.667L2.66652 457.667L2.16652 457.667L2.16652 459.667L2.66652 459.667ZM2.66652 451.667L3.16652 451.667L3.16652 449.667L2.66652 449.667L2.16652 449.667L2.16652 451.667L2.66652 451.667ZM2.66652 443.667L3.16652 443.667L3.16652 441.667L2.66652 441.667L2.16652 441.667L2.16652 443.667L2.66652 443.667ZM2.66652 435.667L3.16652 435.667L3.16652 433.667L2.66652 433.667L2.16652 433.667L2.16652 435.667L2.66652 435.667ZM2.66652 427.667L3.16652 427.667L3.16652 425.667L2.66652 425.667L2.16652 425.667L2.16652 427.667L2.66652 427.667ZM2.66652 419.667L3.16652 419.667L3.16652 417.667L2.66652 417.667L2.16652 417.667L2.16652 419.667L2.66652 419.667ZM2.66652 411.667L3.16652 411.667L3.16652 409.667L2.66652 409.667L2.16652 409.667L2.16652 411.667L2.66652 411.667ZM2.66652 403.667L3.16652 403.667L3.16652 401.667L2.66652 401.667L2.16652 401.667L2.16652 403.667L2.66652 403.667ZM2.66652 395.667L3.16652 395.667L3.16652 393.667L2.66652 393.667L2.16652 393.667L2.16652 395.667L2.66652 395.667ZM2.66652 387.667L3.16652 387.667L3.16652 385.667L2.66652 385.667L2.16652 385.667L2.16652 387.667L2.66652 387.667ZM2.66652 379.667L3.16652 379.667L3.16652 377.667L2.66652 377.667L2.16652 377.667L2.16652 379.667L2.66652 379.667ZM2.66652 371.667L3.16652 371.667L3.16652 369.667L2.66652 369.667L2.16652 369.667L2.16652 371.667L2.66652 371.667ZM2.66652 363.667L3.16652 363.667L3.16652 361.667L2.66652 361.667L2.16652 361.667L2.16652 363.667L2.66652 363.667ZM2.66652 355.667L3.16652 355.667L3.16652 353.667L2.66652 353.667L2.16652 353.667L2.16652 355.667L2.66652 355.667ZM2.66652 347.667L3.16652 347.667L3.16652 345.667L2.66652 345.667L2.16652 345.667L2.16652 347.667L2.66652 347.667ZM2.66652 339.667L3.16652 339.667L3.16652 337.667L2.66652 337.667L2.16652 337.667L2.16652 339.667L2.66652 339.667ZM2.66652 331.667L3.16652 331.667L3.16652 329.667L2.66652 329.667L2.16652 329.667L2.16652 331.667L2.66652 331.667ZM2.66652 323.667L3.16652 323.667L3.16652 321.667L2.66652 321.667L2.16652 321.667L2.16652 323.667L2.66652 323.667ZM2.66652 315.667L3.16652 315.667L3.16652 313.667L2.66652 313.667L2.16652 313.667L2.16652 315.667L2.66652 315.667ZM2.66652 307.667L3.16652 307.667L3.16652 305.667L2.66652 305.667L2.16652 305.667L2.16652 307.667L2.66652 307.667ZM2.66652 299.667L3.16652 299.667L3.16652 297.667L2.66652 297.667L2.16652 297.667L2.16652 299.667L2.66652 299.667ZM2.66653 291.667L3.16653 291.667L3.16653 289.667L2.66653 289.667L2.16653 289.667L2.16653 291.667L2.66653 291.667ZM2.66653 283.667L3.16653 283.667L3.16653 281.667L2.66653 281.667L2.16653 281.667L2.16653 283.667L2.66653 283.667ZM2.66653 275.667L3.16653 275.667L3.16653 273.667L2.66653 273.667L2.16653 273.667L2.16653 275.667L2.66653 275.667ZM2.66653 267.667L3.16653 267.667L3.16653 265.667L2.66653 265.667L2.16653 265.667L2.16653 267.667L2.66653 267.667ZM2.66653 259.667L3.16653 259.667L3.16653 257.667L2.66653 257.667L2.16653 257.667L2.16653 259.667L2.66653 259.667ZM2.66653 251.667L3.16653 251.667L3.16653 249.667L2.66653 249.667L2.16653 249.667L2.16653 251.667L2.66653 251.667ZM2.66653 243.667L3.16653 243.667L3.16653 241.667L2.66653 241.667L2.16653 241.667L2.16653 243.667L2.66653 243.667ZM2.66653 235.667L3.16653 235.667L3.16653 233.667L2.66653 233.667L2.16653 233.667L2.16653 235.667L2.66653 235.667ZM2.66653 227.667L3.16653 227.667L3.16653 225.667L2.66653 225.667L2.16653 225.667L2.16653 227.667L2.66653 227.667ZM2.66653 219.667L3.16653 219.667L3.16653 217.667L2.66653 217.667L2.16653 217.667L2.16653 219.667L2.66653 219.667ZM2.66653 211.667L3.16653 211.667L3.16653 209.667L2.66653 209.667L2.16653 209.667L2.16653 211.667L2.66653 211.667ZM2.66653 203.667L3.16653 203.667L3.16653 201.667L2.66653 201.667L2.16653 201.667L2.16653 203.667L2.66653 203.667ZM2.66653 195.667L3.16653 195.667L3.16653 193.667L2.66653 193.667L2.16653 193.667L2.16653 195.667L2.66653 195.667ZM2.66653 187.667L3.16653 187.667L3.16653 185.667L2.66653 185.667L2.16653 185.667L2.16653 187.667L2.66653 187.667ZM2.66653 179.667L3.16653 179.667L3.16653 177.667L2.66653 177.667L2.16653 177.667L2.16653 179.667L2.66653 179.667ZM2.66653 171.667L3.16653 171.667L3.16653 169.667L2.66653 169.667L2.16653 169.667L2.16653 171.667L2.66653 171.667ZM2.66653 163.667L3.16653 163.667L3.16653 161.667L2.66653 161.667L2.16653 161.667L2.16653 163.667L2.66653 163.667ZM2.66653 155.667L3.16653 155.667L3.16653 153.667L2.66653 153.667L2.16653 153.667L2.16653 155.667L2.66653 155.667ZM2.66653 147.667L3.16653 147.667L3.16653 145.667L2.66653 145.667L2.16653 145.667L2.16653 147.667L2.66653 147.667ZM2.66653 139.667L3.16653 139.667L3.16653 137.667L2.66653 137.667L2.16653 137.667L2.16653 139.667L2.66653 139.667ZM2.66653 131.667L3.16653 131.667L3.16653 129.667L2.66653 129.667L2.16653 129.667L2.16653 131.667L2.66653 131.667ZM2.66653 123.667L3.16653 123.667L3.16653 121.667L2.66653 121.667L2.16653 121.667L2.16653 123.667L2.66653 123.667ZM2.66653 115.667L3.16653 115.667L3.16653 113.667L2.66653 113.667L2.16653 113.667L2.16653 115.667L2.66653 115.667ZM2.66653 107.667L3.16653 107.667L3.16653 105.667L2.66653 105.667L2.16653 105.667L2.16653 107.667L2.66653 107.667ZM2.66653 99.6667L3.16653 99.6667L3.16653 97.6667L2.66653 97.6667L2.16653 97.6667L2.16653 99.6667L2.66653 99.6667ZM2.66653 91.6667L3.16653 91.6667L3.16653 89.6667L2.66653 89.6667L2.16653 89.6667L2.16653 91.6667L2.66653 91.6667ZM2.66653 83.6667L3.16653 83.6667L3.16653 81.6667L2.66653 81.6667L2.16653 81.6667L2.16653 83.6667L2.66653 83.6667ZM2.66653 75.6667L3.16653 75.6667L3.16653 73.6667L2.66653 73.6667L2.16653 73.6667L2.16653 75.6667L2.66653 75.6667ZM2.66653 67.6667L3.16653 67.6667L3.16654 65.6667L2.66654 65.6667L2.16654 65.6667L2.16653 67.6667L2.66653 67.6667ZM2.66654 59.6667L3.16654 59.6667L3.16654 57.6667L2.66654 57.6667L2.16654 57.6667L2.16654 59.6667L2.66654 59.6667ZM2.66654 51.6667L3.16654 51.6667L3.16654 49.6667L2.66654 49.6667L2.16654 49.6667L2.16654 51.6667L2.66654 51.6667ZM2.66654 43.6667L3.16654 43.6667L3.16654 41.6667L2.66654 41.6667L2.16654 41.6667L2.16654 43.6667L2.66654 43.6667ZM2.66654 35.6667L3.16654 35.6667L3.16654 33.6667L2.66654 33.6667L2.16654 33.6667L2.16654 35.6667L2.66654 35.6667ZM2.66654 27.6667L3.16654 27.6667L3.16654 25.6667L2.66654 25.6667L2.16654 25.6667L2.16654 27.6667L2.66654 27.6667ZM2.66654 19.6667L3.16654 19.6667L3.16654 17.6667L2.66654 17.6667L2.16654 17.6667L2.16654 19.6667L2.66654 19.6667ZM2.66654 11.6667L3.16654 11.6667L3.16654 9.66675L2.66654 9.66675L2.16654 9.66675L2.16654 11.6667L2.66654 11.6667ZM2.66654 3.66675L3.16654 3.66675L3.16654 2.66675L2.66654 2.66675L2.16654 2.66675L2.16654 3.66675L2.66654 3.66675Z" fill="url(#paint0_linear_152_931)"/>
<defs>
<linearGradient id="paint0_linear_152_931" x1="2.57811" y1="92.8408" x2="4.24379" y2="92.8421" gradientUnits="userSpaceOnUse">
<stop offset="1" stop-color="#B79F86"/>
</linearGradient>
</defs>
</svg>
