<svg width="1228" height="6" viewBox="0 0 1228 6" fill="none" xmlns="http://www.w3.org/2000/svg">
<path d="M1227.33 2.66675C1227.33 1.19399 1226.14 8.13007e-05 1224.67 8.13007e-05C1223.19 8.13007e-05 1222 1.19399 1222 2.66675C1222 4.13951 1223.19 5.33341 1224.67 5.33341C1226.14 5.33341 1227.33 4.13951 1227.33 2.66675ZM5.33325 2.66675C5.33325 1.19399 4.1394 8.13007e-05 2.66663 8.13007e-05C1.19385 8.13007e-05 0 1.19399 0 2.66675C0 4.13951 1.19385 5.33341 2.66663 5.33341C4.1394 5.33341 5.33325 4.13951 5.33325 2.66675ZM1223.67 2.16675C1223.39 2.16675 1223.17 2.39061 1223.17 2.66675C1223.17 2.94289 1223.39 3.16675 1223.67 3.16675V2.66675V2.16675ZM1217.68 3.16675C1217.95 3.16675 1218.18 2.94289 1218.18 2.66675C1218.18 2.39061 1217.95 2.16675 1217.68 2.16675V2.66675V3.16675ZM1215.68 2.16675C1215.41 2.16675 1215.18 2.39061 1215.18 2.66675C1215.18 2.94289 1215.41 3.16675 1215.68 3.16675V2.66675V2.16675ZM1209.69 3.16675C1209.97 3.16675 1210.19 2.94289 1210.19 2.66675C1210.19 2.39061 1209.97 2.16675 1209.69 2.16675V2.66675V3.16675ZM1207.69 2.16675C1207.42 2.16675 1207.19 2.39061 1207.19 2.66675C1207.19 2.94289 1207.42 3.16675 1207.69 3.16675V2.66675V2.16675ZM1201.7 3.16675C1201.98 3.16675 1202.2 2.94289 1202.2 2.66675C1202.2 2.39061 1201.98 2.16675 1201.7 2.16675V2.66675V3.16675ZM1199.71 2.16675C1199.43 2.16675 1199.21 2.39061 1199.21 2.66675C1199.21 2.94289 1199.43 3.16675 1199.71 3.16675V2.66675V2.16675ZM1193.72 3.16675C1193.99 3.16675 1194.22 2.94289 1194.22 2.66675C1194.22 2.39061 1193.99 2.16675 1193.72 2.16675V2.66675V3.16675ZM1191.72 2.16675C1191.44 2.16675 1191.22 2.39061 1191.22 2.66675C1191.22 2.94289 1191.44 3.16675 1191.72 3.16675V2.66675V2.16675ZM1185.73 3.16675C1186.01 3.16675 1186.23 2.94289 1186.23 2.66675C1186.23 2.39061 1186.01 2.16675 1185.73 2.16675V2.66675V3.16675ZM1183.73 2.16675C1183.46 2.16675 1183.23 2.39061 1183.23 2.66675C1183.23 2.94289 1183.46 3.16675 1183.73 3.16675V2.66675V2.16675ZM1177.74 3.16675C1178.02 3.16675 1178.24 2.94289 1178.24 2.66675C1178.24 2.39061 1178.02 2.16675 1177.74 2.16675V2.66675V3.16675ZM1175.75 2.16675C1175.47 2.16675 1175.25 2.39061 1175.25 2.66675C1175.25 2.94289 1175.47 3.16675 1175.75 3.16675V2.66675V2.16675ZM1169.76 3.16675C1170.03 3.16675 1170.26 2.94289 1170.26 2.66675C1170.26 2.39061 1170.03 2.16675 1169.76 2.16675V2.66675V3.16675ZM1167.76 2.16675C1167.48 2.16675 1167.26 2.39061 1167.26 2.66675C1167.26 2.94289 1167.48 3.16675 1167.76 3.16675V2.66675V2.16675ZM1161.77 3.16675C1162.05 3.16675 1162.27 2.94289 1162.27 2.66675C1162.27 2.39061 1162.05 2.16675 1161.77 2.16675V2.66675V3.16675ZM1159.77 2.16675C1159.5 2.16675 1159.27 2.39061 1159.27 2.66675C1159.27 2.94289 1159.5 3.16675 1159.77 3.16675V2.66675V2.16675ZM1153.78 3.16675C1154.06 3.16675 1154.28 2.94289 1154.28 2.66675C1154.28 2.39061 1154.06 2.16675 1153.78 2.16675V2.66675V3.16675ZM1151.79 2.16675C1151.51 2.16675 1151.29 2.39061 1151.29 2.66675C1151.29 2.94289 1151.51 3.16675 1151.79 3.16675V2.66675V2.16675ZM1145.8 3.16675C1146.07 3.16675 1146.3 2.94289 1146.3 2.66675C1146.3 2.39061 1146.07 2.16675 1145.8 2.16675V2.66675V3.16675ZM1143.8 2.16675C1143.52 2.16675 1143.3 2.39061 1143.3 2.66675C1143.3 2.94289 1143.52 3.16675 1143.8 3.16675V2.66675V2.16675ZM1137.81 3.16675C1138.08 3.16675 1138.31 2.94289 1138.31 2.66675C1138.31 2.39061 1138.08 2.16675 1137.81 2.16675V2.66675V3.16675ZM1135.81 2.16675C1135.54 2.16675 1135.31 2.39061 1135.31 2.66675C1135.31 2.94289 1135.54 3.16675 1135.81 3.16675V2.66675V2.16675ZM1129.82 3.16675C1130.1 3.16675 1130.32 2.94289 1130.32 2.66675C1130.32 2.39061 1130.1 2.16675 1129.82 2.16675V2.66675V3.16675ZM1127.83 2.16675C1127.55 2.16675 1127.33 2.39061 1127.33 2.66675C1127.33 2.94289 1127.55 3.16675 1127.83 3.16675V2.66675V2.16675ZM1121.83 3.16675C1122.11 3.16675 1122.33 2.94289 1122.33 2.66675C1122.33 2.39061 1122.11 2.16675 1121.83 2.16675V2.66675V3.16675ZM1119.84 2.16675C1119.56 2.16675 1119.34 2.39061 1119.34 2.66675C1119.34 2.94289 1119.56 3.16675 1119.84 3.16675V2.66675V2.16675ZM1113.85 3.16675C1114.12 3.16675 1114.35 2.94289 1114.35 2.66675C1114.35 2.39061 1114.12 2.16675 1113.85 2.16675V2.66675V3.16675ZM1111.85 2.16675C1111.58 2.16675 1111.35 2.39061 1111.35 2.66675C1111.35 2.94289 1111.58 3.16675 1111.85 3.16675V2.66675V2.16675ZM1105.86 3.16675C1106.14 3.16675 1106.36 2.94289 1106.36 2.66675C1106.36 2.39061 1106.14 2.16675 1105.86 2.16675V2.66675V3.16675ZM1103.86 2.16675C1103.59 2.16675 1103.36 2.39061 1103.36 2.66675C1103.36 2.94289 1103.59 3.16675 1103.86 3.16675V2.66675V2.16675ZM1097.87 3.16675C1098.15 3.16675 1098.37 2.94289 1098.37 2.66675C1098.37 2.39061 1098.15 2.16675 1097.87 2.16675V2.66675V3.16675ZM1095.88 2.16675C1095.6 2.16675 1095.38 2.39061 1095.38 2.66675C1095.38 2.94289 1095.6 3.16675 1095.88 3.16675V2.66675V2.16675ZM1089.89 3.16675C1090.16 3.16675 1090.39 2.94289 1090.39 2.66675C1090.39 2.39061 1090.16 2.16675 1089.89 2.16675V2.66675V3.16675ZM1087.89 2.16675C1087.61 2.16675 1087.39 2.39061 1087.39 2.66675C1087.39 2.94289 1087.61 3.16675 1087.89 3.16675V2.66675V2.16675ZM1081.9 3.16675C1082.18 3.16675 1082.4 2.94289 1082.4 2.66675C1082.4 2.39061 1082.18 2.16675 1081.9 2.16675V2.66675V3.16675ZM1079.9 2.16675C1079.63 2.16675 1079.4 2.39061 1079.4 2.66675C1079.4 2.94289 1079.63 3.16675 1079.9 3.16675V2.66675V2.16675ZM1073.91 3.16675C1074.19 3.16675 1074.41 2.94289 1074.41 2.66675C1074.41 2.39061 1074.19 2.16675 1073.91 2.16675V2.66675V3.16675ZM1071.92 2.16675C1071.64 2.16675 1071.42 2.39061 1071.42 2.66675C1071.42 2.94289 1071.64 3.16675 1071.92 3.16675V2.66675V2.16675ZM1065.93 3.16675C1066.2 3.16675 1066.43 2.94289 1066.43 2.66675C1066.43 2.39061 1066.2 2.16675 1065.93 2.16675V2.66675V3.16675ZM1063.93 2.16675C1063.65 2.16675 1063.43 2.39061 1063.43 2.66675C1063.43 2.94289 1063.65 3.16675 1063.93 3.16675V2.66675V2.16675ZM1057.94 3.16675C1058.22 3.16675 1058.44 2.94289 1058.44 2.66675C1058.44 2.39061 1058.22 2.16675 1057.94 2.16675V2.66675V3.16675ZM1055.94 2.16675C1055.67 2.16675 1055.44 2.39061 1055.44 2.66675C1055.44 2.94289 1055.67 3.16675 1055.94 3.16675V2.66675V2.16675ZM1049.95 3.16675C1050.23 3.16675 1050.45 2.94289 1050.45 2.66675C1050.45 2.39061 1050.23 2.16675 1049.95 2.16675V2.66675V3.16675ZM1047.96 2.16675C1047.68 2.16675 1047.46 2.39061 1047.46 2.66675C1047.46 2.94289 1047.68 3.16675 1047.96 3.16675V2.66675V2.16675ZM1041.97 3.16675C1042.24 3.16675 1042.47 2.94289 1042.47 2.66675C1042.47 2.39061 1042.24 2.16675 1041.97 2.16675V2.66675V3.16675ZM1039.97 2.16675C1039.69 2.16675 1039.47 2.39061 1039.47 2.66675C1039.47 2.94289 1039.69 3.16675 1039.97 3.16675V2.66675V2.16675ZM1033.98 3.16675C1034.25 3.16675 1034.48 2.94289 1034.48 2.66675C1034.48 2.39061 1034.25 2.16675 1033.98 2.16675V2.66675V3.16675ZM1031.98 2.16675C1031.71 2.16675 1031.48 2.39061 1031.48 2.66675C1031.48 2.94289 1031.71 3.16675 1031.98 3.16675V2.66675V2.16675ZM1025.99 3.16675C1026.27 3.16675 1026.49 2.94289 1026.49 2.66675C1026.49 2.39061 1026.27 2.16675 1025.99 2.16675V2.66675V3.16675ZM1023.99 2.16675C1023.72 2.16675 1023.49 2.39061 1023.49 2.66675C1023.49 2.94289 1023.72 3.16675 1023.99 3.16675V2.66675V2.16675ZM1018 3.16675C1018.28 3.16675 1018.5 2.94289 1018.5 2.66675C1018.5 2.39061 1018.28 2.16675 1018 2.16675V2.66675V3.16675ZM1016.01 2.16675C1015.73 2.16675 1015.51 2.39061 1015.51 2.66675C1015.51 2.94289 1015.73 3.16675 1016.01 3.16675V2.66675V2.16675ZM1010.02 3.16675C1010.29 3.16675 1010.52 2.94289 1010.52 2.66675C1010.52 2.39061 1010.29 2.16675 1010.02 2.16675V2.66675V3.16675ZM1008.02 2.16675C1007.74 2.16675 1007.52 2.39061 1007.52 2.66675C1007.52 2.94289 1007.74 3.16675 1008.02 3.16675V2.66675V2.16675ZM1002.03 3.16675C1002.31 3.16675 1002.53 2.94289 1002.53 2.66675C1002.53 2.39061 1002.31 2.16675 1002.03 2.16675V2.66675V3.16675ZM1000.03 2.16675C999.758 2.16675 999.534 2.39061 999.534 2.66675C999.534 2.94289 999.758 3.16675 1000.03 3.16675V2.66675V2.16675ZM994.044 3.16675C994.32 3.16675 994.544 2.94289 994.544 2.66675C994.544 2.39061 994.32 2.16675 994.044 2.16675V2.66675V3.16675ZM992.047 2.16675C991.771 2.16675 991.547 2.39061 991.547 2.66675C991.547 2.94289 991.771 3.16675 992.047 3.16675V2.66675V2.16675ZM986.057 3.16675C986.333 3.16675 986.557 2.94289 986.557 2.66675C986.557 2.39061 986.333 2.16675 986.057 2.16675V2.66675V3.16675ZM984.06 2.16675C983.784 2.16675 983.56 2.39061 983.56 2.66675C983.56 2.94289 983.784 3.16675 984.06 3.16675V2.66675V2.16675ZM978.07 3.16675C978.346 3.16675 978.57 2.94289 978.57 2.66675C978.57 2.39061 978.346 2.16675 978.07 2.16675V2.66675V3.16675ZM976.073 2.16675C975.797 2.16675 975.573 2.39061 975.573 2.66675C975.573 2.94289 975.797 3.16675 976.073 3.16675V2.66675V2.16675ZM970.083 3.16675C970.359 3.16675 970.583 2.94289 970.583 2.66675C970.583 2.39061 970.359 2.16675 970.083 2.16675V2.66675V3.16675ZM968.086 2.16675C967.81 2.16675 967.586 2.39061 967.586 2.66675C967.586 2.94289 967.81 3.16675 968.086 3.16675V2.66675V2.16675ZM962.096 3.16675C962.372 3.16675 962.596 2.94289 962.596 2.66675C962.596 2.39061 962.372 2.16675 962.096 2.16675V2.66675V3.16675ZM960.099 2.16675C959.823 2.16675 959.599 2.39061 959.599 2.66675C959.599 2.94289 959.823 3.16675 960.099 3.16675V2.66675V2.16675ZM954.109 3.16675C954.385 3.16675 954.609 2.94289 954.609 2.66675C954.609 2.39061 954.385 2.16675 954.109 2.16675V2.66675V3.16675ZM952.113 2.16675C951.836 2.16675 951.613 2.39061 951.613 2.66675C951.613 2.94289 951.836 3.16675 952.113 3.16675V2.66675V2.16675ZM946.122 3.16675C946.398 3.16675 946.622 2.94289 946.622 2.66675C946.622 2.39061 946.398 2.16675 946.122 2.16675V2.66675V3.16675ZM944.126 2.16675C943.849 2.16675 943.626 2.39061 943.626 2.66675C943.626 2.94289 943.849 3.16675 944.126 3.16675V2.66675V2.16675ZM938.135 3.16675C938.411 3.16675 938.635 2.94289 938.635 2.66675C938.635 2.39061 938.411 2.16675 938.135 2.16675V2.66675V3.16675ZM936.139 2.16675C935.862 2.16675 935.639 2.39061 935.639 2.66675C935.639 2.94289 935.862 3.16675 936.139 3.16675V2.66675V2.16675ZM930.148 3.16675C930.425 3.16675 930.648 2.94289 930.648 2.66675C930.648 2.39061 930.425 2.16675 930.148 2.16675V2.66675V3.16675ZM928.152 2.16675C927.876 2.16675 927.652 2.39061 927.652 2.66675C927.652 2.94289 927.876 3.16675 928.152 3.16675V2.66675V2.16675ZM922.161 3.16675C922.438 3.16675 922.661 2.94289 922.661 2.66675C922.661 2.39061 922.438 2.16675 922.161 2.16675V2.66675V3.16675ZM920.165 2.16675C919.889 2.16675 919.665 2.39061 919.665 2.66675C919.665 2.94289 919.889 3.16675 920.165 3.16675V2.66675V2.16675ZM914.175 3.16675C914.451 3.16675 914.675 2.94289 914.675 2.66675C914.675 2.39061 914.451 2.16675 914.175 2.16675V2.66675V3.16675ZM912.178 2.16675C911.902 2.16675 911.678 2.39061 911.678 2.66675C911.678 2.94289 911.902 3.16675 912.178 3.16675V2.66675V2.16675ZM906.188 3.16675C906.464 3.16675 906.688 2.94289 906.688 2.66675C906.688 2.39061 906.464 2.16675 906.188 2.16675V2.66675V3.16675ZM904.191 2.16675C903.915 2.16675 903.691 2.39061 903.691 2.66675C903.691 2.94289 903.915 3.16675 904.191 3.16675V2.66675V2.16675ZM898.201 3.16675C898.477 3.16675 898.701 2.94289 898.701 2.66675C898.701 2.39061 898.477 2.16675 898.201 2.16675V2.66675V3.16675ZM896.204 2.16675C895.928 2.16675 895.704 2.39061 895.704 2.66675C895.704 2.94289 895.928 3.16675 896.204 3.16675V2.66675V2.16675ZM890.214 3.16675C890.49 3.16675 890.714 2.94289 890.714 2.66675C890.714 2.39061 890.49 2.16675 890.214 2.16675V2.66675V3.16675ZM888.217 2.16675C887.941 2.16675 887.717 2.39061 887.717 2.66675C887.717 2.94289 887.941 3.16675 888.217 3.16675V2.66675V2.16675ZM882.227 3.16675C882.503 3.16675 882.727 2.94289 882.727 2.66675C882.727 2.39061 882.503 2.16675 882.227 2.16675V2.66675V3.16675ZM880.23 2.16675C879.954 2.16675 879.73 2.39061 879.73 2.66675C879.73 2.94289 879.954 3.16675 880.23 3.16675V2.66675V2.16675ZM874.24 3.16675C874.516 3.16675 874.74 2.94289 874.74 2.66675C874.74 2.39061 874.516 2.16675 874.24 2.16675V2.66675V3.16675ZM872.243 2.16675C871.967 2.16675 871.743 2.39061 871.743 2.66675C871.743 2.94289 871.967 3.16675 872.243 3.16675V2.66675V2.16675ZM866.253 3.16675C866.529 3.16675 866.753 2.94289 866.753 2.66675C866.753 2.39061 866.529 2.16675 866.253 2.16675V2.66675V3.16675ZM864.256 2.16675C863.98 2.16675 863.756 2.39061 863.756 2.66675C863.756 2.94289 863.98 3.16675 864.256 3.16675V2.66675V2.16675ZM858.266 3.16675C858.542 3.16675 858.766 2.94289 858.766 2.66675C858.766 2.39061 858.542 2.16675 858.266 2.16675V2.66675V3.16675ZM856.269 2.16675C855.993 2.16675 855.769 2.39061 855.769 2.66675C855.769 2.94289 855.993 3.16675 856.269 3.16675V2.66675V2.16675ZM850.279 3.16675C850.555 3.16675 850.779 2.94289 850.779 2.66675C850.779 2.39061 850.555 2.16675 850.279 2.16675V2.66675V3.16675ZM848.282 2.16675C848.006 2.16675 847.782 2.39061 847.782 2.66675C847.782 2.94289 848.006 3.16675 848.282 3.16675V2.66675V2.16675ZM842.292 3.16675C842.568 3.16675 842.792 2.94289 842.792 2.66675C842.792 2.39061 842.568 2.16675 842.292 2.16675V2.66675V3.16675ZM840.295 2.16675C840.019 2.16675 839.795 2.39061 839.795 2.66675C839.795 2.94289 840.019 3.16675 840.295 3.16675V2.66675V2.16675ZM834.305 3.16675C834.581 3.16675 834.805 2.94289 834.805 2.66675C834.805 2.39061 834.581 2.16675 834.305 2.16675V2.66675V3.16675ZM832.308 2.16675C832.032 2.16675 831.808 2.39061 831.808 2.66675C831.808 2.94289 832.032 3.16675 832.308 3.16675V2.66675V2.16675ZM826.318 3.16675C826.594 3.16675 826.818 2.94289 826.818 2.66675C826.818 2.39061 826.594 2.16675 826.318 2.16675V2.66675V3.16675ZM824.322 2.16675C824.045 2.16675 823.822 2.39061 823.822 2.66675C823.822 2.94289 824.045 3.16675 824.322 3.16675V2.66675V2.16675ZM818.331 3.16675C818.607 3.16675 818.831 2.94289 818.831 2.66675C818.831 2.39061 818.607 2.16675 818.331 2.16675V2.66675V3.16675ZM816.335 2.16675C816.058 2.16675 815.835 2.39061 815.835 2.66675C815.835 2.94289 816.058 3.16675 816.335 3.16675V2.66675V2.16675ZM810.344 3.16675C810.621 3.16675 810.844 2.94289 810.844 2.66675C810.844 2.39061 810.621 2.16675 810.344 2.16675V2.66675V3.16675ZM808.348 2.16675C808.071 2.16675 807.848 2.39061 807.848 2.66675C807.848 2.94289 808.071 3.16675 808.348 3.16675V2.66675V2.16675ZM802.357 3.16675C802.634 3.16675 802.857 2.94289 802.857 2.66675C802.857 2.39061 802.634 2.16675 802.357 2.16675V2.66675V3.16675ZM800.361 2.16675C800.085 2.16675 799.861 2.39061 799.861 2.66675C799.861 2.94289 800.085 3.16675 800.361 3.16675V2.66675V2.16675ZM794.37 3.16675C794.647 3.16675 794.87 2.94289 794.87 2.66675C794.87 2.39061 794.647 2.16675 794.37 2.16675V2.66675V3.16675ZM792.374 2.16675C792.098 2.16675 791.874 2.39061 791.874 2.66675C791.874 2.94289 792.098 3.16675 792.374 3.16675V2.66675V2.16675ZM786.384 3.16675C786.66 3.16675 786.884 2.94289 786.884 2.66675C786.884 2.39061 786.66 2.16675 786.384 2.16675V2.66675V3.16675ZM784.387 2.16675C784.111 2.16675 783.887 2.39061 783.887 2.66675C783.887 2.94289 784.111 3.16675 784.387 3.16675V2.66675V2.16675ZM778.397 3.16675C778.673 3.16675 778.897 2.94289 778.897 2.66675C778.897 2.39061 778.673 2.16675 778.397 2.16675V2.66675V3.16675ZM776.4 2.16675C776.124 2.16675 775.9 2.39061 775.9 2.66675C775.9 2.94289 776.124 3.16675 776.4 3.16675V2.66675V2.16675ZM770.41 3.16675C770.686 3.16675 770.91 2.94289 770.91 2.66675C770.91 2.39061 770.686 2.16675 770.41 2.16675V2.66675V3.16675ZM768.413 2.16675C768.137 2.16675 767.913 2.39061 767.913 2.66675C767.913 2.94289 768.137 3.16675 768.413 3.16675V2.66675V2.16675ZM762.423 3.16675C762.699 3.16675 762.923 2.94289 762.923 2.66675C762.923 2.39061 762.699 2.16675 762.423 2.16675V2.66675V3.16675ZM760.426 2.16675C760.15 2.16675 759.926 2.39061 759.926 2.66675C759.926 2.94289 760.15 3.16675 760.426 3.16675V2.66675V2.16675ZM754.436 3.16675C754.712 3.16675 754.936 2.94289 754.936 2.66675C754.936 2.39061 754.712 2.16675 754.436 2.16675V2.66675V3.16675ZM752.439 2.16675C752.163 2.16675 751.939 2.39061 751.939 2.66675C751.939 2.94289 752.163 3.16675 752.439 3.16675V2.66675V2.16675ZM746.449 3.16675C746.725 3.16675 746.949 2.94289 746.949 2.66675C746.949 2.39061 746.725 2.16675 746.449 2.16675V2.66675V3.16675ZM744.452 2.16675C744.176 2.16675 743.952 2.39061 743.952 2.66675C743.952 2.94289 744.176 3.16675 744.452 3.16675V2.66675V2.16675ZM738.462 3.16675C738.738 3.16675 738.962 2.94289 738.962 2.66675C738.962 2.39061 738.738 2.16675 738.462 2.16675V2.66675V3.16675ZM736.465 2.16675C736.189 2.16675 735.965 2.39061 735.965 2.66675C735.965 2.94289 736.189 3.16675 736.465 3.16675V2.66675V2.16675ZM730.475 3.16675C730.751 3.16675 730.975 2.94289 730.975 2.66675C730.975 2.39061 730.751 2.16675 730.475 2.16675V2.66675V3.16675ZM728.478 2.16675C728.202 2.16675 727.978 2.39061 727.978 2.66675C727.978 2.94289 728.202 3.16675 728.478 3.16675V2.66675V2.16675ZM722.488 3.16675C722.764 3.16675 722.988 2.94289 722.988 2.66675C722.988 2.39061 722.764 2.16675 722.488 2.16675V2.66675V3.16675ZM720.491 2.16675C720.215 2.16675 719.991 2.39061 719.991 2.66675C719.991 2.94289 720.215 3.16675 720.491 3.16675V2.66675V2.16675ZM714.501 3.16675C714.777 3.16675 715.001 2.94289 715.001 2.66675C715.001 2.39061 714.777 2.16675 714.501 2.16675V2.66675V3.16675ZM712.504 2.16675C712.228 2.16675 712.004 2.39061 712.004 2.66675C712.004 2.94289 712.228 3.16675 712.504 3.16675V2.66675V2.16675ZM706.514 3.16675C706.79 3.16675 707.014 2.94289 707.014 2.66675C707.014 2.39061 706.79 2.16675 706.514 2.16675V2.66675V3.16675ZM704.518 2.16675C704.241 2.16675 704.018 2.39061 704.018 2.66675C704.018 2.94289 704.241 3.16675 704.518 3.16675V2.66675V2.16675ZM698.527 3.16675C698.803 3.16675 699.027 2.94289 699.027 2.66675C699.027 2.39061 698.803 2.16675 698.527 2.16675V2.66675V3.16675ZM696.531 2.16675C696.254 2.16675 696.031 2.39061 696.031 2.66675C696.031 2.94289 696.254 3.16675 696.531 3.16675V2.66675V2.16675ZM690.54 3.16675C690.817 3.16675 691.04 2.94289 691.04 2.66675C691.04 2.39061 690.817 2.16675 690.54 2.16675V2.66675V3.16675ZM688.544 2.16675C688.268 2.16675 688.044 2.39061 688.044 2.66675C688.044 2.94289 688.268 3.16675 688.544 3.16675V2.66675V2.16675ZM682.554 3.16675C682.83 3.16675 683.054 2.94289 683.054 2.66675C683.054 2.39061 682.83 2.16675 682.554 2.16675V2.66675V3.16675ZM680.557 2.16675C680.281 2.16675 680.057 2.39061 680.057 2.66675C680.057 2.94289 680.281 3.16675 680.557 3.16675V2.66675V2.16675ZM674.567 3.16675C674.843 3.16675 675.067 2.94289 675.067 2.66675C675.067 2.39061 674.843 2.16675 674.567 2.16675V2.66675V3.16675ZM672.57 2.16675C672.294 2.16675 672.07 2.39061 672.07 2.66675C672.07 2.94289 672.294 3.16675 672.57 3.16675V2.66675V2.16675ZM666.58 3.16675C666.856 3.16675 667.08 2.94289 667.08 2.66675C667.08 2.39061 666.856 2.16675 666.58 2.16675V2.66675V3.16675ZM664.583 2.16675C664.307 2.16675 664.083 2.39061 664.083 2.66675C664.083 2.94289 664.307 3.16675 664.583 3.16675V2.66675V2.16675ZM658.593 3.16675C658.869 3.16675 659.093 2.94289 659.093 2.66675C659.093 2.39061 658.869 2.16675 658.593 2.16675V2.66675V3.16675ZM656.596 2.16675C656.32 2.16675 656.096 2.39061 656.096 2.66675C656.096 2.94289 656.32 3.16675 656.596 3.16675V2.66675V2.16675ZM650.606 3.16675C650.882 3.16675 651.106 2.94289 651.106 2.66675C651.106 2.39061 650.882 2.16675 650.606 2.16675V2.66675V3.16675ZM648.609 2.16675C648.333 2.16675 648.109 2.39061 648.109 2.66675C648.109 2.94289 648.333 3.16675 648.609 3.16675V2.66675V2.16675ZM642.619 3.16675C642.895 3.16675 643.119 2.94289 643.119 2.66675C643.119 2.39061 642.895 2.16675 642.619 2.16675V2.66675V3.16675ZM640.622 2.16675C640.346 2.16675 640.122 2.39061 640.122 2.66675C640.122 2.94289 640.346 3.16675 640.622 3.16675V2.66675V2.16675ZM634.632 3.16675C634.908 3.16675 635.132 2.94289 635.132 2.66675C635.132 2.39061 634.908 2.16675 634.632 2.16675V2.66675V3.16675ZM632.636 2.16675C632.359 2.16675 632.136 2.39061 632.136 2.66675C632.136 2.94289 632.359 3.16675 632.636 3.16675V2.66675V2.16675ZM626.645 3.16675C626.922 3.16675 627.145 2.94289 627.145 2.66675C627.145 2.39061 626.922 2.16675 626.645 2.16675V2.66675V3.16675ZM624.649 2.16675C624.373 2.16675 624.149 2.39061 624.149 2.66675C624.149 2.94289 624.373 3.16675 624.649 3.16675V2.66675V2.16675ZM618.659 3.16675C618.935 3.16675 619.159 2.94289 619.159 2.66675C619.159 2.39061 618.935 2.16675 618.659 2.16675V2.66675V3.16675ZM616.662 2.16675C616.386 2.16675 616.162 2.39061 616.162 2.66675C616.162 2.94289 616.386 3.16675 616.662 3.16675V2.66675V2.16675ZM610.672 3.16675C610.948 3.16675 611.172 2.94289 611.172 2.66675C611.172 2.39061 610.948 2.16675 610.672 2.16675V2.66675V3.16675ZM608.675 2.16675C608.399 2.16675 608.175 2.39061 608.175 2.66675C608.175 2.94289 608.399 3.16675 608.675 3.16675V2.66675V2.16675ZM602.685 3.16675C602.961 3.16675 603.185 2.94289 603.185 2.66675C603.185 2.39061 602.961 2.16675 602.685 2.16675V2.66675V3.16675ZM600.688 2.16675C600.412 2.16675 600.188 2.39061 600.188 2.66675C600.188 2.94289 600.412 3.16675 600.688 3.16675V2.66675V2.16675ZM594.698 3.16675C594.974 3.16675 595.198 2.94289 595.198 2.66675C595.198 2.39061 594.974 2.16675 594.698 2.16675V2.66675V3.16675ZM592.701 2.16675C592.425 2.16675 592.201 2.39061 592.201 2.66675C592.201 2.94289 592.425 3.16675 592.701 3.16675V2.66675V2.16675ZM586.711 3.16675C586.987 3.16675 587.211 2.94289 587.211 2.66675C587.211 2.39061 586.987 2.16675 586.711 2.16675V2.66675V3.16675ZM584.714 2.16675C584.438 2.16675 584.214 2.39061 584.214 2.66675C584.214 2.94289 584.438 3.16675 584.714 3.16675V2.66675V2.16675ZM578.724 3.16675C579 3.16675 579.224 2.94289 579.224 2.66675C579.224 2.39061 579 2.16675 578.724 2.16675V2.66675V3.16675ZM576.727 2.16675C576.451 2.16675 576.227 2.39061 576.227 2.66675C576.227 2.94289 576.451 3.16675 576.727 3.16675V2.66675V2.16675ZM570.737 3.16675C571.013 3.16675 571.237 2.94289 571.237 2.66675C571.237 2.39061 571.013 2.16675 570.737 2.16675V2.66675V3.16675ZM568.741 2.16675C568.464 2.16675 568.241 2.39061 568.241 2.66675C568.241 2.94289 568.464 3.16675 568.741 3.16675V2.66675V2.16675ZM562.75 3.16675C563.027 3.16675 563.25 2.94289 563.25 2.66675C563.25 2.39061 563.027 2.16675 562.75 2.16675V2.66675V3.16675ZM560.754 2.16675C560.478 2.16675 560.254 2.39061 560.254 2.66675C560.254 2.94289 560.478 3.16675 560.754 3.16675V2.66675V2.16675ZM554.763 3.16675C555.04 3.16675 555.263 2.94289 555.263 2.66675C555.263 2.39061 555.04 2.16675 554.763 2.16675V2.66675V3.16675ZM552.767 2.16675C552.491 2.16675 552.267 2.39061 552.267 2.66675C552.267 2.94289 552.491 3.16675 552.767 3.16675V2.66675V2.16675ZM546.777 3.16675C547.053 3.16675 547.277 2.94289 547.277 2.66675C547.277 2.39061 547.053 2.16675 546.777 2.16675V2.66675V3.16675ZM544.78 2.16675C544.504 2.16675 544.28 2.39061 544.28 2.66675C544.28 2.94289 544.504 3.16675 544.78 3.16675V2.66675V2.16675ZM538.79 3.16675C539.066 3.16675 539.29 2.94289 539.29 2.66675C539.29 2.39061 539.066 2.16675 538.79 2.16675V2.66675V3.16675ZM536.793 2.16675C536.517 2.16675 536.293 2.39061 536.293 2.66675C536.293 2.94289 536.517 3.16675 536.793 3.16675V2.66675V2.16675ZM530.803 3.16675C531.079 3.16675 531.303 2.94289 531.303 2.66675C531.303 2.39061 531.079 2.16675 530.803 2.16675V2.66675V3.16675ZM528.806 2.16675C528.53 2.16675 528.306 2.39061 528.306 2.66675C528.306 2.94289 528.53 3.16675 528.806 3.16675V2.66675V2.16675ZM522.816 3.16675C523.092 3.16675 523.316 2.94289 523.316 2.66675C523.316 2.39061 523.092 2.16675 522.816 2.16675V2.66675V3.16675ZM520.819 2.16675C520.543 2.16675 520.319 2.39061 520.319 2.66675C520.319 2.94289 520.543 3.16675 520.819 3.16675V2.66675V2.16675ZM514.829 3.16675C515.105 3.16675 515.329 2.94289 515.329 2.66675C515.329 2.39061 515.105 2.16675 514.829 2.16675V2.66675V3.16675ZM512.833 2.16675C512.556 2.16675 512.333 2.39061 512.333 2.66675C512.333 2.94289 512.556 3.16675 512.833 3.16675V2.66675V2.16675ZM506.842 3.16675C507.118 3.16675 507.342 2.94289 507.342 2.66675C507.342 2.39061 507.118 2.16675 506.842 2.16675V2.66675V3.16675ZM504.846 2.16675C504.569 2.16675 504.346 2.39061 504.346 2.66675C504.346 2.94289 504.569 3.16675 504.846 3.16675V2.66675V2.16675ZM498.855 3.16675C499.132 3.16675 499.355 2.94289 499.355 2.66675C499.355 2.39061 499.132 2.16675 498.855 2.16675V2.66675V3.16675ZM496.859 2.16675C496.583 2.16675 496.359 2.39061 496.359 2.66675C496.359 2.94289 496.583 3.16675 496.859 3.16675V2.66675V2.16675ZM490.869 3.16675C491.145 3.16675 491.369 2.94289 491.369 2.66675C491.369 2.39061 491.145 2.16675 490.869 2.16675V2.66675V3.16675ZM488.872 2.16675C488.596 2.16675 488.372 2.39061 488.372 2.66675C488.372 2.94289 488.596 3.16675 488.872 3.16675V2.66675V2.16675ZM482.882 3.16675C483.158 3.16675 483.382 2.94289 483.382 2.66675C483.382 2.39061 483.158 2.16675 482.882 2.16675V2.66675V3.16675ZM480.885 2.16675C480.609 2.16675 480.385 2.39061 480.385 2.66675C480.385 2.94289 480.609 3.16675 480.885 3.16675V2.66675V2.16675ZM474.895 3.16675C475.171 3.16675 475.395 2.94289 475.395 2.66675C475.395 2.39061 475.171 2.16675 474.895 2.16675V2.66675V3.16675ZM472.898 2.16675C472.622 2.16675 472.398 2.39061 472.398 2.66675C472.398 2.94289 472.622 3.16675 472.898 3.16675V2.66675V2.16675ZM466.908 3.16675C467.184 3.16675 467.408 2.94289 467.408 2.66675C467.408 2.39061 467.184 2.16675 466.908 2.16675V2.66675V3.16675ZM464.911 2.16675C464.635 2.16675 464.411 2.39061 464.411 2.66675C464.411 2.94289 464.635 3.16675 464.911 3.16675V2.66675V2.16675ZM458.921 3.16675C459.197 3.16675 459.421 2.94289 459.421 2.66675C459.421 2.39061 459.197 2.16675 458.921 2.16675V2.66675V3.16675ZM456.924 2.16675C456.648 2.16675 456.424 2.39061 456.424 2.66675C456.424 2.94289 456.648 3.16675 456.924 3.16675V2.66675V2.16675ZM450.934 3.16675C451.21 3.16675 451.434 2.94289 451.434 2.66675C451.434 2.39061 451.21 2.16675 450.934 2.16675V2.66675V3.16675ZM448.937 2.16675C448.661 2.16675 448.437 2.39061 448.437 2.66675C448.437 2.94289 448.661 3.16675 448.937 3.16675V2.66675V2.16675ZM442.947 3.16675C443.223 3.16675 443.447 2.94289 443.447 2.66675C443.447 2.39061 443.223 2.16675 442.947 2.16675V2.66675V3.16675ZM440.951 2.16675C440.674 2.16675 440.451 2.39061 440.451 2.66675C440.451 2.94289 440.674 3.16675 440.951 3.16675V2.66675V2.16675ZM434.96 3.16675C435.237 3.16675 435.46 2.94289 435.46 2.66675C435.46 2.39061 435.237 2.16675 434.96 2.16675V2.66675V3.16675ZM432.964 2.16675C432.688 2.16675 432.464 2.39061 432.464 2.66675C432.464 2.94289 432.688 3.16675 432.964 3.16675V2.66675V2.16675ZM426.973 3.16675C427.25 3.16675 427.473 2.94289 427.473 2.66675C427.473 2.39061 427.25 2.16675 426.973 2.16675V2.66675V3.16675ZM424.977 2.16675C424.701 2.16675 424.477 2.39061 424.477 2.66675C424.477 2.94289 424.701 3.16675 424.977 3.16675V2.66675V2.16675ZM418.987 3.16675C419.263 3.16675 419.487 2.94289 419.487 2.66675C419.487 2.39061 419.263 2.16675 418.987 2.16675V2.66675V3.16675ZM416.99 2.16675C416.714 2.16675 416.49 2.39061 416.49 2.66675C416.49 2.94289 416.714 3.16675 416.99 3.16675V2.66675V2.16675ZM411 3.16675C411.276 3.16675 411.5 2.94289 411.5 2.66675C411.5 2.39061 411.276 2.16675 411 2.16675V2.66675V3.16675ZM409.003 2.16675C408.727 2.16675 408.503 2.39061 408.503 2.66675C408.503 2.94289 408.727 3.16675 409.003 3.16675V2.66675V2.16675ZM403.013 3.16675C403.289 3.16675 403.513 2.94289 403.513 2.66675C403.513 2.39061 403.289 2.16675 403.013 2.16675V2.66675V3.16675ZM401.016 2.16675C400.74 2.16675 400.516 2.39061 400.516 2.66675C400.516 2.94289 400.74 3.16675 401.016 3.16675V2.66675V2.16675ZM395.026 3.16675C395.302 3.16675 395.526 2.94289 395.526 2.66675C395.526 2.39061 395.302 2.16675 395.026 2.16675V2.66675V3.16675ZM393.029 2.16675C392.753 2.16675 392.529 2.39061 392.529 2.66675C392.529 2.94289 392.753 3.16675 393.029 3.16675V2.66675V2.16675ZM387.039 3.16675C387.315 3.16675 387.539 2.94289 387.539 2.66675C387.539 2.39061 387.315 2.16675 387.039 2.16675V2.66675V3.16675ZM385.042 2.16675C384.766 2.16675 384.542 2.39061 384.542 2.66675C384.542 2.94289 384.766 3.16675 385.042 3.16675V2.66675V2.16675ZM379.052 3.16675C379.328 3.16675 379.552 2.94289 379.552 2.66675C379.552 2.39061 379.328 2.16675 379.052 2.16675V2.66675V3.16675ZM377.056 2.16675C376.779 2.16675 376.556 2.39061 376.556 2.66675C376.556 2.94289 376.779 3.16675 377.056 3.16675V2.66675V2.16675ZM371.065 3.16675C371.341 3.16675 371.565 2.94289 371.565 2.66675C371.565 2.39061 371.341 2.16675 371.065 2.16675V2.66675V3.16675ZM369.069 2.16675C368.793 2.16675 368.569 2.39061 368.569 2.66675C368.569 2.94289 368.793 3.16675 369.069 3.16675V2.66675V2.16675ZM363.078 3.16675C363.355 3.16675 363.578 2.94289 363.578 2.66675C363.578 2.39061 363.355 2.16675 363.078 2.16675V2.66675V3.16675ZM361.082 2.16675C360.806 2.16675 360.582 2.39061 360.582 2.66675C360.582 2.94289 360.806 3.16675 361.082 3.16675V2.66675V2.16675ZM355.092 3.16675C355.368 3.16675 355.592 2.94289 355.592 2.66675C355.592 2.39061 355.368 2.16675 355.092 2.16675V2.66675V3.16675ZM353.095 2.16675C352.819 2.16675 352.595 2.39061 352.595 2.66675C352.595 2.94289 352.819 3.16675 353.095 3.16675V2.66675V2.16675ZM347.105 3.16675C347.381 3.16675 347.605 2.94289 347.605 2.66675C347.605 2.39061 347.381 2.16675 347.105 2.16675V2.66675V3.16675ZM345.108 2.16675C344.832 2.16675 344.608 2.39061 344.608 2.66675C344.608 2.94289 344.832 3.16675 345.108 3.16675V2.66675V2.16675ZM339.118 3.16675C339.394 3.16675 339.618 2.94289 339.618 2.66675C339.618 2.39061 339.394 2.16675 339.118 2.16675V2.66675V3.16675ZM337.121 2.16675C336.845 2.16675 336.621 2.39061 336.621 2.66675C336.621 2.94289 336.845 3.16675 337.121 3.16675V2.66675V2.16675ZM331.131 3.16675C331.407 3.16675 331.631 2.94289 331.631 2.66675C331.631 2.39061 331.407 2.16675 331.131 2.16675V2.66675V3.16675ZM329.134 2.16675C328.858 2.16675 328.634 2.39061 328.634 2.66675C328.634 2.94289 328.858 3.16675 329.134 3.16675V2.66675V2.16675ZM323.144 3.16675C323.42 3.16675 323.644 2.94289 323.644 2.66675C323.644 2.39061 323.42 2.16675 323.144 2.16675V2.66675V3.16675ZM321.147 2.16675C320.871 2.16675 320.647 2.39061 320.647 2.66675C320.647 2.94289 320.871 3.16675 321.147 3.16675V2.66675V2.16675ZM315.157 3.16675C315.433 3.16675 315.657 2.94289 315.657 2.66675C315.657 2.39061 315.433 2.16675 315.157 2.16675V2.66675V3.16675ZM313.161 2.16675C312.884 2.16675 312.661 2.39061 312.661 2.66675C312.661 2.94289 312.884 3.16675 313.161 3.16675V2.66675V2.16675ZM307.17 3.16675C307.447 3.16675 307.67 2.94289 307.67 2.66675C307.67 2.39061 307.447 2.16675 307.17 2.16675V2.66675V3.16675ZM305.174 2.16675C304.897 2.16675 304.674 2.39061 304.674 2.66675C304.674 2.94289 304.897 3.16675 305.174 3.16675V2.66675V2.16675ZM299.183 3.16675C299.46 3.16675 299.683 2.94289 299.683 2.66675C299.683 2.39061 299.46 2.16675 299.183 2.16675V2.66675V3.16675ZM297.187 2.16675C296.911 2.16675 296.687 2.39061 296.687 2.66675C296.687 2.94289 296.911 3.16675 297.187 3.16675V2.66675V2.16675ZM291.197 3.16675C291.473 3.16675 291.697 2.94289 291.697 2.66675C291.697 2.39061 291.473 2.16675 291.197 2.16675V2.66675V3.16675ZM289.2 2.16675C288.924 2.16675 288.7 2.39061 288.7 2.66675C288.7 2.94289 288.924 3.16675 289.2 3.16675V2.66675V2.16675ZM283.21 3.16675C283.486 3.16675 283.71 2.94289 283.71 2.66675C283.71 2.39061 283.486 2.16675 283.21 2.16675V2.66675V3.16675ZM281.213 2.16675C280.937 2.16675 280.713 2.39061 280.713 2.66675C280.713 2.94289 280.937 3.16675 281.213 3.16675V2.66675V2.16675ZM275.223 3.16675C275.499 3.16675 275.723 2.94289 275.723 2.66675C275.723 2.39061 275.499 2.16675 275.223 2.16675V2.66675V3.16675ZM273.226 2.16675C272.95 2.16675 272.726 2.39061 272.726 2.66675C272.726 2.94289 272.95 3.16675 273.226 3.16675V2.66675V2.16675ZM267.236 3.16675C267.512 3.16675 267.736 2.94289 267.736 2.66675C267.736 2.39061 267.512 2.16675 267.236 2.16675V2.66675V3.16675ZM265.239 2.16675C264.963 2.16675 264.739 2.39061 264.739 2.66675C264.739 2.94289 264.963 3.16675 265.239 3.16675V2.66675V2.16675ZM259.249 3.16675C259.525 3.16675 259.749 2.94289 259.749 2.66675C259.749 2.39061 259.525 2.16675 259.249 2.16675V2.66675V3.16675ZM257.252 2.16675C256.976 2.16675 256.752 2.39061 256.752 2.66675C256.752 2.94289 256.976 3.16675 257.252 3.16675V2.66675V2.16675ZM251.262 3.16675C251.538 3.16675 251.762 2.94289 251.762 2.66675C251.762 2.39061 251.538 2.16675 251.262 2.16675V2.66675V3.16675ZM249.266 2.16675C248.989 2.16675 248.766 2.39061 248.766 2.66675C248.766 2.94289 248.989 3.16675 249.266 3.16675V2.66675V2.16675ZM243.275 3.16675C243.551 3.16675 243.775 2.94289 243.775 2.66675C243.775 2.39061 243.551 2.16675 243.275 2.16675V2.66675V3.16675ZM241.279 2.16675C241.003 2.16675 240.779 2.39061 240.779 2.66675C240.779 2.94289 241.003 3.16675 241.279 3.16675V2.66675V2.16675ZM235.288 3.16675C235.565 3.16675 235.788 2.94289 235.788 2.66675C235.788 2.39061 235.565 2.16675 235.288 2.16675V2.66675V3.16675ZM233.292 2.16675C233.016 2.16675 232.792 2.39061 232.792 2.66675C232.792 2.94289 233.016 3.16675 233.292 3.16675V2.66675V2.16675ZM227.302 3.16675C227.578 3.16675 227.802 2.94289 227.802 2.66675C227.802 2.39061 227.578 2.16675 227.302 2.16675V2.66675V3.16675ZM225.305 2.16675C225.029 2.16675 224.805 2.39061 224.805 2.66675C224.805 2.94289 225.029 3.16675 225.305 3.16675V2.66675V2.16675ZM219.315 3.16675C219.591 3.16675 219.815 2.94289 219.815 2.66675C219.815 2.39061 219.591 2.16675 219.315 2.16675V2.66675V3.16675ZM217.318 2.16675C217.042 2.16675 216.818 2.39061 216.818 2.66675C216.818 2.94289 217.042 3.16675 217.318 3.16675V2.66675V2.16675ZM211.328 3.16675C211.604 3.16675 211.828 2.94289 211.828 2.66675C211.828 2.39061 211.604 2.16675 211.328 2.16675V2.66675V3.16675ZM209.331 2.16675C209.055 2.16675 208.831 2.39061 208.831 2.66675C208.831 2.94289 209.055 3.16675 209.331 3.16675V2.66675V2.16675ZM203.341 3.16675C203.617 3.16675 203.841 2.94289 203.841 2.66675C203.841 2.39061 203.617 2.16675 203.341 2.16675V2.66675V3.16675ZM201.344 2.16675C201.068 2.16675 200.844 2.39061 200.844 2.66675C200.844 2.94289 201.068 3.16675 201.344 3.16675V2.66675V2.16675ZM195.354 3.16675C195.63 3.16675 195.854 2.94289 195.854 2.66675C195.854 2.39061 195.63 2.16675 195.354 2.16675V2.66675V3.16675ZM193.357 2.16675C193.081 2.16675 192.857 2.39061 192.857 2.66675C192.857 2.94289 193.081 3.16675 193.357 3.16675V2.66675V2.16675ZM187.367 3.16675C187.643 3.16675 187.867 2.94289 187.867 2.66675C187.867 2.39061 187.643 2.16675 187.367 2.16675V2.66675V3.16675ZM185.37 2.16675C185.094 2.16675 184.87 2.39061 184.87 2.66675C184.87 2.94289 185.094 3.16675 185.37 3.16675V2.66675V2.16675ZM179.38 3.16675C179.656 3.16675 179.88 2.94289 179.88 2.66675C179.88 2.39061 179.656 2.16675 179.38 2.16675V2.66675V3.16675ZM177.383 2.16675C177.107 2.16675 176.883 2.39061 176.883 2.66675C176.883 2.94289 177.107 3.16675 177.383 3.16675V2.66675V2.16675ZM171.393 3.16675C171.669 3.16675 171.893 2.94289 171.893 2.66675C171.893 2.39061 171.669 2.16675 171.393 2.16675V2.66675V3.16675ZM169.396 2.16675C169.12 2.16675 168.896 2.39061 168.896 2.66675C168.896 2.94289 169.12 3.16675 169.396 3.16675V2.66675V2.16675ZM163.406 3.16675C163.682 3.16675 163.906 2.94289 163.906 2.66675C163.906 2.39061 163.682 2.16675 163.406 2.16675V2.66675V3.16675ZM161.41 2.16675C161.133 2.16675 160.91 2.39061 160.91 2.66675C160.91 2.94289 161.133 3.16675 161.41 3.16675V2.66675V2.16675ZM155.419 3.16675C155.695 3.16675 155.919 2.94289 155.919 2.66675C155.919 2.39061 155.695 2.16675 155.419 2.16675V2.66675V3.16675ZM153.423 2.16675C153.146 2.16675 152.923 2.39061 152.923 2.66675C152.923 2.94289 153.146 3.16675 153.423 3.16675V2.66675V2.16675ZM147.432 3.16675C147.708 3.16675 147.932 2.94289 147.932 2.66675C147.932 2.39061 147.708 2.16675 147.432 2.16675V2.66675V3.16675ZM145.436 2.16675C145.16 2.16675 144.936 2.39061 144.936 2.66675C144.936 2.94289 145.16 3.16675 145.436 3.16675V2.66675V2.16675ZM139.445 3.16675C139.722 3.16675 139.945 2.94289 139.945 2.66675C139.945 2.39061 139.722 2.16675 139.445 2.16675V2.66675V3.16675ZM137.449 2.16675C137.173 2.16675 136.949 2.39061 136.949 2.66675C136.949 2.94289 137.173 3.16675 137.449 3.16675V2.66675V2.16675ZM131.458 3.16675C131.735 3.16675 131.958 2.94289 131.958 2.66675C131.958 2.39061 131.735 2.16675 131.458 2.16675V2.66675V3.16675ZM129.462 2.16675C129.186 2.16675 128.962 2.39061 128.962 2.66675C128.962 2.94289 129.186 3.16675 129.462 3.16675V2.66675V2.16675ZM123.472 3.16675C123.748 3.16675 123.972 2.94289 123.972 2.66675C123.972 2.39061 123.748 2.16675 123.472 2.16675V2.66675V3.16675ZM121.475 2.16675C121.199 2.16675 120.975 2.39061 120.975 2.66675C120.975 2.94289 121.199 3.16675 121.475 3.16675V2.66675V2.16675ZM115.485 3.16675C115.761 3.16675 115.985 2.94289 115.985 2.66675C115.985 2.39061 115.761 2.16675 115.485 2.16675V2.66675V3.16675ZM113.488 2.16675C113.212 2.16675 112.988 2.39061 112.988 2.66675C112.988 2.94289 113.212 3.16675 113.488 3.16675V2.66675V2.16675ZM107.498 3.16675C107.774 3.16675 107.998 2.94289 107.998 2.66675C107.998 2.39061 107.774 2.16675 107.498 2.16675V2.66675V3.16675ZM105.501 2.16675C105.225 2.16675 105.001 2.39061 105.001 2.66675C105.001 2.94289 105.225 3.16675 105.501 3.16675V2.66675V2.16675ZM99.5107 3.16675C99.7869 3.16675 100.011 2.94289 100.011 2.66675C100.011 2.39061 99.7869 2.16675 99.5107 2.16675V2.66675V3.16675ZM97.514 2.16675C97.2379 2.16675 97.014 2.39061 97.014 2.66675C97.014 2.94289 97.2379 3.16675 97.514 3.16675V2.66675V2.16675ZM91.5238 3.16675C91.7999 3.16675 92.0238 2.94289 92.0238 2.66675C92.0238 2.39061 91.7999 2.16675 91.5238 2.16675V2.66675V3.16675ZM89.5271 2.16675C89.251 2.16675 89.0271 2.39061 89.0271 2.66675C89.0271 2.94289 89.251 3.16675 89.5271 3.16675V2.66675V2.16675ZM83.5369 3.16675C83.813 3.16675 84.0369 2.94289 84.0369 2.66675C84.0369 2.39061 83.813 2.16675 83.5369 2.16675V2.66675V3.16675ZM81.5402 2.16675C81.264 2.16675 81.0402 2.39061 81.0402 2.66675C81.0402 2.94289 81.264 3.16675 81.5402 3.16675V2.66675V2.16675ZM75.5499 3.16675C75.826 3.16675 76.0499 2.94289 76.0499 2.66675C76.0499 2.39061 75.826 2.16675 75.5499 2.16675V2.66675V3.16675ZM73.5532 2.16675C73.2771 2.16675 73.0532 2.39061 73.0532 2.66675C73.0532 2.94289 73.2771 3.16675 73.5532 3.16675V2.66675V2.16675ZM67.563 3.16675C67.8391 3.16675 68.063 2.94289 68.063 2.66675C68.063 2.39061 67.8391 2.16675 67.563 2.16675V2.66675V3.16675ZM65.5663 2.16675C65.2902 2.16675 65.0663 2.39061 65.0663 2.66675C65.0663 2.94289 65.2902 3.16675 65.5663 3.16675V2.66675V2.16675ZM59.576 3.16675C59.8522 3.16675 60.076 2.94289 60.076 2.66675C60.076 2.39061 59.8522 2.16675 59.576 2.16675V2.66675V3.16675ZM57.5793 2.16675C57.3032 2.16675 57.0793 2.39061 57.0793 2.66675C57.0793 2.94289 57.3032 3.16675 57.5793 3.16675V2.66675V2.16675ZM51.5891 3.16675C51.8652 3.16675 52.0891 2.94289 52.0891 2.66675C52.0891 2.39061 51.8652 2.16675 51.5891 2.16675V2.66675V3.16675ZM49.5924 2.16675C49.3163 2.16675 49.0924 2.39061 49.0924 2.66675C49.0924 2.94289 49.3163 3.16675 49.5924 3.16675V2.66675V2.16675ZM43.6022 3.16675C43.8783 3.16675 44.1022 2.94289 44.1022 2.66675C44.1022 2.39061 43.8783 2.16675 43.6022 2.16675V2.66675V3.16675ZM41.6055 2.16675C41.3293 2.16675 41.1055 2.39061 41.1055 2.66675C41.1055 2.94289 41.3293 3.16675 41.6055 3.16675V2.66675V2.16675ZM35.6152 3.16675C35.8914 3.16675 36.1152 2.94289 36.1152 2.66675C36.1152 2.39061 35.8914 2.16675 35.6152 2.16675V2.66675V3.16675ZM33.6185 2.16675C33.3424 2.16675 33.1185 2.39061 33.1185 2.66675C33.1185 2.94289 33.3424 3.16675 33.6185 3.16675V2.66675V2.16675ZM27.6283 3.16675C27.9044 3.16675 28.1283 2.94289 28.1283 2.66675C28.1283 2.39061 27.9044 2.16675 27.6283 2.16675V2.66675V3.16675ZM25.6316 2.16675C25.3555 2.16675 25.1316 2.39061 25.1316 2.66675C25.1316 2.94289 25.3555 3.16675 25.6316 3.16675V2.66675V2.16675ZM19.6414 3.16675C19.9175 3.16675 20.1414 2.94289 20.1414 2.66675C20.1414 2.39061 19.9175 2.16675 19.6414 2.16675V2.66675V3.16675ZM17.6447 2.16675C17.3685 2.16675 17.1447 2.39061 17.1447 2.66675C17.1447 2.94289 17.3685 3.16675 17.6447 3.16675V2.66675V2.16675ZM11.6544 3.16675C11.9305 3.16675 12.1544 2.94289 12.1544 2.66675C12.1544 2.39061 11.9305 2.16675 11.6544 2.16675V2.66675V3.16675ZM9.65771 2.16675C9.38159 2.16675 9.15771 2.39061 9.15771 2.66675C9.15771 2.94289 9.38159 3.16675 9.65771 3.16675V2.66675V2.16675ZM3.66748 3.16675C3.9436 3.16675 4.16748 2.94289 4.16748 2.66675C4.16748 2.39061 3.9436 2.16675 3.66748 2.16675V2.66675V3.16675ZM1224.67 2.66675V2.16675H1223.67V2.66675V3.16675H1224.67V2.66675ZM1217.68 2.66675V2.16675H1215.68V2.66675V3.16675H1217.68V2.66675ZM1209.69 2.66675V2.16675L1207.69 2.16675V2.66675V3.16675L1209.69 3.16675V2.66675ZM1201.7 2.66675V2.16675L1199.71 2.16675V2.66675V3.16675L1201.7 3.16675V2.66675ZM1193.72 2.66675V2.16675L1191.72 2.16675V2.66675V3.16675L1193.72 3.16675V2.66675ZM1185.73 2.66675V2.16675H1183.73V2.66675V3.16675H1185.73V2.66675ZM1177.74 2.66675V2.16675L1175.75 2.16675V2.66675V3.16675L1177.74 3.16675V2.66675ZM1169.76 2.66675V2.16675L1167.76 2.16675V2.66675V3.16675L1169.76 3.16675V2.66675ZM1161.77 2.66675V2.16675L1159.77 2.16675V2.66675V3.16675L1161.77 3.16675V2.66675ZM1153.78 2.66675V2.16675H1151.79V2.66675V3.16675H1153.78V2.66675ZM1145.8 2.66675V2.16675H1143.8V2.66675V3.16675H1145.8V2.66675ZM1137.81 2.66675V2.16675H1135.81V2.66675V3.16675H1137.81V2.66675ZM1129.82 2.66675V2.16675L1127.83 2.16675V2.66675V3.16675L1129.82 3.16675V2.66675ZM1121.83 2.66675V2.16675L1119.84 2.16675V2.66675V3.16675L1121.83 3.16675V2.66675ZM1113.85 2.66675V2.16675L1111.85 2.16675V2.66675V3.16675L1113.85 3.16675V2.66675ZM1105.86 2.66675V2.16675H1103.86V2.66675V3.16675H1105.86V2.66675ZM1097.87 2.66675V2.16675L1095.88 2.16675V2.66675V3.16675L1097.87 3.16675V2.66675ZM1089.89 2.66675V2.16675L1087.89 2.16675V2.66675V3.16675L1089.89 3.16675V2.66675ZM1081.9 2.66675V2.16675L1079.9 2.16675V2.66675V3.16675L1081.9 3.16675V2.66675ZM1073.91 2.66675V2.16675H1071.92V2.66675V3.16675H1073.91V2.66675ZM1065.93 2.66675V2.16675H1063.93V2.66675V3.16675H1065.93V2.66675ZM1057.94 2.66675V2.16675H1055.94V2.66675V3.16675H1057.94V2.66675ZM1049.95 2.66675V2.16675L1047.96 2.16675V2.66675V3.16675L1049.95 3.16675V2.66675ZM1041.97 2.66675V2.16675L1039.97 2.16675V2.66675V3.16675L1041.97 3.16675V2.66675ZM1033.98 2.66675V2.16675H1031.98V2.66675V3.16675L1033.98 3.16675V2.66675ZM1025.99 2.66675V2.16675H1023.99V2.66675V3.16675H1025.99V2.66675ZM1018 2.66675V2.16675L1016.01 2.16675V2.66675V3.16675L1018 3.16675V2.66675ZM1010.02 2.66675V2.16675L1008.02 2.16675V2.66675V3.16675L1010.02 3.16675V2.66675ZM1002.03 2.66675V2.16675L1000.03 2.16675V2.66675V3.16675H1002.03V2.66675ZM994.044 2.66675V2.16675H992.047V2.66675V3.16675H994.044V2.66675ZM986.057 2.66675V2.16675H984.06V2.66675V3.16675H986.057V2.66675ZM978.07 2.66675V2.16675H976.073V2.66675V3.16675H978.07V2.66675ZM970.083 2.66675V2.16675L968.086 2.16675V2.66675V3.16675L970.083 3.16675V2.66675ZM962.096 2.66675V2.16675L960.099 2.16675V2.66675V3.16675L962.096 3.16675V2.66675ZM954.109 2.66675V2.16675H952.113V2.66675V3.16675L954.109 3.16675V2.66675ZM946.122 2.66675V2.16675H944.126V2.66675V3.16675H946.122V2.66675ZM938.135 2.66675V2.16675L936.139 2.16675V2.66675V3.16675L938.135 3.16675V2.66675ZM930.148 2.66675V2.16675L928.152 2.16675V2.66675V3.16675L930.148 3.16675V2.66675ZM922.161 2.66675V2.16675L920.165 2.16675V2.66675V3.16675H922.161V2.66675ZM914.175 2.66675V2.16675H912.178V2.66675V3.16675H914.175V2.66675ZM906.188 2.66675V2.16675H904.191V2.66675V3.16675H906.188V2.66675ZM898.201 2.66675V2.16675L896.204 2.16675V2.66675V3.16675H898.201V2.66675ZM890.214 2.66675V2.16675L888.217 2.16675V2.66675V3.16675L890.214 3.16675V2.66675ZM882.227 2.66675V2.16675L880.23 2.16675V2.66675V3.16675L882.227 3.16675V2.66675ZM874.24 2.66675V2.16675H872.243V2.66675V3.16675H874.24V2.66675ZM866.253 2.66675V2.16675H864.256V2.66675V3.16675L866.253 3.16675V2.66675ZM858.266 2.66675V2.16675L856.269 2.16675V2.66675V3.16675L858.266 3.16675V2.66675ZM850.279 2.66675V2.16675L848.282 2.16675V2.66675V3.16675L850.279 3.16675V2.66675ZM842.292 2.66675V2.16675H840.295V2.66675V3.16675H842.292V2.66675ZM834.305 2.66675V2.16675H832.308V2.66675V3.16675H834.305V2.66675ZM826.318 2.66675V2.16675H824.322V2.66675V3.16675H826.318V2.66675ZM818.331 2.66675V2.16675L816.335 2.16675V2.66675V3.16675H818.331V2.66675ZM810.344 2.66675V2.16675L808.348 2.16675V2.66675V3.16675L810.344 3.16675V2.66675ZM802.357 2.66675V2.16675L800.361 2.16675V2.66675V3.16675L802.357 3.16675V2.66675ZM794.37 2.66675V2.16675H792.374V2.66675V3.16675H794.37V2.66675ZM786.384 2.66675V2.16675H784.387V2.66675V3.16675L786.384 3.16675V2.66675ZM778.397 2.66675V2.16675L776.4 2.16675V2.66675V3.16675L778.397 3.16675V2.66675ZM770.41 2.66675V2.16675L768.413 2.16675V2.66675V3.16675L770.41 3.16675V2.66675ZM762.423 2.66675V2.16675H760.426V2.66675V3.16675H762.423V2.66675ZM754.436 2.66675V2.16675H752.439V2.66675V3.16675H754.436V2.66675ZM746.449 2.66675V2.16675H744.452V2.66675V3.16675H746.449V2.66675ZM738.462 2.66675V2.16675L736.465 2.16675V2.66675V3.16675L738.462 3.16675V2.66675ZM730.475 2.66675V2.16675L728.478 2.16675V2.66675V3.16675L730.475 3.16675V2.66675ZM722.488 2.66675V2.16675L720.491 2.16675V2.66675V3.16675L722.488 3.16675V2.66675ZM714.501 2.66675V2.16675H712.504V2.66675V3.16675H714.501V2.66675ZM706.514 2.66675V2.16675L704.518 2.16675V2.66675V3.16675L706.514 3.16675V2.66675ZM698.527 2.66675V2.16675L696.531 2.16675V2.66675V3.16675L698.527 3.16675V2.66675ZM690.54 2.66675V2.16675L688.544 2.16675V2.66675V3.16675L690.54 3.16675V2.66675ZM682.554 2.66675V2.16675H680.557V2.66675V3.16675H682.554V2.66675ZM674.567 2.66675V2.16675H672.57V2.66675V3.16675H674.567V2.66675ZM666.58 2.66675V2.16675H664.583V2.66675V3.16675H666.58V2.66675ZM658.593 2.66675V2.16675L656.596 2.16675V2.66675V3.16675L658.593 3.16675V2.66675ZM650.606 2.66675V2.16675L648.609 2.16675V2.66675V3.16675L650.606 3.16675V2.66675ZM642.619 2.66675V2.16675L640.622 2.16675V2.66675V3.16675L642.619 3.16675V2.66675ZM634.632 2.66675V2.16675H632.636V2.66675V3.16675H634.632V2.66675ZM626.645 2.66675V2.16675L624.649 2.16675V2.66675V3.16675L626.645 3.16675V2.66675ZM618.659 2.66675V2.16675L616.662 2.16675V2.66675V3.16675L618.659 3.16675V2.66675ZM610.672 2.66675V2.16675L608.675 2.16675V2.66675V3.16675L610.672 3.16675V2.66675ZM602.685 2.66675V2.16675H600.688V2.66675V3.16675H602.685V2.66675ZM594.698 2.66675V2.16675H592.701V2.66675V3.16675H594.698V2.66675ZM586.711 2.66675V2.16675H584.714V2.66675V3.16675H586.711V2.66675ZM578.724 2.66675V2.16675L576.727 2.16675V2.66675V3.16675L578.724 3.16675V2.66675ZM570.737 2.66675V2.16675L568.741 2.16675V2.66675V3.16675L570.737 3.16675V2.66675ZM562.75 2.66675V2.16675L560.754 2.16675V2.66675V3.16675L562.75 3.16675V2.66675ZM554.763 2.66675V2.16675H552.767V2.66675V3.16675H554.763V2.66675ZM546.777 2.66675V2.16675L544.78 2.16675V2.66675V3.16675L546.777 3.16675V2.66675ZM538.79 2.66675V2.16675L536.793 2.16675V2.66675V3.16675L538.79 3.16675V2.66675ZM530.803 2.66675V2.16675L528.806 2.16675V2.66675V3.16675L530.803 3.16675V2.66675ZM522.816 2.66675V2.16675H520.819V2.66675V3.16675H522.816V2.66675ZM514.829 2.66675V2.16675H512.833V2.66675V3.16675H514.829V2.66675ZM506.842 2.66675V2.16675H504.846V2.66675V3.16675H506.842V2.66675ZM498.855 2.66675V2.16675L496.859 2.16675V2.66675V3.16675L498.855 3.16675V2.66675ZM490.869 2.66675V2.16675L488.872 2.16675V2.66675V3.16675L490.869 3.16675V2.66675ZM482.882 2.66675V2.16675L480.885 2.16675V2.66675V3.16675L482.882 3.16675V2.66675ZM474.895 2.66675V2.16675H472.898V2.66675V3.16675H474.895V2.66675ZM466.908 2.66675V2.16675L464.911 2.16675V2.66675V3.16675L466.908 3.16675V2.66675ZM458.921 2.66675V2.16675L456.924 2.16675V2.66675V3.16675L458.921 3.16675V2.66675ZM450.934 2.66675V2.16675L448.937 2.16675V2.66675V3.16675L450.934 3.16675V2.66675ZM442.947 2.66675V2.16675H440.951V2.66675V3.16675H442.947V2.66675ZM434.96 2.66675V2.16675H432.964V2.66675V3.16675H434.96V2.66675ZM426.973 2.66675V2.16675H424.977V2.66675V3.16675H426.973V2.66675ZM418.987 2.66675V2.16675L416.99 2.16675V2.66675V3.16675L418.987 3.16675V2.66675ZM411 2.66675V2.16675L409.003 2.16675V2.66675V3.16675L411 3.16675V2.66675ZM403.013 2.66675V2.16675H401.016V2.66675V3.16675L403.013 3.16675V2.66675ZM395.026 2.66675V2.16675H393.029V2.66675V3.16675H395.026V2.66675ZM387.039 2.66675V2.16675L385.042 2.16675V2.66675V3.16675L387.039 3.16675V2.66675ZM379.052 2.66675V2.16675L377.056 2.16675V2.66675V3.16675L379.052 3.16675V2.66675ZM371.065 2.66675V2.16675L369.069 2.16675V2.66675V3.16675H371.065V2.66675ZM363.078 2.66675V2.16675H361.082V2.66675V3.16675H363.078V2.66675ZM355.092 2.66675V2.16675H353.095V2.66675V3.16675H355.092V2.66675ZM347.105 2.66675V2.16675H345.108V2.66675V3.16675H347.105V2.66675ZM339.118 2.66675V2.16675L337.121 2.16675V2.66675V3.16675L339.118 3.16675V2.66675ZM331.131 2.66675V2.16675L329.134 2.16675V2.66675V3.16675L331.131 3.16675V2.66675ZM323.144 2.66675V2.16675H321.147V2.66675V3.16675L323.144 3.16675V2.66675ZM315.157 2.66675V2.16675H313.161V2.66675V3.16675H315.157V2.66675ZM307.17 2.66675V2.16675L305.174 2.16675V2.66675V3.16675L307.17 3.16675V2.66675ZM299.183 2.66675V2.16675L297.187 2.16675V2.66675V3.16675L299.183 3.16675V2.66675ZM291.197 2.66675V2.16675L289.2 2.16675V2.66675V3.16675H291.197V2.66675ZM283.21 2.66675V2.16675H281.213V2.66675V3.16675H283.21V2.66675ZM275.223 2.66675V2.16675H273.226V2.66675V3.16675H275.223V2.66675ZM267.236 2.66675V2.16675L265.239 2.16675V2.66675V3.16675H267.236V2.66675ZM259.249 2.66675V2.16675L257.252 2.16675V2.66675V3.16675L259.249 3.16675V2.66675ZM251.262 2.66675V2.16675L249.266 2.16675V2.66675V3.16675L251.262 3.16675V2.66675ZM243.275 2.66675V2.16675H241.279V2.66675V3.16675H243.275V2.66675ZM235.288 2.66675V2.16675H233.292V2.66675V3.16675L235.288 3.16675V2.66675ZM227.302 2.66675V2.16675L225.305 2.16675V2.66675V3.16675L227.302 3.16675V2.66675ZM219.315 2.66675V2.16675L217.318 2.16675V2.66675V3.16675L219.315 3.16675V2.66675ZM211.328 2.66675V2.16675H209.331V2.66675V3.16675H211.328V2.66675ZM203.341 2.66675V2.16675H201.344V2.66675V3.16675H203.341V2.66675ZM195.354 2.66675V2.16675H193.357V2.66675V3.16675H195.354V2.66675ZM187.367 2.66675V2.16675L185.37 2.16675V2.66675V3.16675H187.367V2.66675ZM179.38 2.66675V2.16675L177.383 2.16675V2.66675V3.16675L179.38 3.16675V2.66675ZM171.393 2.66675V2.16675L169.396 2.16675V2.66675V3.16675L171.393 3.16675V2.66675ZM163.406 2.66675V2.16675H161.41V2.66675V3.16675H163.406V2.66675ZM155.419 2.66675V2.16675H153.423V2.66675V3.16675L155.419 3.16675V2.66675ZM147.432 2.66675V2.16675L145.436 2.16675V2.66675V3.16675L147.432 3.16675V2.66675ZM139.445 2.66675V2.16675L137.449 2.16675V2.66675V3.16675L139.445 3.16675V2.66675ZM131.458 2.66675V2.16675H129.462V2.66675V3.16675H131.458V2.66675ZM123.472 2.66675V2.16675H121.475V2.66675V3.16675H123.472V2.66675ZM115.485 2.66675V2.16675H113.488V2.66675V3.16675H115.485V2.66675ZM107.498 2.66675V2.16675L105.501 2.16675V2.66675V3.16675L107.498 3.16675V2.66675ZM99.5107 2.66675V2.16675L97.514 2.16675V2.66675V3.16675L99.5107 3.16675V2.66675ZM91.5238 2.66675V2.16675L89.5271 2.16675V2.66675V3.16675L91.5238 3.16675V2.66675ZM83.5369 2.66675V2.16675H81.5402V2.66675V3.16675H83.5369V2.66675ZM75.5499 2.66675V2.16675L73.5532 2.16675V2.66675V3.16675L75.5499 3.16675V2.66675ZM67.563 2.66675V2.16675L65.5663 2.16675V2.66675V3.16675L67.563 3.16675V2.66675ZM59.576 2.66675V2.16675L57.5793 2.16675V2.66675V3.16675L59.576 3.16675V2.66675ZM51.5891 2.66675V2.16675H49.5924V2.66675V3.16675H51.5891V2.66675ZM43.6022 2.66675V2.16675H41.6055V2.66675V3.16675H43.6022V2.66675ZM35.6152 2.66675V2.16675H33.6185V2.66675V3.16675H35.6152V2.66675ZM27.6283 2.66675V2.16675L25.6316 2.16675V2.66675V3.16675L27.6283 3.16675V2.66675ZM19.6414 2.66675V2.16675L17.6447 2.16675V2.66675V3.16675L19.6414 3.16675V2.66675ZM11.6544 2.66675V2.16675L9.65771 2.16675V2.66675V3.16675L11.6544 3.16675V2.66675ZM3.66748 2.66675V2.16675H2.66663V2.66675V3.16675H3.66748V2.66675Z" fill="url(#paint0_linear_1_703)"/>
<defs>
<linearGradient id="paint0_linear_1_703" x1="144.668" y1="2.75517" x2="144.668" y2="1.08949" gradientUnits="userSpaceOnUse">
<stop offset="1" stop-color="#B79F86"/>
</linearGradient>
</defs>
</svg>
