<svg width="6" height="846" viewBox="0 0 6 846" fill="none" xmlns="http://www.w3.org/2000/svg">
<path d="M2.6665 845.333C4.13926 845.333 5.33317 844.139 5.33317 842.667C5.33317 841.194 4.13926 840 2.6665 840C1.19374 840 -0.000162776 841.194 -0.00016284 842.667C-0.000162904 844.139 1.19374 845.333 2.6665 845.333ZM2.66654 5.33319C4.1393 5.33319 5.33321 4.13928 5.33321 2.6665C5.33321 1.19373 4.1393 -0.000183041 2.66654 -0.000183105C1.19378 -0.00018317 -0.000126058 1.19373 -0.000126122 2.6665C-0.000126187 4.13928 1.19378 5.33319 2.66654 5.33319ZM3.1665 841.667C3.1665 841.39 2.94265 841.167 2.6665 841.167C2.39036 841.167 2.1665 841.39 2.1665 841.667L2.6665 841.667L3.1665 841.667ZM2.1665 835.667C2.1665 835.943 2.39036 836.167 2.6665 836.167C2.94265 836.167 3.1665 835.943 3.1665 835.667L2.6665 835.667L2.1665 835.667ZM3.1665 833.667C3.1665 833.39 2.94265 833.167 2.6665 833.167C2.39036 833.167 2.1665 833.39 2.1665 833.667L2.6665 833.667L3.1665 833.667ZM2.1665 827.667C2.1665 827.943 2.39036 828.167 2.6665 828.167C2.94265 828.167 3.1665 827.943 3.1665 827.667L2.6665 827.667L2.1665 827.667ZM3.1665 825.667C3.1665 825.39 2.94265 825.167 2.6665 825.167C2.39036 825.167 2.1665 825.39 2.1665 825.667L2.6665 825.667L3.1665 825.667ZM2.1665 819.667C2.1665 819.943 2.39036 820.167 2.6665 820.167C2.94265 820.167 3.1665 819.943 3.1665 819.667L2.6665 819.667L2.1665 819.667ZM3.1665 817.667C3.16651 817.39 2.94265 817.167 2.66651 817.167C2.39036 817.167 2.16651 817.39 2.1665 817.667L2.6665 817.667L3.1665 817.667ZM2.16651 811.667C2.16651 811.943 2.39036 812.167 2.66651 812.167C2.94265 812.167 3.16651 811.943 3.16651 811.667L2.66651 811.667L2.16651 811.667ZM3.16651 809.667C3.16651 809.39 2.94265 809.167 2.66651 809.167C2.39036 809.167 2.16651 809.39 2.16651 809.667L2.66651 809.667L3.16651 809.667ZM2.16651 803.667C2.16651 803.943 2.39036 804.167 2.66651 804.167C2.94265 804.167 3.16651 803.943 3.16651 803.667L2.66651 803.667L2.16651 803.667ZM3.16651 801.667C3.16651 801.39 2.94265 801.167 2.66651 801.167C2.39036 801.167 2.16651 801.39 2.16651 801.667L2.66651 801.667L3.16651 801.667ZM2.16651 795.667C2.16651 795.943 2.39036 796.167 2.66651 796.167C2.94265 796.167 3.16651 795.943 3.16651 795.667L2.66651 795.667L2.16651 795.667ZM3.16651 793.667C3.16651 793.39 2.94265 793.167 2.66651 793.167C2.39036 793.167 2.16651 793.39 2.16651 793.667L2.66651 793.667L3.16651 793.667ZM2.16651 787.667C2.16651 787.943 2.39036 788.167 2.66651 788.167C2.94265 788.167 3.16651 787.943 3.16651 787.667L2.66651 787.667L2.16651 787.667ZM3.16651 785.667C3.16651 785.39 2.94265 785.167 2.66651 785.167C2.39036 785.167 2.16651 785.39 2.16651 785.667L2.66651 785.667L3.16651 785.667ZM2.16651 779.667C2.16651 779.943 2.39036 780.167 2.66651 780.167C2.94265 780.167 3.16651 779.943 3.16651 779.667L2.66651 779.667L2.16651 779.667ZM3.16651 777.667C3.16651 777.39 2.94265 777.167 2.66651 777.167C2.39036 777.167 2.16651 777.39 2.16651 777.667L2.66651 777.667L3.16651 777.667ZM2.16651 771.667C2.16651 771.943 2.39036 772.167 2.66651 772.167C2.94265 772.167 3.16651 771.943 3.16651 771.667L2.66651 771.667L2.16651 771.667ZM3.16651 769.667C3.16651 769.39 2.94265 769.167 2.66651 769.167C2.39036 769.167 2.16651 769.39 2.16651 769.667L2.66651 769.667L3.16651 769.667ZM2.16651 763.667C2.16651 763.943 2.39036 764.167 2.66651 764.167C2.94265 764.167 3.16651 763.943 3.16651 763.667L2.66651 763.667L2.16651 763.667ZM3.16651 761.667C3.16651 761.39 2.94265 761.167 2.66651 761.167C2.39037 761.167 2.16651 761.39 2.16651 761.667L2.66651 761.667L3.16651 761.667ZM2.16651 755.667C2.16651 755.943 2.39037 756.167 2.66651 756.167C2.94265 756.167 3.16651 755.943 3.16651 755.667L2.66651 755.667L2.16651 755.667ZM3.16651 753.667C3.16651 753.39 2.94265 753.167 2.66651 753.167C2.39037 753.167 2.16651 753.39 2.16651 753.667L2.66651 753.667L3.16651 753.667ZM2.16651 747.667C2.16651 747.943 2.39037 748.167 2.66651 748.167C2.94265 748.167 3.16651 747.943 3.16651 747.667L2.66651 747.667L2.16651 747.667ZM3.16651 745.667C3.16651 745.39 2.94265 745.167 2.66651 745.167C2.39037 745.167 2.16651 745.39 2.16651 745.667L2.66651 745.667L3.16651 745.667ZM2.16651 739.667C2.16651 739.943 2.39037 740.167 2.66651 740.167C2.94265 740.167 3.16651 739.943 3.16651 739.667L2.66651 739.667L2.16651 739.667ZM3.16651 737.667C3.16651 737.39 2.94265 737.167 2.66651 737.167C2.39037 737.167 2.16651 737.39 2.16651 737.667L2.66651 737.667L3.16651 737.667ZM2.16651 731.667C2.16651 731.943 2.39037 732.167 2.66651 732.167C2.94265 732.167 3.16651 731.943 3.16651 731.667L2.66651 731.667L2.16651 731.667ZM3.16651 729.667C3.16651 729.39 2.94265 729.167 2.66651 729.167C2.39037 729.167 2.16651 729.39 2.16651 729.667L2.66651 729.667L3.16651 729.667ZM2.16651 723.667C2.16651 723.943 2.39037 724.167 2.66651 724.167C2.94265 724.167 3.16651 723.943 3.16651 723.667L2.66651 723.667L2.16651 723.667ZM3.16651 721.667C3.16651 721.39 2.94265 721.167 2.66651 721.167C2.39037 721.167 2.16651 721.39 2.16651 721.667L2.66651 721.667L3.16651 721.667ZM2.16651 715.667C2.16651 715.943 2.39037 716.167 2.66651 716.167C2.94265 716.167 3.16651 715.943 3.16651 715.667L2.66651 715.667L2.16651 715.667ZM3.16651 713.667C3.16651 713.39 2.94265 713.167 2.66651 713.167C2.39037 713.167 2.16651 713.39 2.16651 713.667L2.66651 713.667L3.16651 713.667ZM2.16651 707.667C2.16651 707.943 2.39037 708.167 2.66651 708.167C2.94265 708.167 3.16651 707.943 3.16651 707.667L2.66651 707.667L2.16651 707.667ZM3.16651 705.667C3.16651 705.39 2.94265 705.167 2.66651 705.167C2.39037 705.167 2.16651 705.39 2.16651 705.667L2.66651 705.667L3.16651 705.667ZM2.16651 699.667C2.16651 699.943 2.39037 700.167 2.66651 700.167C2.94265 700.167 3.16651 699.943 3.16651 699.667L2.66651 699.667L2.16651 699.667ZM3.16651 697.667C3.16651 697.39 2.94265 697.167 2.66651 697.167C2.39037 697.167 2.16651 697.39 2.16651 697.667L2.66651 697.667L3.16651 697.667ZM2.16651 691.667C2.16651 691.943 2.39037 692.167 2.66651 692.167C2.94265 692.167 3.16651 691.943 3.16651 691.667L2.66651 691.667L2.16651 691.667ZM3.16651 689.667C3.16651 689.39 2.94265 689.167 2.66651 689.167C2.39037 689.167 2.16651 689.39 2.16651 689.667L2.66651 689.667L3.16651 689.667ZM2.16651 683.667C2.16651 683.943 2.39037 684.167 2.66651 684.167C2.94265 684.167 3.16651 683.943 3.16651 683.667L2.66651 683.667L2.16651 683.667ZM3.16651 681.667C3.16651 681.39 2.94265 681.167 2.66651 681.167C2.39037 681.167 2.16651 681.39 2.16651 681.667L2.66651 681.667L3.16651 681.667ZM2.16651 675.667C2.16651 675.943 2.39037 676.167 2.66651 676.167C2.94265 676.167 3.16651 675.943 3.16651 675.667L2.66651 675.667L2.16651 675.667ZM3.16651 673.667C3.16651 673.39 2.94265 673.167 2.66651 673.167C2.39037 673.167 2.16651 673.39 2.16651 673.667L2.66651 673.667L3.16651 673.667ZM2.16651 667.667C2.16651 667.943 2.39037 668.167 2.66651 668.167C2.94265 668.167 3.16651 667.943 3.16651 667.667L2.66651 667.667L2.16651 667.667ZM3.16651 665.667C3.16651 665.39 2.94265 665.167 2.66651 665.167C2.39037 665.167 2.16651 665.39 2.16651 665.667L2.66651 665.667L3.16651 665.667ZM2.16651 659.667C2.16651 659.943 2.39037 660.167 2.66651 660.167C2.94265 660.167 3.16651 659.943 3.16651 659.667L2.66651 659.667L2.16651 659.667ZM3.16651 657.667C3.16651 657.39 2.94265 657.167 2.66651 657.167C2.39037 657.167 2.16651 657.39 2.16651 657.667L2.66651 657.667L3.16651 657.667ZM2.16651 651.667C2.16651 651.943 2.39037 652.167 2.66651 652.167C2.94265 652.167 3.16651 651.943 3.16651 651.667L2.66651 651.667L2.16651 651.667ZM3.16651 649.667C3.16651 649.39 2.94265 649.167 2.66651 649.167C2.39037 649.167 2.16651 649.39 2.16651 649.667L2.66651 649.667L3.16651 649.667ZM2.16651 643.667C2.16651 643.943 2.39037 644.167 2.66651 644.167C2.94265 644.167 3.16651 643.943 3.16651 643.667L2.66651 643.667L2.16651 643.667ZM3.16651 641.667C3.16651 641.39 2.94266 641.167 2.66651 641.167C2.39037 641.167 2.16651 641.39 2.16651 641.667L2.66651 641.667L3.16651 641.667ZM2.16651 635.667C2.16651 635.943 2.39037 636.167 2.66651 636.167C2.94266 636.167 3.16651 635.943 3.16651 635.667L2.66651 635.667L2.16651 635.667ZM3.16651 633.667C3.16651 633.39 2.94266 633.167 2.66651 633.167C2.39037 633.167 2.16651 633.39 2.16651 633.667L2.66651 633.667L3.16651 633.667ZM2.16651 627.666C2.16651 627.943 2.39037 628.166 2.66651 628.166C2.94266 628.166 3.16651 627.943 3.16651 627.666L2.66651 627.666L2.16651 627.666ZM3.16651 625.667C3.16651 625.39 2.94266 625.167 2.66651 625.167C2.39037 625.167 2.16651 625.39 2.16651 625.667L2.66651 625.667L3.16651 625.667ZM2.16651 619.666C2.16651 619.943 2.39037 620.166 2.66651 620.166C2.94266 620.166 3.16651 619.943 3.16651 619.666L2.66651 619.666L2.16651 619.666ZM3.16651 617.667C3.16651 617.39 2.94266 617.167 2.66651 617.167C2.39037 617.167 2.16651 617.39 2.16651 617.667L2.66651 617.667L3.16651 617.667ZM2.16651 611.666C2.16651 611.943 2.39037 612.166 2.66651 612.166C2.94266 612.166 3.16651 611.943 3.16651 611.666L2.66651 611.666L2.16651 611.666ZM3.16651 609.667C3.16651 609.39 2.94266 609.167 2.66651 609.167C2.39037 609.167 2.16651 609.39 2.16651 609.667L2.66651 609.667L3.16651 609.667ZM2.16651 603.667C2.16651 603.943 2.39037 604.167 2.66651 604.167C2.94266 604.167 3.16651 603.943 3.16651 603.667L2.66651 603.667L2.16651 603.667ZM3.16651 601.667C3.16651 601.39 2.94266 601.167 2.66651 601.167C2.39037 601.167 2.16651 601.39 2.16651 601.667L2.66651 601.667L3.16651 601.667ZM2.16651 595.667C2.16651 595.943 2.39037 596.167 2.66651 596.167C2.94266 596.167 3.16651 595.943 3.16651 595.667L2.66651 595.667L2.16651 595.667ZM3.16651 593.667C3.16651 593.39 2.94266 593.167 2.66651 593.167C2.39037 593.167 2.16651 593.39 2.16651 593.667L2.66651 593.667L3.16651 593.667ZM2.16652 587.667C2.16652 587.943 2.39037 588.167 2.66652 588.167C2.94266 588.167 3.16652 587.943 3.16652 587.667L2.66652 587.667L2.16652 587.667ZM3.16652 585.667C3.16652 585.39 2.94266 585.167 2.66652 585.167C2.39037 585.167 2.16652 585.39 2.16652 585.667L2.66652 585.667L3.16652 585.667ZM2.16652 579.667C2.16652 579.943 2.39037 580.167 2.66652 580.167C2.94266 580.167 3.16652 579.943 3.16652 579.667L2.66652 579.667L2.16652 579.667ZM3.16652 577.667C3.16652 577.39 2.94266 577.167 2.66652 577.167C2.39037 577.167 2.16652 577.39 2.16652 577.667L2.66652 577.667L3.16652 577.667ZM2.16652 571.667C2.16652 571.943 2.39037 572.167 2.66652 572.167C2.94266 572.167 3.16652 571.943 3.16652 571.667L2.66652 571.667L2.16652 571.667ZM3.16652 569.667C3.16652 569.39 2.94266 569.167 2.66652 569.167C2.39037 569.167 2.16652 569.39 2.16652 569.667L2.66652 569.667L3.16652 569.667ZM2.16652 563.667C2.16652 563.943 2.39037 564.167 2.66652 564.167C2.94266 564.167 3.16652 563.943 3.16652 563.667L2.66652 563.667L2.16652 563.667ZM3.16652 561.667C3.16652 561.39 2.94266 561.167 2.66652 561.167C2.39037 561.167 2.16652 561.39 2.16652 561.667L2.66652 561.667L3.16652 561.667ZM2.16652 555.667C2.16652 555.943 2.39037 556.167 2.66652 556.167C2.94266 556.167 3.16652 555.943 3.16652 555.667L2.66652 555.667L2.16652 555.667ZM3.16652 553.667C3.16652 553.39 2.94266 553.167 2.66652 553.167C2.39037 553.167 2.16652 553.39 2.16652 553.667L2.66652 553.667L3.16652 553.667ZM2.16652 547.667C2.16652 547.943 2.39037 548.167 2.66652 548.167C2.94266 548.167 3.16652 547.943 3.16652 547.667L2.66652 547.667L2.16652 547.667ZM3.16652 545.667C3.16652 545.39 2.94266 545.167 2.66652 545.167C2.39037 545.167 2.16652 545.39 2.16652 545.667L2.66652 545.667L3.16652 545.667ZM2.16652 539.667C2.16652 539.943 2.39037 540.167 2.66652 540.167C2.94266 540.167 3.16652 539.943 3.16652 539.667L2.66652 539.667L2.16652 539.667ZM3.16652 537.667C3.16652 537.39 2.94266 537.167 2.66652 537.167C2.39037 537.167 2.16652 537.39 2.16652 537.667L2.66652 537.667L3.16652 537.667ZM2.16652 531.667C2.16652 531.943 2.39038 532.167 2.66652 532.167C2.94266 532.167 3.16652 531.943 3.16652 531.667L2.66652 531.667L2.16652 531.667ZM3.16652 529.667C3.16652 529.39 2.94266 529.167 2.66652 529.167C2.39038 529.167 2.16652 529.39 2.16652 529.667L2.66652 529.667L3.16652 529.667ZM2.16652 523.667C2.16652 523.943 2.39038 524.167 2.66652 524.167C2.94266 524.167 3.16652 523.943 3.16652 523.667L2.66652 523.667L2.16652 523.667ZM3.16652 521.666C3.16652 521.39 2.94266 521.166 2.66652 521.166C2.39038 521.166 2.16652 521.39 2.16652 521.666L2.66652 521.666L3.16652 521.666ZM2.16652 515.667C2.16652 515.943 2.39038 516.167 2.66652 516.167C2.94266 516.167 3.16652 515.943 3.16652 515.667L2.66652 515.667L2.16652 515.667ZM3.16652 513.666C3.16652 513.39 2.94266 513.166 2.66652 513.166C2.39038 513.166 2.16652 513.39 2.16652 513.666L2.66652 513.666L3.16652 513.666ZM2.16652 507.667C2.16652 507.943 2.39038 508.167 2.66652 508.167C2.94266 508.167 3.16652 507.943 3.16652 507.667L2.66652 507.667L2.16652 507.667ZM3.16652 505.667C3.16652 505.39 2.94266 505.167 2.66652 505.167C2.39038 505.167 2.16652 505.39 2.16652 505.667L2.66652 505.667L3.16652 505.667ZM2.16652 499.667C2.16652 499.943 2.39038 500.167 2.66652 500.167C2.94266 500.167 3.16652 499.943 3.16652 499.667L2.66652 499.667L2.16652 499.667ZM3.16652 497.667C3.16652 497.39 2.94266 497.167 2.66652 497.167C2.39038 497.167 2.16652 497.39 2.16652 497.667L2.66652 497.667L3.16652 497.667ZM2.16652 491.667C2.16652 491.943 2.39038 492.167 2.66652 492.167C2.94266 492.167 3.16652 491.943 3.16652 491.667L2.66652 491.667L2.16652 491.667ZM3.16652 489.667C3.16652 489.39 2.94266 489.167 2.66652 489.167C2.39038 489.167 2.16652 489.39 2.16652 489.667L2.66652 489.667L3.16652 489.667ZM2.16652 483.667C2.16652 483.943 2.39038 484.167 2.66652 484.167C2.94266 484.167 3.16652 483.943 3.16652 483.667L2.66652 483.667L2.16652 483.667ZM3.16652 481.667C3.16652 481.39 2.94266 481.167 2.66652 481.167C2.39038 481.167 2.16652 481.39 2.16652 481.667L2.66652 481.667L3.16652 481.667ZM2.16652 475.667C2.16652 475.943 2.39038 476.167 2.66652 476.167C2.94266 476.167 3.16652 475.943 3.16652 475.667L2.66652 475.667L2.16652 475.667ZM3.16652 473.667C3.16652 473.39 2.94266 473.167 2.66652 473.167C2.39038 473.167 2.16652 473.39 2.16652 473.667L2.66652 473.667L3.16652 473.667ZM2.16652 467.667C2.16652 467.943 2.39038 468.167 2.66652 468.167C2.94266 468.167 3.16652 467.943 3.16652 467.667L2.66652 467.667L2.16652 467.667ZM3.16652 465.667C3.16652 465.39 2.94266 465.167 2.66652 465.167C2.39038 465.167 2.16652 465.39 2.16652 465.667L2.66652 465.667L3.16652 465.667ZM2.16652 459.667C2.16652 459.943 2.39038 460.167 2.66652 460.167C2.94266 460.167 3.16652 459.943 3.16652 459.667L2.66652 459.667L2.16652 459.667ZM3.16652 457.667C3.16652 457.39 2.94266 457.167 2.66652 457.167C2.39038 457.167 2.16652 457.39 2.16652 457.667L2.66652 457.667L3.16652 457.667ZM2.16652 451.667C2.16652 451.943 2.39038 452.167 2.66652 452.167C2.94266 452.167 3.16652 451.943 3.16652 451.667L2.66652 451.667L2.16652 451.667ZM3.16652 449.667C3.16652 449.39 2.94266 449.167 2.66652 449.167C2.39038 449.167 2.16652 449.39 2.16652 449.667L2.66652 449.667L3.16652 449.667ZM2.16652 443.667C2.16652 443.943 2.39038 444.167 2.66652 444.167C2.94266 444.167 3.16652 443.943 3.16652 443.667L2.66652 443.667L2.16652 443.667ZM3.16652 441.667C3.16652 441.39 2.94266 441.167 2.66652 441.167C2.39038 441.167 2.16652 441.39 2.16652 441.667L2.66652 441.667L3.16652 441.667ZM2.16652 435.667C2.16652 435.943 2.39038 436.167 2.66652 436.167C2.94266 436.167 3.16652 435.943 3.16652 435.667L2.66652 435.667L2.16652 435.667ZM3.16652 433.667C3.16652 433.39 2.94266 433.167 2.66652 433.167C2.39038 433.167 2.16652 433.39 2.16652 433.667L2.66652 433.667L3.16652 433.667ZM2.16652 427.667C2.16652 427.943 2.39038 428.167 2.66652 428.167C2.94266 428.167 3.16652 427.943 3.16652 427.667L2.66652 427.667L2.16652 427.667ZM3.16652 425.667C3.16652 425.39 2.94266 425.167 2.66652 425.167C2.39038 425.167 2.16652 425.39 2.16652 425.667L2.66652 425.667L3.16652 425.667ZM2.16652 419.666C2.16652 419.943 2.39038 420.166 2.66652 420.166C2.94266 420.166 3.16652 419.943 3.16652 419.666L2.66652 419.666L2.16652 419.666ZM3.16652 417.667C3.16652 417.39 2.94266 417.167 2.66652 417.167C2.39038 417.167 2.16652 417.39 2.16652 417.667L2.66652 417.667L3.16652 417.667ZM2.16652 411.666C2.16652 411.943 2.39038 412.166 2.66652 412.166C2.94267 412.166 3.16652 411.943 3.16652 411.666L2.66652 411.666L2.16652 411.666ZM3.16652 409.667C3.16652 409.39 2.94267 409.167 2.66652 409.167C2.39038 409.167 2.16652 409.39 2.16652 409.667L2.66652 409.667L3.16652 409.667ZM2.16652 403.666C2.16652 403.943 2.39038 404.166 2.66652 404.166C2.94267 404.166 3.16652 403.943 3.16652 403.666L2.66652 403.666L2.16652 403.666ZM3.16652 401.667C3.16652 401.39 2.94267 401.167 2.66652 401.167C2.39038 401.167 2.16652 401.39 2.16652 401.667L2.66652 401.667L3.16652 401.667ZM2.16652 395.666C2.16652 395.943 2.39038 396.166 2.66652 396.166C2.94267 396.166 3.16652 395.943 3.16652 395.666L2.66652 395.666L2.16652 395.666ZM3.16652 393.667C3.16652 393.39 2.94267 393.167 2.66652 393.167C2.39038 393.167 2.16652 393.39 2.16652 393.667L2.66652 393.667L3.16652 393.667ZM2.16652 387.666C2.16652 387.943 2.39038 388.166 2.66652 388.166C2.94267 388.166 3.16652 387.943 3.16652 387.666L2.66652 387.666L2.16652 387.666ZM3.16652 385.667C3.16652 385.39 2.94267 385.167 2.66652 385.167C2.39038 385.167 2.16652 385.39 2.16652 385.667L2.66652 385.667L3.16652 385.667ZM2.16652 379.666C2.16652 379.943 2.39038 380.166 2.66652 380.166C2.94267 380.166 3.16652 379.943 3.16652 379.666L2.66652 379.666L2.16652 379.666ZM3.16652 377.667C3.16652 377.39 2.94267 377.167 2.66652 377.167C2.39038 377.167 2.16652 377.39 2.16652 377.667L2.66652 377.667L3.16652 377.667ZM2.16652 371.666C2.16652 371.943 2.39038 372.166 2.66652 372.166C2.94267 372.166 3.16652 371.943 3.16652 371.666L2.66652 371.666L2.16652 371.666ZM3.16652 369.667C3.16652 369.39 2.94267 369.167 2.66652 369.167C2.39038 369.167 2.16652 369.39 2.16652 369.667L2.66652 369.667L3.16652 369.667ZM2.16652 363.666C2.16652 363.943 2.39038 364.166 2.66652 364.166C2.94267 364.166 3.16652 363.943 3.16652 363.666L2.66652 363.666L2.16652 363.666ZM3.16652 361.667C3.16652 361.39 2.94267 361.167 2.66652 361.167C2.39038 361.167 2.16652 361.39 2.16652 361.667L2.66652 361.667L3.16652 361.667ZM2.16653 355.666C2.16653 355.943 2.39038 356.166 2.66653 356.166C2.94267 356.166 3.16653 355.943 3.16653 355.666L2.66653 355.666L2.16653 355.666ZM3.16653 353.667C3.16653 353.39 2.94267 353.167 2.66653 353.167C2.39038 353.167 2.16653 353.39 2.16653 353.667L2.66653 353.667L3.16653 353.667ZM2.16653 347.666C2.16653 347.943 2.39038 348.166 2.66653 348.166C2.94267 348.166 3.16653 347.943 3.16653 347.666L2.66653 347.666L2.16653 347.666ZM3.16653 345.667C3.16653 345.39 2.94267 345.167 2.66653 345.167C2.39038 345.167 2.16653 345.39 2.16653 345.667L2.66653 345.667L3.16653 345.667ZM2.16653 339.666C2.16653 339.943 2.39038 340.166 2.66653 340.166C2.94267 340.166 3.16653 339.943 3.16653 339.666L2.66653 339.666L2.16653 339.666ZM3.16653 337.667C3.16653 337.39 2.94267 337.167 2.66653 337.167C2.39038 337.167 2.16653 337.39 2.16653 337.667L2.66653 337.667L3.16653 337.667ZM2.16653 331.666C2.16653 331.943 2.39038 332.166 2.66653 332.166C2.94267 332.166 3.16653 331.943 3.16653 331.666L2.66653 331.666L2.16653 331.666ZM3.16653 329.667C3.16653 329.39 2.94267 329.167 2.66653 329.167C2.39038 329.167 2.16653 329.39 2.16653 329.667L2.66653 329.667L3.16653 329.667ZM2.16653 323.667C2.16653 323.943 2.39038 324.167 2.66653 324.167C2.94267 324.167 3.16653 323.943 3.16653 323.667L2.66653 323.667L2.16653 323.667ZM3.16653 321.667C3.16653 321.39 2.94267 321.167 2.66653 321.167C2.39038 321.167 2.16653 321.39 2.16653 321.667L2.66653 321.667L3.16653 321.667ZM2.16653 315.667C2.16653 315.943 2.39038 316.167 2.66653 316.167C2.94267 316.167 3.16653 315.943 3.16653 315.667L2.66653 315.667L2.16653 315.667ZM3.16653 313.666C3.16653 313.39 2.94267 313.166 2.66653 313.166C2.39038 313.166 2.16653 313.39 2.16653 313.666L2.66653 313.666L3.16653 313.666ZM2.16653 307.667C2.16653 307.943 2.39038 308.167 2.66653 308.167C2.94267 308.167 3.16653 307.943 3.16653 307.667L2.66653 307.667L2.16653 307.667ZM3.16653 305.666C3.16653 305.39 2.94267 305.166 2.66653 305.166C2.39039 305.166 2.16653 305.39 2.16653 305.666L2.66653 305.666L3.16653 305.666ZM2.16653 299.667C2.16653 299.943 2.39039 300.167 2.66653 300.167C2.94267 300.167 3.16653 299.943 3.16653 299.667L2.66653 299.667L2.16653 299.667ZM3.16653 297.667C3.16653 297.39 2.94267 297.167 2.66653 297.167C2.39039 297.167 2.16653 297.39 2.16653 297.667L2.66653 297.667L3.16653 297.667ZM2.16653 291.667C2.16653 291.943 2.39039 292.167 2.66653 292.167C2.94267 292.167 3.16653 291.943 3.16653 291.667L2.66653 291.667L2.16653 291.667ZM3.16653 289.667C3.16653 289.39 2.94267 289.167 2.66653 289.167C2.39039 289.167 2.16653 289.39 2.16653 289.667L2.66653 289.667L3.16653 289.667ZM2.16653 283.667C2.16653 283.943 2.39039 284.167 2.66653 284.167C2.94267 284.167 3.16653 283.943 3.16653 283.667L2.66653 283.667L2.16653 283.667ZM3.16653 281.667C3.16653 281.39 2.94267 281.167 2.66653 281.167C2.39039 281.167 2.16653 281.39 2.16653 281.667L2.66653 281.667L3.16653 281.667ZM2.16653 275.667C2.16653 275.943 2.39039 276.167 2.66653 276.167C2.94267 276.167 3.16653 275.943 3.16653 275.667L2.66653 275.667L2.16653 275.667ZM3.16653 273.667C3.16653 273.39 2.94267 273.167 2.66653 273.167C2.39039 273.167 2.16653 273.39 2.16653 273.667L2.66653 273.667L3.16653 273.667ZM2.16653 267.667C2.16653 267.943 2.39039 268.167 2.66653 268.167C2.94267 268.167 3.16653 267.943 3.16653 267.667L2.66653 267.667L2.16653 267.667ZM3.16653 265.667C3.16653 265.39 2.94267 265.167 2.66653 265.167C2.39039 265.167 2.16653 265.39 2.16653 265.667L2.66653 265.667L3.16653 265.667ZM2.16653 259.667C2.16653 259.943 2.39039 260.167 2.66653 260.167C2.94267 260.167 3.16653 259.943 3.16653 259.667L2.66653 259.667L2.16653 259.667ZM3.16653 257.667C3.16653 257.39 2.94267 257.167 2.66653 257.167C2.39039 257.167 2.16653 257.39 2.16653 257.667L2.66653 257.667L3.16653 257.667ZM2.16653 251.667C2.16653 251.943 2.39039 252.167 2.66653 252.167C2.94267 252.167 3.16653 251.943 3.16653 251.667L2.66653 251.667L2.16653 251.667ZM3.16653 249.667C3.16653 249.39 2.94267 249.167 2.66653 249.167C2.39039 249.167 2.16653 249.39 2.16653 249.667L2.66653 249.667L3.16653 249.667ZM2.16653 243.667C2.16653 243.943 2.39039 244.167 2.66653 244.167C2.94267 244.167 3.16653 243.943 3.16653 243.667L2.66653 243.667L2.16653 243.667ZM3.16653 241.667C3.16653 241.39 2.94267 241.167 2.66653 241.167C2.39039 241.167 2.16653 241.39 2.16653 241.667L2.66653 241.667L3.16653 241.667ZM2.16653 235.667C2.16653 235.943 2.39039 236.167 2.66653 236.167C2.94267 236.167 3.16653 235.943 3.16653 235.667L2.66653 235.667L2.16653 235.667ZM3.16653 233.667C3.16653 233.39 2.94267 233.167 2.66653 233.167C2.39039 233.167 2.16653 233.39 2.16653 233.667L2.66653 233.667L3.16653 233.667ZM2.16653 227.667C2.16653 227.943 2.39039 228.167 2.66653 228.167C2.94267 228.167 3.16653 227.943 3.16653 227.667L2.66653 227.667L2.16653 227.667ZM3.16653 225.667C3.16653 225.39 2.94267 225.167 2.66653 225.167C2.39039 225.167 2.16653 225.39 2.16653 225.667L2.66653 225.667L3.16653 225.667ZM2.16653 219.667C2.16653 219.943 2.39039 220.167 2.66653 220.167C2.94267 220.167 3.16653 219.943 3.16653 219.667L2.66653 219.667L2.16653 219.667ZM3.16653 217.667C3.16653 217.39 2.94267 217.167 2.66653 217.167C2.39039 217.167 2.16653 217.39 2.16653 217.667L2.66653 217.667L3.16653 217.667ZM2.16653 211.667C2.16653 211.943 2.39039 212.167 2.66653 212.167C2.94267 212.167 3.16653 211.943 3.16653 211.667L2.66653 211.667L2.16653 211.667ZM3.16653 209.667C3.16653 209.39 2.94267 209.167 2.66653 209.167C2.39039 209.167 2.16653 209.39 2.16653 209.667L2.66653 209.667L3.16653 209.667ZM2.16653 203.667C2.16653 203.943 2.39039 204.167 2.66653 204.167C2.94267 204.167 3.16653 203.943 3.16653 203.667L2.66653 203.667L2.16653 203.667ZM3.16653 201.667C3.16653 201.39 2.94267 201.167 2.66653 201.167C2.39039 201.167 2.16653 201.39 2.16653 201.667L2.66653 201.667L3.16653 201.667ZM2.16653 195.667C2.16653 195.943 2.39039 196.167 2.66653 196.167C2.94267 196.167 3.16653 195.943 3.16653 195.667L2.66653 195.667L2.16653 195.667ZM3.16653 193.667C3.16653 193.39 2.94267 193.167 2.66653 193.167C2.39039 193.167 2.16653 193.39 2.16653 193.667L2.66653 193.667L3.16653 193.667ZM2.16653 187.667C2.16653 187.943 2.39039 188.167 2.66653 188.167C2.94267 188.167 3.16653 187.943 3.16653 187.667L2.66653 187.667L2.16653 187.667ZM3.16653 185.667C3.16653 185.39 2.94268 185.167 2.66653 185.167C2.39039 185.167 2.16653 185.39 2.16653 185.667L2.66653 185.667L3.16653 185.667ZM2.16653 179.667C2.16653 179.943 2.39039 180.167 2.66653 180.167C2.94268 180.167 3.16653 179.943 3.16653 179.667L2.66653 179.667L2.16653 179.667ZM3.16653 177.667C3.16653 177.39 2.94268 177.167 2.66653 177.167C2.39039 177.167 2.16653 177.39 2.16653 177.667L2.66653 177.667L3.16653 177.667ZM2.16653 171.667C2.16653 171.943 2.39039 172.167 2.66653 172.167C2.94268 172.167 3.16653 171.943 3.16653 171.667L2.66653 171.667L2.16653 171.667ZM3.16653 169.667C3.16653 169.39 2.94268 169.167 2.66653 169.167C2.39039 169.167 2.16653 169.39 2.16653 169.667L2.66653 169.667L3.16653 169.667ZM2.16653 163.667C2.16653 163.943 2.39039 164.167 2.66653 164.167C2.94268 164.167 3.16653 163.943 3.16653 163.667L2.66653 163.667L2.16653 163.667ZM3.16653 161.667C3.16653 161.39 2.94268 161.167 2.66653 161.167C2.39039 161.167 2.16653 161.39 2.16653 161.667L2.66653 161.667L3.16653 161.667ZM2.16653 155.667C2.16653 155.943 2.39039 156.167 2.66653 156.167C2.94268 156.167 3.16653 155.943 3.16653 155.667L2.66653 155.667L2.16653 155.667ZM3.16653 153.667C3.16653 153.39 2.94268 153.167 2.66653 153.167C2.39039 153.167 2.16653 153.39 2.16653 153.667L2.66653 153.667L3.16653 153.667ZM2.16653 147.667C2.16653 147.943 2.39039 148.167 2.66653 148.167C2.94268 148.167 3.16653 147.943 3.16653 147.667L2.66653 147.667L2.16653 147.667ZM3.16653 145.667C3.16653 145.39 2.94268 145.167 2.66653 145.167C2.39039 145.167 2.16653 145.39 2.16653 145.667L2.66653 145.667L3.16653 145.667ZM2.16653 139.667C2.16653 139.943 2.39039 140.167 2.66653 140.167C2.94268 140.167 3.16653 139.943 3.16653 139.667L2.66653 139.667L2.16653 139.667ZM3.16653 137.667C3.16653 137.39 2.94268 137.167 2.66653 137.167C2.39039 137.167 2.16653 137.39 2.16653 137.667L2.66653 137.667L3.16653 137.667ZM2.16653 131.667C2.16653 131.943 2.39039 132.167 2.66653 132.167C2.94268 132.167 3.16653 131.943 3.16653 131.667L2.66653 131.667L2.16653 131.667ZM3.16654 129.667C3.16654 129.39 2.94268 129.167 2.66654 129.167C2.39039 129.167 2.16654 129.39 2.16654 129.667L2.66654 129.667L3.16654 129.667ZM2.16654 123.667C2.16654 123.943 2.39039 124.167 2.66654 124.167C2.94268 124.167 3.16654 123.943 3.16654 123.667L2.66654 123.667L2.16654 123.667ZM3.16654 121.667C3.16654 121.39 2.94268 121.167 2.66654 121.167C2.39039 121.167 2.16654 121.39 2.16654 121.667L2.66654 121.667L3.16654 121.667ZM2.16654 115.667C2.16654 115.943 2.39039 116.167 2.66654 116.167C2.94268 116.167 3.16654 115.943 3.16654 115.667L2.66654 115.667L2.16654 115.667ZM3.16654 113.667C3.16654 113.39 2.94268 113.167 2.66654 113.167C2.39039 113.167 2.16654 113.39 2.16654 113.667L2.66654 113.667L3.16654 113.667ZM2.16654 107.667C2.16654 107.943 2.39039 108.167 2.66654 108.167C2.94268 108.167 3.16654 107.943 3.16654 107.667L2.66654 107.667L2.16654 107.667ZM3.16654 105.667C3.16654 105.39 2.94268 105.167 2.66654 105.167C2.39039 105.167 2.16654 105.39 2.16654 105.667L2.66654 105.667L3.16654 105.667ZM2.16654 99.6665C2.16654 99.9426 2.39039 100.167 2.66654 100.167C2.94268 100.167 3.16654 99.9426 3.16654 99.6665L2.66654 99.6665L2.16654 99.6665ZM3.16654 97.6665C3.16654 97.3903 2.94268 97.1665 2.66654 97.1665C2.39039 97.1665 2.16654 97.3903 2.16654 97.6665L2.66654 97.6665L3.16654 97.6665ZM2.16654 91.6665C2.16654 91.9426 2.39039 92.1665 2.66654 92.1665C2.94268 92.1665 3.16654 91.9426 3.16654 91.6665L2.66654 91.6665L2.16654 91.6665ZM3.16654 89.6665C3.16654 89.3903 2.94268 89.1665 2.66654 89.1665C2.39039 89.1665 2.16654 89.3903 2.16654 89.6665L2.66654 89.6665L3.16654 89.6665ZM2.16654 83.6665C2.16654 83.9426 2.39039 84.1665 2.66654 84.1665C2.94268 84.1665 3.16654 83.9426 3.16654 83.6665L2.66654 83.6665L2.16654 83.6665ZM3.16654 81.6665C3.16654 81.3903 2.94268 81.1665 2.66654 81.1665C2.39039 81.1665 2.16654 81.3903 2.16654 81.6665L2.66654 81.6665L3.16654 81.6665ZM2.16654 75.6665C2.16654 75.9426 2.3904 76.1665 2.66654 76.1665C2.94268 76.1665 3.16654 75.9426 3.16654 75.6665L2.66654 75.6665L2.16654 75.6665ZM3.16654 73.6665C3.16654 73.3903 2.94268 73.1665 2.66654 73.1665C2.3904 73.1665 2.16654 73.3903 2.16654 73.6665L2.66654 73.6665L3.16654 73.6665ZM2.16654 67.6665C2.16654 67.9426 2.3904 68.1665 2.66654 68.1665C2.94268 68.1665 3.16654 67.9426 3.16654 67.6665L2.66654 67.6665L2.16654 67.6665ZM3.16654 65.6665C3.16654 65.3903 2.94268 65.1665 2.66654 65.1665C2.3904 65.1665 2.16654 65.3903 2.16654 65.6665L2.66654 65.6665L3.16654 65.6665ZM2.16654 59.6665C2.16654 59.9426 2.3904 60.1665 2.66654 60.1665C2.94268 60.1665 3.16654 59.9426 3.16654 59.6665L2.66654 59.6665L2.16654 59.6665ZM3.16654 57.6665C3.16654 57.3903 2.94268 57.1665 2.66654 57.1665C2.3904 57.1665 2.16654 57.3903 2.16654 57.6665L2.66654 57.6665L3.16654 57.6665ZM2.16654 51.6665C2.16654 51.9426 2.3904 52.1665 2.66654 52.1665C2.94268 52.1665 3.16654 51.9426 3.16654 51.6665L2.66654 51.6665L2.16654 51.6665ZM3.16654 49.6665C3.16654 49.3903 2.94268 49.1665 2.66654 49.1665C2.3904 49.1665 2.16654 49.3903 2.16654 49.6665L2.66654 49.6665L3.16654 49.6665ZM2.16654 43.6665C2.16654 43.9426 2.3904 44.1665 2.66654 44.1665C2.94268 44.1665 3.16654 43.9426 3.16654 43.6665L2.66654 43.6665L2.16654 43.6665ZM3.16654 41.6665C3.16654 41.3903 2.94268 41.1665 2.66654 41.1665C2.3904 41.1665 2.16654 41.3903 2.16654 41.6665L2.66654 41.6665L3.16654 41.6665ZM2.16654 35.6665C2.16654 35.9426 2.3904 36.1665 2.66654 36.1665C2.94268 36.1665 3.16654 35.9426 3.16654 35.6665L2.66654 35.6665L2.16654 35.6665ZM3.16654 33.6665C3.16654 33.3903 2.94268 33.1665 2.66654 33.1665C2.3904 33.1665 2.16654 33.3903 2.16654 33.6665L2.66654 33.6665L3.16654 33.6665ZM2.16654 27.6665C2.16654 27.9426 2.3904 28.1665 2.66654 28.1665C2.94268 28.1665 3.16654 27.9426 3.16654 27.6665L2.66654 27.6665L2.16654 27.6665ZM3.16654 25.6665C3.16654 25.3903 2.94268 25.1665 2.66654 25.1665C2.3904 25.1665 2.16654 25.3903 2.16654 25.6665L2.66654 25.6665L3.16654 25.6665ZM2.16654 19.6665C2.16654 19.9426 2.3904 20.1665 2.66654 20.1665C2.94268 20.1665 3.16654 19.9426 3.16654 19.6665L2.66654 19.6665L2.16654 19.6665ZM3.16654 17.6665C3.16654 17.3903 2.94268 17.1665 2.66654 17.1665C2.3904 17.1665 2.16654 17.3903 2.16654 17.6665L2.66654 17.6665L3.16654 17.6665ZM2.16654 11.6665C2.16654 11.9426 2.3904 12.1665 2.66654 12.1665C2.94268 12.1665 3.16654 11.9426 3.16654 11.6665L2.66654 11.6665L2.16654 11.6665ZM3.16654 9.6665C3.16654 9.39032 2.94268 9.1665 2.66654 9.1665C2.3904 9.1665 2.16654 9.39032 2.16654 9.6665L2.66654 9.6665L3.16654 9.6665ZM2.16654 3.6665C2.16654 3.94263 2.3904 4.1665 2.66654 4.1665C2.94268 4.1665 3.16654 3.94263 3.16654 3.6665L2.66654 3.6665L2.16654 3.6665ZM2.6665 842.667L3.1665 842.667L3.1665 841.667L2.6665 841.667L2.1665 841.667L2.1665 842.667L2.6665 842.667ZM2.6665 835.667L3.1665 835.667L3.1665 833.667L2.6665 833.667L2.1665 833.667L2.1665 835.667L2.6665 835.667ZM2.6665 827.667L3.1665 827.667L3.1665 825.667L2.6665 825.667L2.1665 825.667L2.1665 827.667L2.6665 827.667ZM2.6665 819.667L3.1665 819.667L3.1665 817.667L2.6665 817.667L2.1665 817.667L2.1665 819.667L2.6665 819.667ZM2.66651 811.667L3.16651 811.667L3.16651 809.667L2.66651 809.667L2.16651 809.667L2.16651 811.667L2.66651 811.667ZM2.66651 803.667L3.16651 803.667L3.16651 801.667L2.66651 801.667L2.16651 801.667L2.16651 803.667L2.66651 803.667ZM2.66651 795.667L3.16651 795.667L3.16651 793.667L2.66651 793.667L2.16651 793.667L2.16651 795.667L2.66651 795.667ZM2.66651 787.667L3.16651 787.667L3.16651 785.667L2.66651 785.667L2.16651 785.667L2.16651 787.667L2.66651 787.667ZM2.66651 779.667L3.16651 779.667L3.16651 777.667L2.66651 777.667L2.16651 777.667L2.16651 779.667L2.66651 779.667ZM2.66651 771.667L3.16651 771.667L3.16651 769.667L2.66651 769.667L2.16651 769.667L2.16651 771.667L2.66651 771.667ZM2.66651 763.667L3.16651 763.667L3.16651 761.667L2.66651 761.667L2.16651 761.667L2.16651 763.667L2.66651 763.667ZM2.66651 755.667L3.16651 755.667L3.16651 753.667L2.66651 753.667L2.16651 753.667L2.16651 755.667L2.66651 755.667ZM2.66651 747.667L3.16651 747.667L3.16651 745.667L2.66651 745.667L2.16651 745.667L2.16651 747.667L2.66651 747.667ZM2.66651 739.667L3.16651 739.667L3.16651 737.667L2.66651 737.667L2.16651 737.667L2.16651 739.667L2.66651 739.667ZM2.66651 731.667L3.16651 731.667L3.16651 729.667L2.66651 729.667L2.16651 729.667L2.16651 731.667L2.66651 731.667ZM2.66651 723.667L3.16651 723.667L3.16651 721.667L2.66651 721.667L2.16651 721.667L2.16651 723.667L2.66651 723.667ZM2.66651 715.667L3.16651 715.667L3.16651 713.667L2.66651 713.667L2.16651 713.667L2.16651 715.667L2.66651 715.667ZM2.66651 707.667L3.16651 707.667L3.16651 705.667L2.66651 705.667L2.16651 705.667L2.16651 707.667L2.66651 707.667ZM2.66651 699.667L3.16651 699.667L3.16651 697.667L2.66651 697.667L2.16651 697.667L2.16651 699.667L2.66651 699.667ZM2.66651 691.667L3.16651 691.667L3.16651 689.667L2.66651 689.667L2.16651 689.667L2.16651 691.667L2.66651 691.667ZM2.66651 683.667L3.16651 683.667L3.16651 681.667L2.66651 681.667L2.16651 681.667L2.16651 683.667L2.66651 683.667ZM2.66651 675.667L3.16651 675.667L3.16651 673.667L2.66651 673.667L2.16651 673.667L2.16651 675.667L2.66651 675.667ZM2.66651 667.667L3.16651 667.667L3.16651 665.667L2.66651 665.667L2.16651 665.667L2.16651 667.667L2.66651 667.667ZM2.66651 659.667L3.16651 659.667L3.16651 657.667L2.66651 657.667L2.16651 657.667L2.16651 659.667L2.66651 659.667ZM2.66651 651.667L3.16651 651.667L3.16651 649.667L2.66651 649.667L2.16651 649.667L2.16651 651.667L2.66651 651.667ZM2.66651 643.667L3.16651 643.667L3.16651 641.667L2.66651 641.667L2.16651 641.667L2.16651 643.667L2.66651 643.667ZM2.66651 635.667L3.16651 635.667L3.16651 633.667L2.66651 633.667L2.16651 633.667L2.16651 635.667L2.66651 635.667ZM2.66651 627.666L3.16651 627.666L3.16651 625.667L2.66651 625.667L2.16651 625.667L2.16651 627.666L2.66651 627.666ZM2.66651 619.666L3.16651 619.666L3.16651 617.667L2.66651 617.667L2.16651 617.667L2.16651 619.666L2.66651 619.666ZM2.66651 611.666L3.16651 611.666L3.16651 609.667L2.66651 609.667L2.16651 609.667L2.16651 611.666L2.66651 611.666ZM2.66651 603.667L3.16651 603.667L3.16651 601.667L2.66651 601.667L2.16651 601.667L2.16651 603.667L2.66651 603.667ZM2.66651 595.667L3.16651 595.667L3.16651 593.667L2.66651 593.667L2.16651 593.667L2.16651 595.667L2.66651 595.667ZM2.66652 587.667L3.16652 587.667L3.16652 585.667L2.66652 585.667L2.16652 585.667L2.16652 587.667L2.66652 587.667ZM2.66652 579.667L3.16652 579.667L3.16652 577.667L2.66652 577.667L2.16652 577.667L2.16652 579.667L2.66652 579.667ZM2.66652 571.667L3.16652 571.667L3.16652 569.667L2.66652 569.667L2.16652 569.667L2.16652 571.667L2.66652 571.667ZM2.66652 563.667L3.16652 563.667L3.16652 561.667L2.66652 561.667L2.16652 561.667L2.16652 563.667L2.66652 563.667ZM2.66652 555.667L3.16652 555.667L3.16652 553.667L2.66652 553.667L2.16652 553.667L2.16652 555.667L2.66652 555.667ZM2.66652 547.667L3.16652 547.667L3.16652 545.667L2.66652 545.667L2.16652 545.667L2.16652 547.667L2.66652 547.667ZM2.66652 539.667L3.16652 539.667L3.16652 537.667L2.66652 537.667L2.16652 537.667L2.16652 539.667L2.66652 539.667ZM2.66652 531.667L3.16652 531.667L3.16652 529.667L2.66652 529.667L2.16652 529.667L2.16652 531.667L2.66652 531.667ZM2.66652 523.667L3.16652 523.667L3.16652 521.666L2.66652 521.666L2.16652 521.666L2.16652 523.667L2.66652 523.667ZM2.66652 515.667L3.16652 515.667L3.16652 513.666L2.66652 513.666L2.16652 513.666L2.16652 515.667L2.66652 515.667ZM2.66652 507.667L3.16652 507.667L3.16652 505.667L2.66652 505.667L2.16652 505.667L2.16652 507.667L2.66652 507.667ZM2.66652 499.667L3.16652 499.667L3.16652 497.667L2.66652 497.667L2.16652 497.667L2.16652 499.667L2.66652 499.667ZM2.66652 491.667L3.16652 491.667L3.16652 489.667L2.66652 489.667L2.16652 489.667L2.16652 491.667L2.66652 491.667ZM2.66652 483.667L3.16652 483.667L3.16652 481.667L2.66652 481.667L2.16652 481.667L2.16652 483.667L2.66652 483.667ZM2.66652 475.667L3.16652 475.667L3.16652 473.667L2.66652 473.667L2.16652 473.667L2.16652 475.667L2.66652 475.667ZM2.66652 467.667L3.16652 467.667L3.16652 465.667L2.66652 465.667L2.16652 465.667L2.16652 467.667L2.66652 467.667ZM2.66652 459.667L3.16652 459.667L3.16652 457.667L2.66652 457.667L2.16652 457.667L2.16652 459.667L2.66652 459.667ZM2.66652 451.667L3.16652 451.667L3.16652 449.667L2.66652 449.667L2.16652 449.667L2.16652 451.667L2.66652 451.667ZM2.66652 443.667L3.16652 443.667L3.16652 441.667L2.66652 441.667L2.16652 441.667L2.16652 443.667L2.66652 443.667ZM2.66652 435.667L3.16652 435.667L3.16652 433.667L2.66652 433.667L2.16652 433.667L2.16652 435.667L2.66652 435.667ZM2.66652 427.667L3.16652 427.667L3.16652 425.667L2.66652 425.667L2.16652 425.667L2.16652 427.667L2.66652 427.667ZM2.66652 419.666L3.16652 419.666L3.16652 417.667L2.66652 417.667L2.16652 417.667L2.16652 419.666L2.66652 419.666ZM2.66652 411.666L3.16652 411.666L3.16652 409.667L2.66652 409.667L2.16652 409.667L2.16652 411.666L2.66652 411.666ZM2.66652 403.666L3.16652 403.666L3.16652 401.667L2.66652 401.667L2.16652 401.667L2.16652 403.666L2.66652 403.666ZM2.66652 395.666L3.16652 395.666L3.16652 393.667L2.66652 393.667L2.16652 393.667L2.16652 395.666L2.66652 395.666ZM2.66652 387.666L3.16652 387.666L3.16652 385.667L2.66652 385.667L2.16652 385.667L2.16652 387.666L2.66652 387.666ZM2.66652 379.666L3.16652 379.666L3.16652 377.667L2.66652 377.667L2.16652 377.667L2.16652 379.666L2.66652 379.666ZM2.66652 371.666L3.16652 371.666L3.16652 369.667L2.66652 369.667L2.16652 369.667L2.16652 371.666L2.66652 371.666ZM2.66652 363.666L3.16652 363.666L3.16652 361.667L2.66652 361.667L2.16652 361.667L2.16652 363.666L2.66652 363.666ZM2.66653 355.666L3.16653 355.666L3.16653 353.667L2.66653 353.667L2.16653 353.667L2.16653 355.666L2.66653 355.666ZM2.66653 347.666L3.16653 347.666L3.16653 345.667L2.66653 345.667L2.16653 345.667L2.16653 347.666L2.66653 347.666ZM2.66653 339.666L3.16653 339.666L3.16653 337.667L2.66653 337.667L2.16653 337.667L2.16653 339.666L2.66653 339.666ZM2.66653 331.666L3.16653 331.666L3.16653 329.667L2.66653 329.667L2.16653 329.667L2.16653 331.666L2.66653 331.666ZM2.66653 323.667L3.16653 323.667L3.16653 321.667L2.66653 321.667L2.16653 321.667L2.16653 323.667L2.66653 323.667ZM2.66653 315.667L3.16653 315.667L3.16653 313.666L2.66653 313.666L2.16653 313.666L2.16653 315.667L2.66653 315.667ZM2.66653 307.667L3.16653 307.667L3.16653 305.666L2.66653 305.666L2.16653 305.666L2.16653 307.667L2.66653 307.667ZM2.66653 299.667L3.16653 299.667L3.16653 297.667L2.66653 297.667L2.16653 297.667L2.16653 299.667L2.66653 299.667ZM2.66653 291.667L3.16653 291.667L3.16653 289.667L2.66653 289.667L2.16653 289.667L2.16653 291.667L2.66653 291.667ZM2.66653 283.667L3.16653 283.667L3.16653 281.667L2.66653 281.667L2.16653 281.667L2.16653 283.667L2.66653 283.667ZM2.66653 275.667L3.16653 275.667L3.16653 273.667L2.66653 273.667L2.16653 273.667L2.16653 275.667L2.66653 275.667ZM2.66653 267.667L3.16653 267.667L3.16653 265.667L2.66653 265.667L2.16653 265.667L2.16653 267.667L2.66653 267.667ZM2.66653 259.667L3.16653 259.667L3.16653 257.667L2.66653 257.667L2.16653 257.667L2.16653 259.667L2.66653 259.667ZM2.66653 251.667L3.16653 251.667L3.16653 249.667L2.66653 249.667L2.16653 249.667L2.16653 251.667L2.66653 251.667ZM2.66653 243.667L3.16653 243.667L3.16653 241.667L2.66653 241.667L2.16653 241.667L2.16653 243.667L2.66653 243.667ZM2.66653 235.667L3.16653 235.667L3.16653 233.667L2.66653 233.667L2.16653 233.667L2.16653 235.667L2.66653 235.667ZM2.66653 227.667L3.16653 227.667L3.16653 225.667L2.66653 225.667L2.16653 225.667L2.16653 227.667L2.66653 227.667ZM2.66653 219.667L3.16653 219.667L3.16653 217.667L2.66653 217.667L2.16653 217.667L2.16653 219.667L2.66653 219.667ZM2.66653 211.667L3.16653 211.667L3.16653 209.667L2.66653 209.667L2.16653 209.667L2.16653 211.667L2.66653 211.667ZM2.66653 203.667L3.16653 203.667L3.16653 201.667L2.66653 201.667L2.16653 201.667L2.16653 203.667L2.66653 203.667ZM2.66653 195.667L3.16653 195.667L3.16653 193.667L2.66653 193.667L2.16653 193.667L2.16653 195.667L2.66653 195.667ZM2.66653 187.667L3.16653 187.667L3.16653 185.667L2.66653 185.667L2.16653 185.667L2.16653 187.667L2.66653 187.667ZM2.66653 179.667L3.16653 179.667L3.16653 177.667L2.66653 177.667L2.16653 177.667L2.16653 179.667L2.66653 179.667ZM2.66653 171.667L3.16653 171.667L3.16653 169.667L2.66653 169.667L2.16653 169.667L2.16653 171.667L2.66653 171.667ZM2.66653 163.667L3.16653 163.667L3.16653 161.667L2.66653 161.667L2.16653 161.667L2.16653 163.667L2.66653 163.667ZM2.66653 155.667L3.16653 155.667L3.16653 153.667L2.66653 153.667L2.16653 153.667L2.16653 155.667L2.66653 155.667ZM2.66653 147.667L3.16653 147.667L3.16653 145.667L2.66653 145.667L2.16653 145.667L2.16653 147.667L2.66653 147.667ZM2.66653 139.667L3.16653 139.667L3.16653 137.667L2.66653 137.667L2.16653 137.667L2.16653 139.667L2.66653 139.667ZM2.66653 131.667L3.16653 131.667L3.16654 129.667L2.66654 129.667L2.16654 129.667L2.16653 131.667L2.66653 131.667ZM2.66654 123.667L3.16654 123.667L3.16654 121.667L2.66654 121.667L2.16654 121.667L2.16654 123.667L2.66654 123.667ZM2.66654 115.667L3.16654 115.667L3.16654 113.667L2.66654 113.667L2.16654 113.667L2.16654 115.667L2.66654 115.667ZM2.66654 107.667L3.16654 107.667L3.16654 105.667L2.66654 105.667L2.16654 105.667L2.16654 107.667L2.66654 107.667ZM2.66654 99.6665L3.16654 99.6665L3.16654 97.6665L2.66654 97.6665L2.16654 97.6665L2.16654 99.6665L2.66654 99.6665ZM2.66654 91.6665L3.16654 91.6665L3.16654 89.6665L2.66654 89.6665L2.16654 89.6665L2.16654 91.6665L2.66654 91.6665ZM2.66654 83.6665L3.16654 83.6665L3.16654 81.6665L2.66654 81.6665L2.16654 81.6665L2.16654 83.6665L2.66654 83.6665ZM2.66654 75.6665L3.16654 75.6665L3.16654 73.6665L2.66654 73.6665L2.16654 73.6665L2.16654 75.6665L2.66654 75.6665ZM2.66654 67.6665L3.16654 67.6665L3.16654 65.6665L2.66654 65.6665L2.16654 65.6665L2.16654 67.6665L2.66654 67.6665ZM2.66654 59.6665L3.16654 59.6665L3.16654 57.6665L2.66654 57.6665L2.16654 57.6665L2.16654 59.6665L2.66654 59.6665ZM2.66654 51.6665L3.16654 51.6665L3.16654 49.6665L2.66654 49.6665L2.16654 49.6665L2.16654 51.6665L2.66654 51.6665ZM2.66654 43.6665L3.16654 43.6665L3.16654 41.6665L2.66654 41.6665L2.16654 41.6665L2.16654 43.6665L2.66654 43.6665ZM2.66654 35.6665L3.16654 35.6665L3.16654 33.6665L2.66654 33.6665L2.16654 33.6665L2.16654 35.6665L2.66654 35.6665ZM2.66654 27.6665L3.16654 27.6665L3.16654 25.6665L2.66654 25.6665L2.16654 25.6665L2.16654 27.6665L2.66654 27.6665ZM2.66654 19.6665L3.16654 19.6665L3.16654 17.6665L2.66654 17.6665L2.16654 17.6665L2.16654 19.6665L2.66654 19.6665ZM2.66654 11.6665L3.16654 11.6665L3.16654 9.6665L2.66654 9.6665L2.16654 9.6665L2.16654 11.6665L2.66654 11.6665ZM2.66654 3.6665L3.16654 3.6665L3.16654 2.6665L2.66654 2.6665L2.16654 2.6665L2.16654 3.6665L2.66654 3.6665Z" fill="url(#paint0_linear_152_873)"/>
<defs>
<linearGradient id="paint0_linear_152_873" x1="2.57811" y1="100.278" x2="4.24379" y2="100.279" gradientUnits="userSpaceOnUse">
<stop offset="1" stop-color="#B79F86"/>
</linearGradient>
</defs>
</svg>
