<svg width="6" height="202" viewBox="0 0 6 202" fill="none" xmlns="http://www.w3.org/2000/svg">
<path d="M2.66669 -0.00016284C1.19393 -0.000162904 2.033e-05 1.19374 2.02656e-05 2.6665C2.02012e-05 4.13926 1.19393 5.33317 2.66669 5.33317C4.13945 5.33317 5.33335 4.13926 5.33335 2.6665C5.33335 1.19374 4.13945 -0.000162776 2.66669 -0.00016284ZM2.66668 196C1.19392 196 1.17625e-05 197.194 1.16981e-05 198.667C1.16338e-05 200.139 1.19392 201.333 2.66668 201.333C4.13944 201.333 5.33335 200.139 5.33335 198.667C5.33335 197.194 4.13944 196 2.66668 196ZM2.16669 3.6465C2.16669 3.92265 2.39054 4.1465 2.66669 4.1465C2.94283 4.1465 3.16669 3.92265 3.16669 3.6465L2.66669 3.6465L2.16669 3.6465ZM3.16669 9.5265C3.16669 9.25036 2.94283 9.0265 2.66669 9.0265C2.39054 9.0265 2.16669 9.25036 2.16669 9.5265L2.66669 9.5265L3.16669 9.5265ZM2.16669 11.4865C2.16669 11.7626 2.39054 11.9865 2.66669 11.9865C2.94283 11.9865 3.16669 11.7626 3.16669 11.4865L2.66669 11.4865L2.16669 11.4865ZM3.16669 17.3665C3.16669 17.0904 2.94283 16.8665 2.66669 16.8665C2.39054 16.8665 2.16669 17.0904 2.16669 17.3665L2.66669 17.3665L3.16669 17.3665ZM2.16669 19.3265C2.16669 19.6026 2.39054 19.8265 2.66669 19.8265C2.94283 19.8265 3.16669 19.6026 3.16669 19.3265L2.66669 19.3265L2.16669 19.3265ZM3.16669 25.2065C3.16669 24.9304 2.94283 24.7065 2.66669 24.7065C2.39054 24.7065 2.16669 24.9304 2.16669 25.2065L2.66669 25.2065L3.16669 25.2065ZM2.16669 27.1665C2.16669 27.4426 2.39054 27.6665 2.66669 27.6665C2.94283 27.6665 3.16669 27.4426 3.16669 27.1665L2.66669 27.1665L2.16669 27.1665ZM3.16669 33.0465C3.16669 32.7704 2.94283 32.5465 2.66669 32.5465C2.39054 32.5465 2.16669 32.7704 2.16669 33.0465L2.66669 33.0465L3.16669 33.0465ZM2.16669 35.0065C2.16669 35.2826 2.39054 35.5065 2.66669 35.5065C2.94283 35.5065 3.16669 35.2827 3.16669 35.0065L2.66669 35.0065L2.16669 35.0065ZM3.16669 40.8865C3.16669 40.6104 2.94283 40.3865 2.66669 40.3865C2.39054 40.3865 2.16669 40.6104 2.16669 40.8865L2.66669 40.8865L3.16669 40.8865ZM2.16669 42.8465C2.16669 43.1226 2.39054 43.3465 2.66669 43.3465C2.94283 43.3465 3.16669 43.1226 3.16669 42.8465L2.66669 42.8465L2.16669 42.8465ZM3.16668 48.7265C3.16669 48.4504 2.94283 48.2265 2.66669 48.2265C2.39054 48.2265 2.16669 48.4504 2.16668 48.7265L2.66668 48.7265L3.16668 48.7265ZM2.16668 50.6865C2.16668 50.9626 2.39054 51.1865 2.66668 51.1865C2.94283 51.1865 3.16668 50.9626 3.16668 50.6865L2.66668 50.6865L2.16668 50.6865ZM3.16668 56.5665C3.16668 56.2904 2.94283 56.0665 2.66668 56.0665C2.39054 56.0665 2.16668 56.2904 2.16668 56.5665L2.66668 56.5665L3.16668 56.5665ZM2.16668 58.5265C2.16668 58.8026 2.39054 59.0265 2.66668 59.0265C2.94283 59.0265 3.16668 58.8026 3.16668 58.5265L2.66668 58.5265L2.16668 58.5265ZM3.16668 64.4065C3.16668 64.1304 2.94283 63.9065 2.66668 63.9065C2.39054 63.9065 2.16668 64.1304 2.16668 64.4065L2.66668 64.4065L3.16668 64.4065ZM2.16668 66.3665C2.16668 66.6427 2.39054 66.8665 2.66668 66.8665C2.94283 66.8665 3.16668 66.6427 3.16668 66.3665L2.66668 66.3665L2.16668 66.3665ZM3.16668 72.2465C3.16668 71.9704 2.94283 71.7465 2.66668 71.7465C2.39054 71.7465 2.16668 71.9704 2.16668 72.2465L2.66668 72.2465L3.16668 72.2465ZM2.16668 74.2065C2.16668 74.4827 2.39054 74.7065 2.66668 74.7065C2.94283 74.7065 3.16668 74.4827 3.16668 74.2065L2.66668 74.2065L2.16668 74.2065ZM3.16668 80.0865C3.16668 79.8104 2.94283 79.5865 2.66668 79.5865C2.39054 79.5865 2.16668 79.8104 2.16668 80.0865L2.66668 80.0865L3.16668 80.0865ZM2.16668 82.0465C2.16668 82.3226 2.39054 82.5465 2.66668 82.5465C2.94283 82.5465 3.16668 82.3226 3.16668 82.0465L2.66668 82.0465L2.16668 82.0465ZM3.16668 87.9265C3.16668 87.6504 2.94283 87.4265 2.66668 87.4265C2.39054 87.4265 2.16668 87.6504 2.16668 87.9265L2.66668 87.9265L3.16668 87.9265ZM2.16668 89.8865C2.16668 90.1626 2.39054 90.3865 2.66668 90.3865C2.94283 90.3865 3.16668 90.1626 3.16668 89.8865L2.66668 89.8865L2.16668 89.8865ZM3.16668 95.7665C3.16668 95.4904 2.94283 95.2665 2.66668 95.2665C2.39054 95.2665 2.16668 95.4904 2.16668 95.7665L2.66668 95.7665L3.16668 95.7665ZM2.16668 97.7265C2.16668 98.0026 2.39054 98.2265 2.66668 98.2265C2.94283 98.2265 3.16668 98.0026 3.16668 97.7265L2.66668 97.7265L2.16668 97.7265ZM3.16668 103.606C3.16668 103.33 2.94283 103.106 2.66668 103.106C2.39054 103.106 2.16668 103.33 2.16668 103.606L2.66668 103.606L3.16668 103.606ZM2.16668 105.566C2.16668 105.843 2.39054 106.066 2.66668 106.066C2.94282 106.066 3.16668 105.843 3.16668 105.566L2.66668 105.566L2.16668 105.566ZM3.16668 111.446C3.16668 111.17 2.94282 110.946 2.66668 110.946C2.39054 110.946 2.16668 111.17 2.16668 111.446L2.66668 111.446L3.16668 111.446ZM2.16668 113.406C2.16668 113.683 2.39054 113.906 2.66668 113.906C2.94282 113.906 3.16668 113.683 3.16668 113.406L2.66668 113.406L2.16668 113.406ZM3.16668 119.286C3.16668 119.01 2.94282 118.786 2.66668 118.786C2.39054 118.786 2.16668 119.01 2.16668 119.286L2.66668 119.286L3.16668 119.286ZM2.16668 121.246C2.16668 121.523 2.39054 121.746 2.66668 121.746C2.94282 121.746 3.16668 121.523 3.16668 121.246L2.66668 121.246L2.16668 121.246ZM3.16668 127.126C3.16668 126.85 2.94282 126.626 2.66668 126.626C2.39054 126.626 2.16668 126.85 2.16668 127.126L2.66668 127.126L3.16668 127.126ZM2.16668 129.086C2.16668 129.363 2.39054 129.586 2.66668 129.586C2.94282 129.586 3.16668 129.363 3.16668 129.086L2.66668 129.086L2.16668 129.086ZM3.16668 134.966C3.16668 134.69 2.94282 134.466 2.66668 134.466C2.39054 134.466 2.16668 134.69 2.16668 134.966L2.66668 134.966L3.16668 134.966ZM2.16668 136.926C2.16668 137.203 2.39054 137.426 2.66668 137.426C2.94282 137.426 3.16668 137.203 3.16668 136.926L2.66668 136.926L2.16668 136.926ZM3.16668 142.806C3.16668 142.53 2.94282 142.306 2.66668 142.306C2.39054 142.306 2.16668 142.53 2.16668 142.806L2.66668 142.806L3.16668 142.806ZM2.16668 144.766C2.16668 145.043 2.39054 145.266 2.66668 145.266C2.94282 145.266 3.16668 145.043 3.16668 144.766L2.66668 144.766L2.16668 144.766ZM3.16668 150.646C3.16668 150.37 2.94282 150.146 2.66668 150.146C2.39054 150.146 2.16668 150.37 2.16668 150.646L2.66668 150.646L3.16668 150.646ZM2.16668 152.607C2.16668 152.883 2.39054 153.107 2.66668 153.107C2.94282 153.107 3.16668 152.883 3.16668 152.607L2.66668 152.607L2.16668 152.607ZM3.16668 158.487C3.16668 158.21 2.94282 157.987 2.66668 157.987C2.39054 157.987 2.16668 158.21 2.16668 158.487L2.66668 158.487L3.16668 158.487ZM2.16668 160.447C2.16668 160.723 2.39054 160.947 2.66668 160.947C2.94282 160.947 3.16668 160.723 3.16668 160.447L2.66668 160.447L2.16668 160.447ZM3.16668 166.327C3.16668 166.05 2.94282 165.827 2.66668 165.827C2.39054 165.827 2.16668 166.05 2.16668 166.327L2.66668 166.327L3.16668 166.327ZM2.16668 168.287C2.16668 168.563 2.39054 168.787 2.66668 168.787C2.94282 168.787 3.16668 168.563 3.16668 168.287L2.66668 168.287L2.16668 168.287ZM3.16668 174.167C3.16668 173.89 2.94282 173.667 2.66668 173.667C2.39054 173.667 2.16668 173.89 2.16668 174.167L2.66668 174.167L3.16668 174.167ZM2.16668 176.127C2.16668 176.403 2.39054 176.627 2.66668 176.627C2.94282 176.627 3.16668 176.403 3.16668 176.127L2.66668 176.127L2.16668 176.127ZM3.16668 182.007C3.16668 181.73 2.94282 181.507 2.66668 181.507C2.39054 181.507 2.16668 181.73 2.16668 182.007L2.66668 182.007L3.16668 182.007ZM2.16668 183.967C2.16668 184.243 2.39054 184.467 2.66668 184.467C2.94282 184.467 3.16668 184.243 3.16668 183.967L2.66668 183.967L2.16668 183.967ZM3.16668 189.847C3.16668 189.57 2.94282 189.347 2.66668 189.347C2.39054 189.347 2.16668 189.57 2.16668 189.847L2.66668 189.847L3.16668 189.847ZM2.16668 191.807C2.16668 192.083 2.39054 192.307 2.66668 192.307C2.94282 192.307 3.16668 192.083 3.16668 191.807L2.66668 191.807L2.16668 191.807ZM3.16668 197.687C3.16668 197.41 2.94282 197.187 2.66668 197.187C2.39054 197.187 2.16668 197.41 2.16668 197.687L2.66668 197.687L3.16668 197.687ZM2.66669 2.6665L2.16669 2.6665L2.16669 3.6465L2.66669 3.6465L3.16669 3.6465L3.16669 2.6665L2.66669 2.6665ZM2.66669 9.5265L2.16669 9.5265L2.16669 11.4865L2.66669 11.4865L3.16669 11.4865L3.16669 9.5265L2.66669 9.5265ZM2.66669 17.3665L2.16669 17.3665L2.16669 19.3265L2.66669 19.3265L3.16669 19.3265L3.16669 17.3665L2.66669 17.3665ZM2.66669 25.2065L2.16669 25.2065L2.16669 27.1665L2.66669 27.1665L3.16669 27.1665L3.16669 25.2065L2.66669 25.2065ZM2.66669 33.0465L2.16669 33.0465L2.16669 35.0065L2.66669 35.0065L3.16669 35.0065L3.16669 33.0465L2.66669 33.0465ZM2.66669 40.8865L2.16669 40.8865L2.16669 42.8465L2.66669 42.8465L3.16669 42.8465L3.16669 40.8865L2.66669 40.8865ZM2.66668 48.7265L2.16668 48.7265L2.16668 50.6865L2.66668 50.6865L3.16668 50.6865L3.16668 48.7265L2.66668 48.7265ZM2.66668 56.5665L2.16668 56.5665L2.16668 58.5265L2.66668 58.5265L3.16668 58.5265L3.16668 56.5665L2.66668 56.5665ZM2.66668 64.4065L2.16668 64.4065L2.16668 66.3665L2.66668 66.3665L3.16668 66.3665L3.16668 64.4065L2.66668 64.4065ZM2.66668 72.2465L2.16668 72.2465L2.16668 74.2065L2.66668 74.2065L3.16668 74.2065L3.16668 72.2465L2.66668 72.2465ZM2.66668 80.0865L2.16668 80.0865L2.16668 82.0465L2.66668 82.0465L3.16668 82.0465L3.16668 80.0865L2.66668 80.0865ZM2.66668 87.9265L2.16668 87.9265L2.16668 89.8865L2.66668 89.8865L3.16668 89.8865L3.16668 87.9265L2.66668 87.9265ZM2.66668 95.7665L2.16668 95.7665L2.16668 97.7265L2.66668 97.7265L3.16668 97.7265L3.16668 95.7665L2.66668 95.7665ZM2.66668 103.606L2.16668 103.606L2.16668 105.566L2.66668 105.566L3.16668 105.566L3.16668 103.606L2.66668 103.606ZM2.66668 111.446L2.16668 111.446L2.16668 113.406L2.66668 113.406L3.16668 113.406L3.16668 111.446L2.66668 111.446ZM2.66668 119.286L2.16668 119.286L2.16668 121.246L2.66668 121.246L3.16668 121.246L3.16668 119.286L2.66668 119.286ZM2.66668 127.126L2.16668 127.126L2.16668 129.086L2.66668 129.086L3.16668 129.086L3.16668 127.126L2.66668 127.126ZM2.66668 134.966L2.16668 134.966L2.16668 136.926L2.66668 136.926L3.16668 136.926L3.16668 134.966L2.66668 134.966ZM2.66668 142.806L2.16668 142.806L2.16668 144.766L2.66668 144.766L3.16668 144.766L3.16668 142.806L2.66668 142.806ZM2.66668 150.646L2.16668 150.646L2.16668 152.607L2.66668 152.607L3.16668 152.607L3.16668 150.646L2.66668 150.646ZM2.66668 158.487L2.16668 158.487L2.16668 160.447L2.66668 160.447L3.16668 160.447L3.16668 158.487L2.66668 158.487ZM2.66668 166.327L2.16668 166.327L2.16668 168.287L2.66668 168.287L3.16668 168.287L3.16668 166.327L2.66668 166.327ZM2.66668 174.167L2.16668 174.167L2.16668 176.127L2.66668 176.127L3.16668 176.127L3.16668 174.167L2.66668 174.167ZM2.66668 182.007L2.16668 182.007L2.16668 183.967L2.66668 183.967L3.16668 183.967L3.16668 182.007L2.66668 182.007ZM2.66668 189.847L2.16668 189.847L2.16668 191.807L2.66668 191.807L3.16668 191.807L3.16668 189.847L2.66668 189.847ZM2.66668 197.687L2.16668 197.687L2.16668 198.667L2.66668 198.667L3.16668 198.667L3.16668 197.687L2.66668 197.687Z" fill="url(#paint0_linear_1_607)"/>
<defs>
<linearGradient id="paint0_linear_1_607" x1="2.75511" y1="175.891" x2="1.08944" y2="175.885" gradientUnits="userSpaceOnUse">
<stop offset="1" stop-color="#B79F86"/>
</linearGradient>
</defs>
</svg>
