<svg width="223" height="3" viewBox="0 0 223 3" fill="none" xmlns="http://www.w3.org/2000/svg">
<path d="M0.000651002 1.3335C0.000651002 2.06988 0.597605 2.66683 1.33398 2.66683C2.07036 2.66683 2.66732 2.06988 2.66732 1.3335C2.66732 0.597116 2.07036 0.000162721 1.33398 0.000162721C0.597605 0.000162721 0.000651002 0.597116 0.000651002 1.3335ZM220.001 1.3335C220.001 2.06988 220.598 2.66683 221.334 2.66683C222.07 2.66683 222.667 2.06988 222.667 1.3335C222.667 0.597116 222.07 0.000162721 221.334 0.000162721C220.598 0.000162721 220.001 0.597116 220.001 1.3335ZM1.83398 1.5835C1.97206 1.5835 2.08398 1.47157 2.08398 1.3335C2.08398 1.19542 1.97206 1.0835 1.83398 1.0835V1.3335V1.5835ZM4.83398 1.0835C4.69591 1.0835 4.58398 1.19542 4.58398 1.3335C4.58398 1.47157 4.69591 1.5835 4.83398 1.5835V1.3335V1.0835ZM5.83398 1.5835C5.97206 1.5835 6.08398 1.47157 6.08398 1.3335C6.08398 1.19542 5.97206 1.0835 5.83398 1.0835V1.3335V1.5835ZM8.83398 1.0835C8.69591 1.0835 8.58398 1.19542 8.58398 1.3335C8.58398 1.47157 8.69591 1.5835 8.83398 1.5835V1.3335V1.0835ZM9.83398 1.5835C9.97206 1.5835 10.084 1.47157 10.084 1.3335C10.084 1.19542 9.97206 1.0835 9.83398 1.0835V1.3335V1.5835ZM12.834 1.0835C12.6959 1.0835 12.584 1.19542 12.584 1.3335C12.584 1.47157 12.6959 1.5835 12.834 1.5835V1.3335V1.0835ZM13.834 1.5835C13.9721 1.5835 14.084 1.47157 14.084 1.3335C14.084 1.19542 13.9721 1.0835 13.834 1.0835V1.3335V1.5835ZM16.834 1.0835C16.6959 1.0835 16.584 1.19542 16.584 1.3335C16.584 1.47157 16.6959 1.5835 16.834 1.5835V1.3335V1.0835ZM17.834 1.5835C17.9721 1.5835 18.084 1.47157 18.084 1.3335C18.084 1.19542 17.9721 1.0835 17.834 1.0835V1.3335V1.5835ZM20.834 1.0835C20.6959 1.0835 20.584 1.19542 20.584 1.3335C20.584 1.47157 20.6959 1.5835 20.834 1.5835V1.3335V1.0835ZM21.834 1.5835C21.9721 1.5835 22.084 1.47157 22.084 1.3335C22.084 1.19542 21.9721 1.0835 21.834 1.0835V1.3335V1.5835ZM24.834 1.0835C24.6959 1.0835 24.584 1.19542 24.584 1.3335C24.584 1.47157 24.6959 1.5835 24.834 1.5835V1.3335V1.0835ZM25.834 1.5835C25.9721 1.5835 26.084 1.47157 26.084 1.3335C26.084 1.19542 25.9721 1.0835 25.834 1.0835V1.3335V1.5835ZM28.834 1.0835C28.6959 1.0835 28.584 1.19542 28.584 1.3335C28.584 1.47157 28.6959 1.5835 28.834 1.5835V1.3335V1.0835ZM29.834 1.5835C29.9721 1.5835 30.084 1.47157 30.084 1.3335C30.084 1.19542 29.9721 1.0835 29.834 1.0835V1.3335V1.5835ZM32.834 1.0835C32.6959 1.0835 32.584 1.19542 32.584 1.3335C32.584 1.47157 32.6959 1.5835 32.834 1.5835V1.3335V1.0835ZM33.834 1.5835C33.9721 1.5835 34.084 1.47157 34.084 1.3335C34.084 1.19542 33.9721 1.0835 33.834 1.0835V1.3335V1.5835ZM36.834 1.0835C36.6959 1.0835 36.584 1.19542 36.584 1.3335C36.584 1.47157 36.6959 1.5835 36.834 1.5835V1.3335V1.0835ZM37.834 1.5835C37.9721 1.5835 38.084 1.47157 38.084 1.3335C38.084 1.19542 37.9721 1.0835 37.834 1.0835V1.3335V1.5835ZM40.834 1.0835C40.6959 1.0835 40.584 1.19542 40.584 1.3335C40.584 1.47157 40.6959 1.5835 40.834 1.5835V1.3335V1.0835ZM41.834 1.5835C41.9721 1.5835 42.084 1.47157 42.084 1.3335C42.084 1.19542 41.9721 1.0835 41.834 1.0835V1.3335V1.5835ZM44.834 1.0835C44.6959 1.0835 44.584 1.19542 44.584 1.3335C44.584 1.47157 44.6959 1.5835 44.834 1.5835V1.3335V1.0835ZM45.834 1.5835C45.9721 1.5835 46.084 1.47157 46.084 1.3335C46.084 1.19542 45.9721 1.0835 45.834 1.0835V1.3335V1.5835ZM48.834 1.0835C48.6959 1.0835 48.584 1.19542 48.584 1.3335C48.584 1.47157 48.6959 1.5835 48.834 1.5835V1.3335V1.0835ZM49.834 1.5835C49.9721 1.5835 50.084 1.47157 50.084 1.3335C50.084 1.19542 49.9721 1.0835 49.834 1.0835V1.3335V1.5835ZM52.834 1.0835C52.6959 1.0835 52.584 1.19542 52.584 1.3335C52.584 1.47157 52.6959 1.5835 52.834 1.5835V1.3335V1.0835ZM53.834 1.5835C53.9721 1.5835 54.084 1.47157 54.084 1.3335C54.084 1.19542 53.9721 1.0835 53.834 1.0835V1.3335V1.5835ZM56.834 1.0835C56.6959 1.0835 56.584 1.19542 56.584 1.3335C56.584 1.47157 56.6959 1.5835 56.834 1.5835V1.3335V1.0835ZM57.834 1.5835C57.9721 1.5835 58.084 1.47157 58.084 1.3335C58.084 1.19542 57.9721 1.0835 57.834 1.0835V1.3335V1.5835ZM60.834 1.0835C60.6959 1.0835 60.584 1.19542 60.584 1.3335C60.584 1.47157 60.6959 1.5835 60.834 1.5835V1.3335V1.0835ZM61.834 1.5835C61.9721 1.5835 62.084 1.47157 62.084 1.3335C62.084 1.19542 61.9721 1.0835 61.834 1.0835V1.3335V1.5835ZM64.834 1.0835C64.6959 1.0835 64.584 1.19542 64.584 1.3335C64.584 1.47157 64.6959 1.5835 64.834 1.5835V1.3335V1.0835ZM65.834 1.5835C65.9721 1.5835 66.084 1.47157 66.084 1.3335C66.084 1.19542 65.9721 1.0835 65.834 1.0835V1.3335V1.5835ZM68.834 1.0835C68.6959 1.0835 68.584 1.19542 68.584 1.3335C68.584 1.47157 68.6959 1.5835 68.834 1.5835V1.3335V1.0835ZM69.834 1.5835C69.9721 1.5835 70.084 1.47157 70.084 1.3335C70.084 1.19542 69.9721 1.0835 69.834 1.0835V1.3335V1.5835ZM72.834 1.0835C72.6959 1.0835 72.584 1.19542 72.584 1.3335C72.584 1.47157 72.6959 1.5835 72.834 1.5835V1.3335V1.0835ZM73.834 1.5835C73.9721 1.5835 74.084 1.47157 74.084 1.3335C74.084 1.19542 73.9721 1.0835 73.834 1.0835V1.3335V1.5835ZM76.834 1.0835C76.6959 1.0835 76.584 1.19542 76.584 1.3335C76.584 1.47157 76.6959 1.5835 76.834 1.5835V1.3335V1.0835ZM77.834 1.5835C77.9721 1.5835 78.084 1.47157 78.084 1.3335C78.084 1.19542 77.9721 1.0835 77.834 1.0835V1.3335V1.5835ZM80.834 1.0835C80.6959 1.0835 80.584 1.19542 80.584 1.3335C80.584 1.47157 80.6959 1.5835 80.834 1.5835V1.3335V1.0835ZM81.834 1.5835C81.9721 1.5835 82.084 1.47157 82.084 1.3335C82.084 1.19542 81.9721 1.0835 81.834 1.0835V1.3335V1.5835ZM84.834 1.0835C84.6959 1.0835 84.584 1.19542 84.584 1.3335C84.584 1.47157 84.6959 1.5835 84.834 1.5835V1.3335V1.0835ZM85.834 1.5835C85.9721 1.5835 86.084 1.47157 86.084 1.3335C86.084 1.19542 85.9721 1.0835 85.834 1.0835V1.3335V1.5835ZM88.834 1.0835C88.6959 1.0835 88.584 1.19542 88.584 1.3335C88.584 1.47157 88.6959 1.5835 88.834 1.5835V1.3335V1.0835ZM89.834 1.5835C89.9721 1.5835 90.084 1.47157 90.084 1.3335C90.084 1.19542 89.9721 1.0835 89.834 1.0835V1.3335V1.5835ZM92.834 1.0835C92.6959 1.0835 92.584 1.19542 92.584 1.3335C92.584 1.47157 92.6959 1.5835 92.834 1.5835V1.3335V1.0835ZM93.834 1.5835C93.9721 1.5835 94.084 1.47157 94.084 1.3335C94.084 1.19542 93.9721 1.0835 93.834 1.0835V1.3335V1.5835ZM96.834 1.0835C96.6959 1.0835 96.584 1.19542 96.584 1.3335C96.584 1.47157 96.6959 1.5835 96.834 1.5835V1.3335V1.0835ZM97.834 1.5835C97.9721 1.5835 98.084 1.47157 98.084 1.3335C98.084 1.19542 97.9721 1.0835 97.834 1.0835V1.3335V1.5835ZM100.834 1.0835C100.696 1.0835 100.584 1.19542 100.584 1.3335C100.584 1.47157 100.696 1.5835 100.834 1.5835V1.3335V1.0835ZM101.834 1.5835C101.972 1.5835 102.084 1.47157 102.084 1.3335C102.084 1.19542 101.972 1.0835 101.834 1.0835V1.3335V1.5835ZM104.834 1.0835C104.696 1.0835 104.584 1.19542 104.584 1.3335C104.584 1.47157 104.696 1.5835 104.834 1.5835V1.3335V1.0835ZM105.834 1.5835C105.972 1.5835 106.084 1.47157 106.084 1.3335C106.084 1.19542 105.972 1.0835 105.834 1.0835V1.3335V1.5835ZM108.834 1.0835C108.696 1.0835 108.584 1.19542 108.584 1.3335C108.584 1.47157 108.696 1.5835 108.834 1.5835V1.3335V1.0835ZM109.834 1.5835C109.972 1.5835 110.084 1.47157 110.084 1.3335C110.084 1.19542 109.972 1.0835 109.834 1.0835V1.3335V1.5835ZM112.834 1.0835C112.696 1.0835 112.584 1.19542 112.584 1.3335C112.584 1.47157 112.696 1.5835 112.834 1.5835V1.3335V1.0835ZM113.834 1.5835C113.972 1.5835 114.084 1.47157 114.084 1.3335C114.084 1.19542 113.972 1.0835 113.834 1.0835V1.3335V1.5835ZM116.834 1.0835C116.696 1.0835 116.584 1.19542 116.584 1.3335C116.584 1.47157 116.696 1.5835 116.834 1.5835V1.3335V1.0835ZM117.834 1.5835C117.972 1.5835 118.084 1.47157 118.084 1.3335C118.084 1.19542 117.972 1.0835 117.834 1.0835V1.3335V1.5835ZM120.834 1.0835C120.696 1.0835 120.584 1.19542 120.584 1.3335C120.584 1.47157 120.696 1.5835 120.834 1.5835V1.3335V1.0835ZM121.834 1.5835C121.972 1.5835 122.084 1.47157 122.084 1.3335C122.084 1.19542 121.972 1.0835 121.834 1.0835V1.3335V1.5835ZM124.834 1.0835C124.696 1.0835 124.584 1.19542 124.584 1.3335C124.584 1.47157 124.696 1.5835 124.834 1.5835V1.3335V1.0835ZM125.834 1.5835C125.972 1.5835 126.084 1.47157 126.084 1.3335C126.084 1.19542 125.972 1.0835 125.834 1.0835V1.3335V1.5835ZM128.834 1.0835C128.696 1.0835 128.584 1.19542 128.584 1.3335C128.584 1.47157 128.696 1.5835 128.834 1.5835V1.3335V1.0835ZM129.834 1.5835C129.972 1.5835 130.084 1.47157 130.084 1.3335C130.084 1.19542 129.972 1.0835 129.834 1.0835V1.3335V1.5835ZM132.834 1.0835C132.696 1.0835 132.584 1.19542 132.584 1.3335C132.584 1.47157 132.696 1.5835 132.834 1.5835V1.3335V1.0835ZM133.834 1.5835C133.972 1.5835 134.084 1.47157 134.084 1.3335C134.084 1.19542 133.972 1.0835 133.834 1.0835V1.3335V1.5835ZM136.834 1.0835C136.696 1.0835 136.584 1.19542 136.584 1.3335C136.584 1.47157 136.696 1.5835 136.834 1.5835V1.3335V1.0835ZM137.834 1.5835C137.972 1.5835 138.084 1.47157 138.084 1.3335C138.084 1.19542 137.972 1.0835 137.834 1.0835V1.3335V1.5835ZM140.834 1.0835C140.696 1.0835 140.584 1.19542 140.584 1.3335C140.584 1.47157 140.696 1.5835 140.834 1.5835V1.3335V1.0835ZM141.834 1.5835C141.972 1.5835 142.084 1.47157 142.084 1.3335C142.084 1.19542 141.972 1.0835 141.834 1.0835V1.3335V1.5835ZM144.834 1.0835C144.696 1.0835 144.584 1.19542 144.584 1.3335C144.584 1.47157 144.696 1.5835 144.834 1.5835V1.3335V1.0835ZM145.834 1.5835C145.972 1.5835 146.084 1.47157 146.084 1.3335C146.084 1.19542 145.972 1.0835 145.834 1.0835V1.3335V1.5835ZM148.834 1.0835C148.696 1.0835 148.584 1.19542 148.584 1.3335C148.584 1.47157 148.696 1.5835 148.834 1.5835V1.3335V1.0835ZM149.834 1.5835C149.972 1.5835 150.084 1.47157 150.084 1.3335C150.084 1.19542 149.972 1.0835 149.834 1.0835V1.3335V1.5835ZM152.834 1.0835C152.696 1.0835 152.584 1.19542 152.584 1.3335C152.584 1.47157 152.696 1.5835 152.834 1.5835V1.3335V1.0835ZM153.834 1.5835C153.972 1.5835 154.084 1.47157 154.084 1.3335C154.084 1.19542 153.972 1.0835 153.834 1.0835V1.3335V1.5835ZM156.834 1.0835C156.696 1.0835 156.584 1.19542 156.584 1.3335C156.584 1.47157 156.696 1.5835 156.834 1.5835V1.3335V1.0835ZM157.834 1.5835C157.972 1.5835 158.084 1.47157 158.084 1.3335C158.084 1.19542 157.972 1.0835 157.834 1.0835V1.3335V1.5835ZM160.834 1.0835C160.696 1.0835 160.584 1.19542 160.584 1.3335C160.584 1.47157 160.696 1.5835 160.834 1.5835V1.3335V1.0835ZM161.834 1.5835C161.972 1.5835 162.084 1.47157 162.084 1.3335C162.084 1.19542 161.972 1.0835 161.834 1.0835V1.3335V1.5835ZM164.834 1.0835C164.696 1.0835 164.584 1.19542 164.584 1.3335C164.584 1.47157 164.696 1.5835 164.834 1.5835V1.3335V1.0835ZM165.834 1.5835C165.972 1.5835 166.084 1.47157 166.084 1.3335C166.084 1.19542 165.972 1.0835 165.834 1.0835V1.3335V1.5835ZM168.834 1.0835C168.696 1.0835 168.584 1.19542 168.584 1.3335C168.584 1.47157 168.696 1.5835 168.834 1.5835V1.3335V1.0835ZM169.834 1.5835C169.972 1.5835 170.084 1.47157 170.084 1.3335C170.084 1.19542 169.972 1.0835 169.834 1.0835V1.3335V1.5835ZM172.834 1.0835C172.696 1.0835 172.584 1.19542 172.584 1.3335C172.584 1.47157 172.696 1.5835 172.834 1.5835V1.3335V1.0835ZM173.834 1.5835C173.972 1.5835 174.084 1.47157 174.084 1.3335C174.084 1.19542 173.972 1.0835 173.834 1.0835V1.3335V1.5835ZM176.834 1.0835C176.696 1.0835 176.584 1.19542 176.584 1.3335C176.584 1.47157 176.696 1.5835 176.834 1.5835V1.3335V1.0835ZM177.834 1.5835C177.972 1.5835 178.084 1.47157 178.084 1.3335C178.084 1.19542 177.972 1.0835 177.834 1.0835V1.3335V1.5835ZM180.834 1.0835C180.696 1.0835 180.584 1.19542 180.584 1.3335C180.584 1.47157 180.696 1.5835 180.834 1.5835V1.3335V1.0835ZM181.834 1.5835C181.972 1.5835 182.084 1.47157 182.084 1.3335C182.084 1.19542 181.972 1.0835 181.834 1.0835V1.3335V1.5835ZM184.834 1.0835C184.696 1.0835 184.584 1.19542 184.584 1.3335C184.584 1.47157 184.696 1.5835 184.834 1.5835V1.3335V1.0835ZM185.834 1.5835C185.972 1.5835 186.084 1.47157 186.084 1.3335C186.084 1.19542 185.972 1.0835 185.834 1.0835V1.3335V1.5835ZM188.834 1.0835C188.696 1.0835 188.584 1.19542 188.584 1.3335C188.584 1.47157 188.696 1.5835 188.834 1.5835V1.3335V1.0835ZM189.834 1.5835C189.972 1.5835 190.084 1.47157 190.084 1.3335C190.084 1.19542 189.972 1.0835 189.834 1.0835V1.3335V1.5835ZM192.834 1.0835C192.696 1.0835 192.584 1.19542 192.584 1.3335C192.584 1.47157 192.696 1.5835 192.834 1.5835V1.3335V1.0835ZM193.834 1.5835C193.972 1.5835 194.084 1.47157 194.084 1.3335C194.084 1.19542 193.972 1.0835 193.834 1.0835V1.3335V1.5835ZM196.834 1.0835C196.696 1.0835 196.584 1.19542 196.584 1.3335C196.584 1.47157 196.696 1.5835 196.834 1.5835V1.3335V1.0835ZM197.834 1.5835C197.972 1.5835 198.084 1.47157 198.084 1.3335C198.084 1.19542 197.972 1.0835 197.834 1.0835V1.3335V1.5835ZM200.834 1.0835C200.696 1.0835 200.584 1.19542 200.584 1.3335C200.584 1.47157 200.696 1.5835 200.834 1.5835V1.3335V1.0835ZM201.834 1.5835C201.972 1.5835 202.084 1.47157 202.084 1.3335C202.084 1.19542 201.972 1.0835 201.834 1.0835V1.3335V1.5835ZM204.834 1.0835C204.696 1.0835 204.584 1.19542 204.584 1.3335C204.584 1.47157 204.696 1.5835 204.834 1.5835V1.3335V1.0835ZM205.834 1.5835C205.972 1.5835 206.084 1.47157 206.084 1.3335C206.084 1.19542 205.972 1.0835 205.834 1.0835V1.3335V1.5835ZM208.834 1.0835C208.696 1.0835 208.584 1.19542 208.584 1.3335C208.584 1.47157 208.696 1.5835 208.834 1.5835V1.3335V1.0835ZM209.834 1.5835C209.972 1.5835 210.084 1.47157 210.084 1.3335C210.084 1.19542 209.972 1.0835 209.834 1.0835V1.3335V1.5835ZM212.834 1.0835C212.696 1.0835 212.584 1.19542 212.584 1.3335C212.584 1.47157 212.696 1.5835 212.834 1.5835V1.3335V1.0835ZM213.834 1.5835C213.972 1.5835 214.084 1.47157 214.084 1.3335C214.084 1.19542 213.972 1.0835 213.834 1.0835V1.3335V1.5835ZM216.834 1.0835C216.696 1.0835 216.584 1.19542 216.584 1.3335C216.584 1.47157 216.696 1.5835 216.834 1.5835V1.3335V1.0835ZM217.834 1.5835C217.972 1.5835 218.084 1.47157 218.084 1.3335C218.084 1.19542 217.972 1.0835 217.834 1.0835V1.3335V1.5835ZM220.834 1.0835C220.696 1.0835 220.584 1.19542 220.584 1.3335C220.584 1.47157 220.696 1.5835 220.834 1.5835V1.3335V1.0835ZM1.33398 1.3335V1.5835H1.83398V1.3335V1.0835H1.33398V1.3335ZM4.83398 1.3335V1.5835H5.83398V1.3335V1.0835H4.83398V1.3335ZM8.83398 1.3335V1.5835H9.83398V1.3335V1.0835H8.83398V1.3335ZM12.834 1.3335V1.5835H13.834V1.3335V1.0835H12.834V1.3335ZM16.834 1.3335V1.5835H17.834V1.3335V1.0835H16.834V1.3335ZM20.834 1.3335V1.5835H21.834V1.3335V1.0835H20.834V1.3335ZM24.834 1.3335V1.5835H25.834V1.3335V1.0835H24.834V1.3335ZM28.834 1.3335V1.5835H29.834V1.3335V1.0835H28.834V1.3335ZM32.834 1.3335V1.5835H33.834V1.3335V1.0835H32.834V1.3335ZM36.834 1.3335V1.5835H37.834V1.3335V1.0835H36.834V1.3335ZM40.834 1.3335V1.5835H41.834V1.3335V1.0835H40.834V1.3335ZM44.834 1.3335V1.5835H45.834V1.3335V1.0835H44.834V1.3335ZM48.834 1.3335V1.5835H49.834V1.3335V1.0835H48.834V1.3335ZM52.834 1.3335V1.5835H53.834V1.3335V1.0835H52.834V1.3335ZM56.834 1.3335V1.5835H57.834V1.3335V1.0835H56.834V1.3335ZM60.834 1.3335V1.5835H61.834V1.3335V1.0835H60.834V1.3335ZM64.834 1.3335V1.5835H65.834V1.3335V1.0835H64.834V1.3335ZM68.834 1.3335V1.5835H69.834V1.3335V1.0835H68.834V1.3335ZM72.834 1.3335V1.5835H73.834V1.3335V1.0835H72.834V1.3335ZM76.834 1.3335V1.5835H77.834V1.3335V1.0835H76.834V1.3335ZM80.834 1.3335V1.5835H81.834V1.3335V1.0835H80.834V1.3335ZM84.834 1.3335V1.5835H85.834V1.3335V1.0835H84.834V1.3335ZM88.834 1.3335V1.5835H89.834V1.3335V1.0835H88.834V1.3335ZM92.834 1.3335V1.5835H93.834V1.3335V1.0835H92.834V1.3335ZM96.834 1.3335V1.5835H97.834V1.3335V1.0835H96.834V1.3335ZM100.834 1.3335V1.5835H101.834V1.3335V1.0835H100.834V1.3335ZM104.834 1.3335V1.5835H105.834V1.3335V1.0835H104.834V1.3335ZM108.834 1.3335V1.5835H109.834V1.3335V1.0835H108.834V1.3335ZM112.834 1.3335V1.5835H113.834V1.3335V1.0835H112.834V1.3335ZM116.834 1.3335V1.5835H117.834V1.3335V1.0835H116.834V1.3335ZM120.834 1.3335V1.5835H121.834V1.3335V1.0835H120.834V1.3335ZM124.834 1.3335V1.5835H125.834V1.3335V1.0835H124.834V1.3335ZM128.834 1.3335V1.5835H129.834V1.3335V1.0835H128.834V1.3335ZM132.834 1.3335V1.5835H133.834V1.3335V1.0835H132.834V1.3335ZM136.834 1.3335V1.5835H137.834V1.3335V1.0835H136.834V1.3335ZM140.834 1.3335V1.5835H141.834V1.3335V1.0835H140.834V1.3335ZM144.834 1.3335V1.5835H145.834V1.3335V1.0835H144.834V1.3335ZM148.834 1.3335V1.5835H149.834V1.3335V1.0835H148.834V1.3335ZM152.834 1.3335V1.5835H153.834V1.3335V1.0835H152.834V1.3335ZM156.834 1.3335V1.5835H157.834V1.3335V1.0835H156.834V1.3335ZM160.834 1.3335V1.5835H161.834V1.3335V1.0835H160.834V1.3335ZM164.834 1.3335V1.5835H165.834V1.3335V1.0835H164.834V1.3335ZM168.834 1.3335V1.5835H169.834V1.3335V1.0835H168.834V1.3335ZM172.834 1.3335V1.5835H173.834V1.3335V1.0835H172.834V1.3335ZM176.834 1.3335V1.5835H177.834V1.3335V1.0835H176.834V1.3335ZM180.834 1.3335V1.5835H181.834V1.3335V1.0835H180.834V1.3335ZM184.834 1.3335V1.5835H185.834V1.3335V1.0835H184.834V1.3335ZM188.834 1.3335V1.5835H189.834V1.3335V1.0835H188.834V1.3335ZM192.834 1.3335V1.5835H193.834V1.3335V1.0835H192.834V1.3335ZM196.834 1.3335V1.5835H197.834V1.3335V1.0835H196.834V1.3335ZM200.834 1.3335V1.5835H201.834V1.3335V1.0835H200.834V1.3335ZM204.834 1.3335V1.5835H205.834V1.3335V1.0835H204.834V1.3335ZM208.834 1.3335V1.5835H209.834V1.3335V1.0835H208.834V1.3335ZM212.834 1.3335V1.5835H213.834V1.3335V1.0835H212.834V1.3335ZM216.834 1.3335V1.5835H217.834V1.3335V1.0835H216.834V1.3335ZM220.834 1.3335V1.5835H221.334V1.3335V1.0835H220.834V1.3335Z" fill="url(#paint0_linear_1_1248)"/>
<defs>
<linearGradient id="paint0_linear_1_1248" x1="195.769" y1="1.24507" x2="195.765" y2="2.91074" gradientUnits="userSpaceOnUse">
<stop offset="1" stop-color="#B79F86"/>
</linearGradient>
</defs>
</svg>
