<svg width="711" height="6" viewBox="0 0 711 6" fill="none" xmlns="http://www.w3.org/2000/svg">
<path d="M710.333 2.66663C710.333 1.19387 709.14 -4.07696e-05 707.667 -4.07696e-05C706.194 -4.07696e-05 705 1.19387 705 2.66663C705 4.13939 706.194 5.33329 707.667 5.33329C709.14 5.33329 710.333 4.13939 710.333 2.66663ZM5.33344 2.66663C5.33344 1.19387 4.13953 -4.07696e-05 2.66675 -4.07696e-05C1.19397 -4.07696e-05 6.10352e-05 1.19387 6.10352e-05 2.66663C6.10352e-05 4.13939 1.19397 5.33329 2.66675 5.33329C4.13953 5.33329 5.33344 4.13939 5.33344 2.66663ZM706.665 2.16663C706.389 2.16663 706.165 2.39048 706.165 2.66663C706.165 2.94277 706.389 3.16663 706.665 3.16663V2.66663V2.16663ZM700.657 3.16663C700.933 3.16663 701.157 2.94277 701.157 2.66663C701.157 2.39048 700.933 2.16663 700.657 2.16663V2.66663V3.16663ZM698.654 2.16663C698.378 2.16663 698.154 2.39048 698.154 2.66663C698.154 2.94277 698.378 3.16663 698.654 3.16663V2.66663V2.16663ZM692.645 3.16663C692.922 3.16663 693.145 2.94277 693.145 2.66663C693.145 2.39048 692.922 2.16663 692.645 2.16663V2.66663V3.16663ZM690.643 2.16663C690.366 2.16663 690.143 2.39048 690.143 2.66663C690.143 2.94277 690.366 3.16663 690.643 3.16663V2.66663V2.16663ZM684.634 3.16663C684.91 3.16663 685.134 2.94277 685.134 2.66663C685.134 2.39048 684.91 2.16663 684.634 2.16663V2.66663V3.16663ZM682.631 2.16663C682.355 2.16663 682.131 2.39048 682.131 2.66663C682.131 2.94277 682.355 3.16663 682.631 3.16663V2.66663V2.16663ZM676.623 3.16663C676.899 3.16663 677.123 2.94277 677.123 2.66663C677.123 2.39048 676.899 2.16663 676.623 2.16663V2.66663V3.16663ZM674.62 2.16663C674.344 2.16663 674.12 2.39048 674.12 2.66663C674.12 2.94277 674.344 3.16663 674.62 3.16663V2.66663V2.16663ZM668.611 3.16663C668.887 3.16663 669.111 2.94277 669.111 2.66663C669.111 2.39048 668.887 2.16663 668.611 2.16663V2.66663V3.16663ZM666.609 2.16663C666.332 2.16663 666.109 2.39048 666.109 2.66663C666.109 2.94277 666.332 3.16663 666.609 3.16663V2.66663V2.16663ZM660.6 3.16663C660.876 3.16663 661.1 2.94277 661.1 2.66663C661.1 2.39048 660.876 2.16663 660.6 2.16663V2.66663V3.16663ZM658.597 2.16663C658.321 2.16663 658.097 2.39048 658.097 2.66663C658.097 2.94277 658.321 3.16663 658.597 3.16663V2.66663V2.16663ZM652.589 3.16663C652.865 3.16663 653.089 2.94277 653.089 2.66663C653.089 2.39048 652.865 2.16663 652.589 2.16663V2.66663V3.16663ZM650.586 2.16663C650.31 2.16663 650.086 2.39048 650.086 2.66663C650.086 2.94277 650.31 3.16663 650.586 3.16663V2.66663V2.16663ZM644.577 3.16663C644.853 3.16663 645.077 2.94277 645.077 2.66663C645.077 2.39048 644.853 2.16663 644.577 2.16663V2.66663V3.16663ZM642.574 2.16663C642.298 2.16663 642.074 2.39048 642.074 2.66663C642.074 2.94277 642.298 3.16663 642.574 3.16663V2.66663V2.16663ZM636.566 3.16663C636.842 3.16663 637.066 2.94277 637.066 2.66663C637.066 2.39048 636.842 2.16663 636.566 2.16663V2.66663V3.16663ZM634.563 2.16663C634.287 2.16663 634.063 2.39048 634.063 2.66663C634.063 2.94277 634.287 3.16663 634.563 3.16663V2.66663V2.16663ZM628.555 3.16663C628.831 3.16663 629.055 2.94277 629.055 2.66663C629.055 2.39048 628.831 2.16663 628.555 2.16663V2.66663V3.16663ZM626.552 2.16663C626.276 2.16663 626.052 2.39048 626.052 2.66663C626.052 2.94277 626.276 3.16663 626.552 3.16663V2.66663V2.16663ZM620.543 3.16663C620.819 3.16663 621.043 2.94277 621.043 2.66663C621.043 2.39048 620.819 2.16663 620.543 2.16663V2.66663V3.16663ZM618.54 2.16663C618.264 2.16663 618.04 2.39048 618.04 2.66663C618.04 2.94277 618.264 3.16663 618.54 3.16663V2.66663V2.16663ZM612.532 3.16663C612.808 3.16663 613.032 2.94277 613.032 2.66663C613.032 2.39048 612.808 2.16663 612.532 2.16663V2.66663V3.16663ZM610.529 2.16663C610.253 2.16663 610.029 2.39048 610.029 2.66663C610.029 2.94277 610.253 3.16663 610.529 3.16663V2.66663V2.16663ZM604.52 3.16663C604.797 3.16663 605.02 2.94277 605.02 2.66663C605.02 2.39048 604.797 2.16663 604.52 2.16663V2.66663V3.16663ZM602.518 2.16663C602.241 2.16663 602.018 2.39048 602.018 2.66663C602.018 2.94277 602.241 3.16663 602.518 3.16663V2.66663V2.16663ZM596.509 3.16663C596.785 3.16663 597.009 2.94277 597.009 2.66663C597.009 2.39048 596.785 2.16663 596.509 2.16663V2.66663V3.16663ZM594.506 2.16663C594.23 2.16663 594.006 2.39048 594.006 2.66663C594.006 2.94277 594.23 3.16663 594.506 3.16663V2.66663V2.16663ZM588.498 3.16663C588.774 3.16663 588.998 2.94277 588.998 2.66663C588.998 2.39048 588.774 2.16663 588.498 2.16663V2.66663V3.16663ZM586.495 2.16663C586.219 2.16663 585.995 2.39048 585.995 2.66663C585.995 2.94277 586.219 3.16663 586.495 3.16663V2.66663V2.16663ZM580.486 3.16663C580.763 3.16663 580.986 2.94277 580.986 2.66663C580.986 2.39048 580.763 2.16663 580.486 2.16663V2.66663V3.16663ZM578.484 2.16663C578.207 2.16663 577.984 2.39048 577.984 2.66663C577.984 2.94277 578.207 3.16663 578.484 3.16663V2.66663V2.16663ZM572.475 3.16663C572.751 3.16663 572.975 2.94277 572.975 2.66663C572.975 2.39048 572.751 2.16663 572.475 2.16663V2.66663V3.16663ZM570.472 2.16663C570.196 2.16663 569.972 2.39048 569.972 2.66663C569.972 2.94277 570.196 3.16663 570.472 3.16663V2.66663V2.16663ZM564.464 3.16663C564.74 3.16663 564.964 2.94277 564.964 2.66663C564.964 2.39048 564.74 2.16663 564.464 2.16663V2.66663V3.16663ZM562.461 2.16663C562.185 2.16663 561.961 2.39048 561.961 2.66663C561.961 2.94277 562.185 3.16663 562.461 3.16663V2.66663V2.16663ZM556.452 3.16663C556.728 3.16663 556.952 2.94277 556.952 2.66663C556.952 2.39048 556.728 2.16663 556.452 2.16663V2.66663V3.16663ZM554.449 2.16663C554.173 2.16663 553.949 2.39048 553.949 2.66663C553.949 2.94277 554.173 3.16663 554.449 3.16663V2.66663V2.16663ZM548.441 3.16663C548.717 3.16663 548.941 2.94277 548.941 2.66663C548.941 2.39048 548.717 2.16663 548.441 2.16663V2.66663V3.16663ZM546.438 2.16663C546.162 2.16663 545.938 2.39048 545.938 2.66663C545.938 2.94277 546.162 3.16663 546.438 3.16663V2.66663V2.16663ZM540.43 3.16663C540.706 3.16663 540.93 2.94277 540.93 2.66663C540.93 2.39048 540.706 2.16663 540.43 2.16663V2.66663V3.16663ZM538.427 2.16663C538.151 2.16663 537.927 2.39048 537.927 2.66663C537.927 2.94277 538.151 3.16663 538.427 3.16663V2.66663V2.16663ZM532.418 3.16663C532.694 3.16663 532.918 2.94277 532.918 2.66663C532.918 2.39048 532.694 2.16663 532.418 2.16663V2.66663V3.16663ZM530.415 2.16663C530.139 2.16663 529.915 2.39048 529.915 2.66663C529.915 2.94277 530.139 3.16663 530.415 3.16663V2.66663V2.16663ZM524.407 3.16663C524.683 3.16663 524.907 2.94277 524.907 2.66663C524.907 2.39048 524.683 2.16663 524.407 2.16663V2.66663V3.16663ZM522.404 2.16663C522.128 2.16663 521.904 2.39048 521.904 2.66663C521.904 2.94277 522.128 3.16663 522.404 3.16663V2.66663V2.16663ZM516.395 3.16663C516.672 3.16663 516.895 2.94277 516.895 2.66663C516.895 2.39048 516.672 2.16663 516.395 2.16663V2.66663V3.16663ZM514.393 2.16663C514.116 2.16663 513.893 2.39048 513.893 2.66663C513.893 2.94277 514.116 3.16663 514.393 3.16663V2.66663V2.16663ZM508.384 3.16663C508.66 3.16663 508.884 2.94277 508.884 2.66663C508.884 2.39048 508.66 2.16663 508.384 2.16663V2.66663V3.16663ZM506.381 2.16663C506.105 2.16663 505.881 2.39048 505.881 2.66663C505.881 2.94277 506.105 3.16663 506.381 3.16663V2.66663V2.16663ZM500.373 3.16663C500.649 3.16663 500.873 2.94277 500.873 2.66663C500.873 2.39048 500.649 2.16663 500.373 2.16663V2.66663V3.16663ZM498.37 2.16663C498.094 2.16663 497.87 2.39048 497.87 2.66663C497.87 2.94277 498.094 3.16663 498.37 3.16663V2.66663V2.16663ZM492.361 3.16663C492.637 3.16663 492.861 2.94277 492.861 2.66663C492.861 2.39048 492.637 2.16663 492.361 2.16663V2.66663V3.16663ZM490.359 2.16663C490.082 2.16663 489.859 2.39048 489.859 2.66663C489.859 2.94277 490.082 3.16663 490.359 3.16663V2.66663V2.16663ZM484.35 3.16663C484.626 3.16663 484.85 2.94277 484.85 2.66663C484.85 2.39048 484.626 2.16663 484.35 2.16663V2.66663V3.16663ZM482.347 2.16663C482.071 2.16663 481.847 2.39048 481.847 2.66663C481.847 2.94277 482.071 3.16663 482.347 3.16663V2.66663V2.16663ZM476.339 3.16663C476.615 3.16663 476.839 2.94277 476.839 2.66663C476.839 2.39048 476.615 2.16663 476.339 2.16663V2.66663V3.16663ZM474.336 2.16663C474.06 2.16663 473.836 2.39048 473.836 2.66663C473.836 2.94277 474.06 3.16663 474.336 3.16663V2.66663V2.16663ZM468.327 3.16663C468.603 3.16663 468.827 2.94277 468.827 2.66663C468.827 2.39048 468.603 2.16663 468.327 2.16663V2.66663V3.16663ZM466.324 2.16663C466.048 2.16663 465.824 2.39048 465.824 2.66663C465.824 2.94277 466.048 3.16663 466.324 3.16663V2.66663V2.16663ZM460.316 3.16663C460.592 3.16663 460.816 2.94277 460.816 2.66663C460.816 2.39048 460.592 2.16663 460.316 2.16663V2.66663V3.16663ZM458.313 2.16663C458.037 2.16663 457.813 2.39048 457.813 2.66663C457.813 2.94277 458.037 3.16663 458.313 3.16663V2.66663V2.16663ZM452.304 3.16663C452.581 3.16663 452.804 2.94277 452.804 2.66663C452.804 2.39048 452.581 2.16663 452.304 2.16663V2.66663V3.16663ZM450.302 2.16663C450.025 2.16663 449.802 2.39048 449.802 2.66663C449.802 2.94277 450.025 3.16663 450.302 3.16663V2.66663V2.16663ZM444.293 3.16663C444.569 3.16663 444.793 2.94277 444.793 2.66663C444.793 2.39048 444.569 2.16663 444.293 2.16663V2.66663V3.16663ZM442.29 2.16663C442.014 2.16663 441.79 2.39048 441.79 2.66663C441.79 2.94277 442.014 3.16663 442.29 3.16663V2.66663V2.16663ZM436.282 3.16663C436.558 3.16663 436.782 2.94277 436.782 2.66663C436.782 2.39048 436.558 2.16663 436.282 2.16663V2.66663V3.16663ZM434.279 2.16663C434.003 2.16663 433.779 2.39048 433.779 2.66663C433.779 2.94277 434.003 3.16663 434.279 3.16663V2.66663V2.16663ZM428.27 3.16663C428.547 3.16663 428.77 2.94277 428.77 2.66663C428.77 2.39048 428.547 2.16663 428.27 2.16663V2.66663V3.16663ZM426.268 2.16663C425.991 2.16663 425.768 2.39048 425.768 2.66663C425.768 2.94277 425.991 3.16663 426.268 3.16663V2.66663V2.16663ZM420.259 3.16663C420.535 3.16663 420.759 2.94277 420.759 2.66663C420.759 2.39048 420.535 2.16663 420.259 2.16663V2.66663V3.16663ZM418.256 2.16663C417.98 2.16663 417.756 2.39048 417.756 2.66663C417.756 2.94277 417.98 3.16663 418.256 3.16663V2.66663V2.16663ZM412.248 3.16663C412.524 3.16663 412.748 2.94277 412.748 2.66663C412.748 2.39048 412.524 2.16663 412.248 2.16663V2.66663V3.16663ZM410.245 2.16663C409.969 2.16663 409.745 2.39048 409.745 2.66663C409.745 2.94277 409.969 3.16663 410.245 3.16663V2.66663V2.16663ZM404.236 3.16663C404.513 3.16663 404.736 2.94277 404.736 2.66663C404.736 2.39048 404.513 2.16663 404.236 2.16663V2.66663V3.16663ZM402.234 2.16663C401.957 2.16663 401.734 2.39048 401.734 2.66663C401.734 2.94277 401.957 3.16663 402.234 3.16663V2.66663V2.16663ZM396.225 3.16663C396.501 3.16663 396.725 2.94277 396.725 2.66663C396.725 2.39048 396.501 2.16663 396.225 2.16663V2.66663V3.16663ZM394.222 2.16663C393.946 2.16663 393.722 2.39048 393.722 2.66663C393.722 2.94277 393.946 3.16663 394.222 3.16663V2.66663V2.16663ZM388.214 3.16663C388.49 3.16663 388.714 2.94277 388.714 2.66663C388.714 2.39048 388.49 2.16663 388.214 2.16663V2.66663V3.16663ZM386.211 2.16663C385.935 2.16663 385.711 2.39048 385.711 2.66663C385.711 2.94277 385.935 3.16663 386.211 3.16663V2.66663V2.16663ZM380.202 3.16663C380.478 3.16663 380.702 2.94277 380.702 2.66663C380.702 2.39048 380.478 2.16663 380.202 2.16663V2.66663V3.16663ZM378.199 2.16663C377.923 2.16663 377.699 2.39048 377.699 2.66663C377.699 2.94277 377.923 3.16663 378.199 3.16663V2.66663V2.16663ZM372.191 3.16663C372.467 3.16663 372.691 2.94277 372.691 2.66663C372.691 2.39048 372.467 2.16663 372.191 2.16663V2.66663V3.16663ZM370.188 2.16663C369.912 2.16663 369.688 2.39048 369.688 2.66663C369.688 2.94277 369.912 3.16663 370.188 3.16663V2.66663V2.16663ZM364.18 3.16663C364.456 3.16663 364.68 2.94277 364.68 2.66663C364.68 2.39048 364.456 2.16663 364.18 2.16663V2.66663V3.16663ZM362.177 2.16663C361.901 2.16663 361.677 2.39048 361.677 2.66663C361.677 2.94277 361.901 3.16663 362.177 3.16663V2.66663V2.16663ZM356.168 3.16663C356.444 3.16663 356.668 2.94277 356.668 2.66663C356.668 2.39048 356.444 2.16663 356.168 2.16663V2.66663V3.16663ZM354.165 2.16663C353.889 2.16663 353.665 2.39048 353.665 2.66663C353.665 2.94277 353.889 3.16663 354.165 3.16663V2.66663V2.16663ZM348.157 3.16663C348.433 3.16663 348.657 2.94277 348.657 2.66663C348.657 2.39048 348.433 2.16663 348.157 2.16663V2.66663V3.16663ZM346.154 2.16663C345.878 2.16663 345.654 2.39048 345.654 2.66663C345.654 2.94277 345.878 3.16663 346.154 3.16663V2.66663V2.16663ZM340.146 3.16663C340.422 3.16663 340.646 2.94277 340.646 2.66663C340.646 2.39048 340.422 2.16663 340.146 2.16663V2.66663V3.16663ZM338.143 2.16663C337.867 2.16663 337.643 2.39048 337.643 2.66663C337.643 2.94277 337.867 3.16663 338.143 3.16663V2.66663V2.16663ZM332.134 3.16663C332.41 3.16663 332.634 2.94277 332.634 2.66663C332.634 2.39048 332.41 2.16663 332.134 2.16663V2.66663V3.16663ZM330.131 2.16663C329.855 2.16663 329.631 2.39048 329.631 2.66663C329.631 2.94277 329.855 3.16663 330.131 3.16663V2.66663V2.16663ZM324.123 3.16663C324.399 3.16663 324.623 2.94277 324.623 2.66663C324.623 2.39048 324.399 2.16663 324.123 2.16663V2.66663V3.16663ZM322.12 2.16663C321.844 2.16663 321.62 2.39048 321.62 2.66663C321.62 2.94277 321.844 3.16663 322.12 3.16663V2.66663V2.16663ZM316.111 3.16663C316.388 3.16663 316.611 2.94277 316.611 2.66663C316.611 2.39048 316.388 2.16663 316.111 2.16663V2.66663V3.16663ZM314.109 2.16663C313.833 2.16663 313.609 2.39048 313.609 2.66663C313.609 2.94277 313.833 3.16663 314.109 3.16663V2.66663V2.16663ZM308.1 3.16663C308.376 3.16663 308.6 2.94277 308.6 2.66663C308.6 2.39048 308.376 2.16663 308.1 2.16663V2.66663V3.16663ZM306.097 2.16663C305.821 2.16663 305.597 2.39048 305.597 2.66663C305.597 2.94277 305.821 3.16663 306.097 3.16663V2.66663V2.16663ZM300.089 3.16663C300.365 3.16663 300.589 2.94277 300.589 2.66663C300.589 2.39048 300.365 2.16663 300.089 2.16663V2.66663V3.16663ZM298.086 2.16663C297.81 2.16663 297.586 2.39048 297.586 2.66663C297.586 2.94277 297.81 3.16663 298.086 3.16663V2.66663V2.16663ZM292.077 3.16663C292.354 3.16663 292.577 2.94277 292.577 2.66663C292.577 2.39048 292.354 2.16663 292.077 2.16663V2.66663V3.16663ZM290.075 2.16663C289.798 2.16663 289.575 2.39048 289.575 2.66663C289.575 2.94277 289.798 3.16663 290.075 3.16663V2.66663V2.16663ZM284.066 3.16663C284.342 3.16663 284.566 2.94277 284.566 2.66663C284.566 2.39048 284.342 2.16663 284.066 2.16663V2.66663V3.16663ZM282.063 2.16663C281.787 2.16663 281.563 2.39048 281.563 2.66663C281.563 2.94277 281.787 3.16663 282.063 3.16663V2.66663V2.16663ZM276.055 3.16663C276.331 3.16663 276.555 2.94277 276.555 2.66663C276.555 2.39048 276.331 2.16663 276.055 2.16663V2.66663V3.16663ZM274.052 2.16663C273.776 2.16663 273.552 2.39048 273.552 2.66663C273.552 2.94277 273.776 3.16663 274.052 3.16663V2.66663V2.16663ZM268.043 3.16663C268.32 3.16663 268.543 2.94277 268.543 2.66663C268.543 2.39048 268.32 2.16663 268.043 2.16663V2.66663V3.16663ZM266.041 2.16663C265.764 2.16663 265.541 2.39048 265.541 2.66663C265.541 2.94277 265.764 3.16663 266.041 3.16663V2.66663V2.16663ZM260.032 3.16663C260.308 3.16663 260.532 2.94277 260.532 2.66663C260.532 2.39048 260.308 2.16663 260.032 2.16663V2.66663V3.16663ZM258.029 2.16663C257.753 2.16663 257.529 2.39048 257.529 2.66663C257.529 2.94277 257.753 3.16663 258.029 3.16663V2.66663V2.16663ZM252.021 3.16663C252.297 3.16663 252.521 2.94277 252.521 2.66663C252.521 2.39048 252.297 2.16663 252.021 2.16663V2.66663V3.16663ZM250.018 2.16663C249.742 2.16663 249.518 2.39048 249.518 2.66663C249.518 2.94277 249.742 3.16663 250.018 3.16663V2.66663V2.16663ZM244.009 3.16663C244.285 3.16663 244.509 2.94277 244.509 2.66663C244.509 2.39048 244.285 2.16663 244.009 2.16663V2.66663V3.16663ZM242.007 2.16663C241.73 2.16663 241.507 2.39048 241.507 2.66663C241.507 2.94277 241.73 3.16663 242.007 3.16663V2.66663V2.16663ZM235.998 3.16663C236.274 3.16663 236.498 2.94277 236.498 2.66663C236.498 2.39048 236.274 2.16663 235.998 2.16663V2.66663V3.16663ZM233.995 2.16663C233.719 2.16663 233.495 2.39048 233.495 2.66663C233.495 2.94277 233.719 3.16663 233.995 3.16663V2.66663V2.16663ZM227.987 3.16663C228.263 3.16663 228.487 2.94277 228.487 2.66663C228.487 2.39048 228.263 2.16663 227.987 2.16663V2.66663V3.16663ZM225.984 2.16663C225.708 2.16663 225.484 2.39048 225.484 2.66663C225.484 2.94277 225.708 3.16663 225.984 3.16663V2.66663V2.16663ZM219.975 3.16663C220.251 3.16663 220.475 2.94277 220.475 2.66663C220.475 2.39048 220.251 2.16663 219.975 2.16663V2.66663V3.16663ZM217.972 2.16663C217.696 2.16663 217.472 2.39048 217.472 2.66663C217.472 2.94277 217.696 3.16663 217.972 3.16663V2.66663V2.16663ZM211.964 3.16663C212.24 3.16663 212.464 2.94277 212.464 2.66663C212.464 2.39048 212.24 2.16663 211.964 2.16663V2.66663V3.16663ZM209.961 2.16663C209.685 2.16663 209.461 2.39048 209.461 2.66663C209.461 2.94277 209.685 3.16663 209.961 3.16663V2.66663V2.16663ZM203.953 3.16663C204.229 3.16663 204.453 2.94277 204.453 2.66663C204.453 2.39048 204.229 2.16663 203.953 2.16663V2.66663V3.16663ZM201.95 2.16663C201.674 2.16663 201.45 2.39048 201.45 2.66663C201.45 2.94277 201.674 3.16663 201.95 3.16663V2.66663V2.16663ZM195.941 3.16663C196.217 3.16663 196.441 2.94277 196.441 2.66663C196.441 2.39048 196.217 2.16663 195.941 2.16663V2.66663V3.16663ZM193.938 2.16663C193.662 2.16663 193.438 2.39048 193.438 2.66663C193.438 2.94277 193.662 3.16663 193.938 3.16663V2.66663V2.16663ZM187.93 3.16663C188.206 3.16663 188.43 2.94277 188.43 2.66663C188.43 2.39048 188.206 2.16663 187.93 2.16663V2.66663V3.16663ZM185.927 2.16663C185.651 2.16663 185.427 2.39048 185.427 2.66663C185.427 2.94277 185.651 3.16663 185.927 3.16663V2.66663V2.16663ZM179.918 3.16663C180.195 3.16663 180.418 2.94277 180.418 2.66663C180.418 2.39048 180.195 2.16663 179.918 2.16663V2.66663V3.16663ZM177.916 2.16663C177.639 2.16663 177.416 2.39048 177.416 2.66663C177.416 2.94277 177.639 3.16663 177.916 3.16663V2.66663V2.16663ZM171.907 3.16663C172.183 3.16663 172.407 2.94277 172.407 2.66663C172.407 2.39048 172.183 2.16663 171.907 2.16663V2.66663V3.16663ZM169.904 2.16663C169.628 2.16663 169.404 2.39048 169.404 2.66663C169.404 2.94277 169.628 3.16663 169.904 3.16663V2.66663V2.16663ZM163.896 3.16663C164.172 3.16663 164.396 2.94277 164.396 2.66663C164.396 2.39048 164.172 2.16663 163.896 2.16663V2.66663V3.16663ZM161.893 2.16663C161.617 2.16663 161.393 2.39048 161.393 2.66663C161.393 2.94277 161.617 3.16663 161.893 3.16663V2.66663V2.16663ZM155.884 3.16663C156.16 3.16663 156.384 2.94277 156.384 2.66663C156.384 2.39048 156.16 2.16663 155.884 2.16663V2.66663V3.16663ZM153.881 2.16663C153.605 2.16663 153.381 2.39048 153.381 2.66663C153.381 2.94277 153.605 3.16663 153.881 3.16663V2.66663V2.16663ZM147.873 3.16663C148.149 3.16663 148.373 2.94277 148.373 2.66663C148.373 2.39048 148.149 2.16663 147.873 2.16663V2.66663V3.16663ZM145.87 2.16663C145.594 2.16663 145.37 2.39048 145.37 2.66663C145.37 2.94277 145.594 3.16663 145.87 3.16663V2.66663V2.16663ZM139.861 3.16663C140.138 3.16663 140.361 2.94277 140.361 2.66663C140.361 2.39048 140.138 2.16663 139.861 2.16663V2.66663V3.16663ZM137.858 2.16663C137.582 2.16663 137.358 2.39048 137.358 2.66663C137.358 2.94277 137.582 3.16663 137.858 3.16663V2.66663V2.16663ZM131.85 3.16663C132.126 3.16663 132.35 2.94277 132.35 2.66663C132.35 2.39048 132.126 2.16663 131.85 2.16663V2.66663V3.16663ZM129.847 2.16663C129.571 2.16663 129.347 2.39048 129.347 2.66663C129.347 2.94277 129.571 3.16663 129.847 3.16663V2.66663V2.16663ZM123.839 3.16663C124.115 3.16663 124.339 2.94277 124.339 2.66663C124.339 2.39048 124.115 2.16663 123.839 2.16663V2.66663V3.16663ZM121.836 2.16663C121.56 2.16663 121.336 2.39048 121.336 2.66663C121.336 2.94277 121.56 3.16663 121.836 3.16663V2.66663V2.16663ZM115.827 3.16663C116.103 3.16663 116.327 2.94277 116.327 2.66663C116.327 2.39048 116.103 2.16663 115.827 2.16663V2.66663V3.16663ZM113.824 2.16663C113.548 2.16663 113.324 2.39048 113.324 2.66663C113.324 2.94277 113.548 3.16663 113.824 3.16663V2.66663V2.16663ZM107.816 3.16663C108.092 3.16663 108.316 2.94277 108.316 2.66663C108.316 2.39048 108.092 2.16663 107.816 2.16663V2.66663V3.16663ZM105.813 2.16663C105.537 2.16663 105.313 2.39048 105.313 2.66663C105.313 2.94277 105.537 3.16663 105.813 3.16663V2.66663V2.16663ZM99.8043 3.16663C100.08 3.16663 100.304 2.94277 100.304 2.66663C100.304 2.39048 100.08 2.16663 99.8043 2.16663V2.66663V3.16663ZM97.8014 2.16663C97.5253 2.16663 97.3014 2.39048 97.3014 2.66663C97.3014 2.94277 97.5253 3.16663 97.8014 3.16663V2.66663V2.16663ZM91.7928 3.16663C92.069 3.16663 92.2928 2.94277 92.2928 2.66663C92.2928 2.39048 92.069 2.16663 91.7928 2.16663V2.66663V3.16663ZM89.79 2.16663C89.5139 2.16663 89.29 2.39048 89.29 2.66663C89.29 2.94277 89.5139 3.16663 89.79 3.16663V2.66663V2.16663ZM83.7814 3.16663C84.0576 3.16663 84.2814 2.94277 84.2814 2.66663C84.2814 2.39048 84.0576 2.16663 83.7814 2.16663V2.66663V3.16663ZM81.7786 2.16663C81.5024 2.16663 81.2786 2.39048 81.2786 2.66663C81.2786 2.94277 81.5024 3.16663 81.7786 3.16663V2.66663V2.16663ZM75.77 3.16663C76.0462 3.16663 76.27 2.94277 76.27 2.66663C76.27 2.39048 76.0462 2.16663 75.77 2.16663V2.66663V3.16663ZM73.7672 2.16663C73.491 2.16663 73.2672 2.39048 73.2672 2.66663C73.2672 2.94277 73.491 3.16663 73.7672 3.16663V2.66663V2.16663ZM67.7586 3.16663C68.0348 3.16663 68.2586 2.94277 68.2586 2.66663C68.2586 2.39048 68.0348 2.16663 67.7586 2.16663V2.66663V3.16663ZM65.7557 2.16663C65.4796 2.16663 65.2557 2.39048 65.2557 2.66663C65.2557 2.94277 65.4796 3.16663 65.7557 3.16663V2.66663V2.16663ZM59.7472 3.16663C60.0233 3.16663 60.2472 2.94277 60.2472 2.66663C60.2472 2.39048 60.0233 2.16663 59.7472 2.16663V2.66663V3.16663ZM57.7443 2.16663C57.4682 2.16663 57.2443 2.39048 57.2443 2.66663C57.2443 2.94277 57.4682 3.16663 57.7443 3.16663V2.66663V2.16663ZM51.7358 3.16663C52.012 3.16663 52.2358 2.94277 52.2358 2.66663C52.2358 2.39048 52.012 2.16663 51.7358 2.16663V2.66663V3.16663ZM49.7329 2.16663C49.4568 2.16663 49.2329 2.39048 49.2329 2.66663C49.2329 2.94277 49.4568 3.16663 49.7329 3.16663V2.66663V2.16663ZM43.7244 3.16663C44.0005 3.16663 44.2244 2.94277 44.2244 2.66663C44.2244 2.39048 44.0005 2.16663 43.7244 2.16663V2.66663V3.16663ZM41.7215 2.16663C41.4454 2.16663 41.2215 2.39048 41.2215 2.66663C41.2215 2.94277 41.4454 3.16663 41.7215 3.16663V2.66663V2.16663ZM35.713 3.16663C35.9891 3.16663 36.213 2.94277 36.213 2.66663C36.213 2.39048 35.9891 2.16663 35.713 2.16663V2.66663V3.16663ZM33.7101 2.16663C33.434 2.16663 33.2101 2.39048 33.2101 2.66663C33.2101 2.94277 33.434 3.16663 33.7101 3.16663V2.66663V2.16663ZM27.7015 3.16663C27.9777 3.16663 28.2015 2.94277 28.2015 2.66663C28.2015 2.39048 27.9777 2.16663 27.7015 2.16663V2.66663V3.16663ZM25.6987 2.16663C25.4225 2.16663 25.1987 2.39048 25.1987 2.66663C25.1987 2.94277 25.4225 3.16663 25.6987 3.16663V2.66663V2.16663ZM19.6901 3.16663C19.9662 3.16663 20.1901 2.94277 20.1901 2.66663C20.1901 2.39048 19.9662 2.16663 19.6901 2.16663V2.66663V3.16663ZM17.6873 2.16663C17.4111 2.16663 17.1873 2.39048 17.1873 2.66663C17.1873 2.94277 17.4111 3.16663 17.6873 3.16663V2.66663V2.16663ZM11.6787 3.16663C11.9549 3.16663 12.1787 2.94277 12.1787 2.66663C12.1787 2.39048 11.9549 2.16663 11.6787 2.16663V2.66663V3.16663ZM9.67584 2.16663C9.39972 2.16663 9.17584 2.39048 9.17584 2.66663C9.17584 2.94277 9.39972 3.16663 9.67584 3.16663V2.66663V2.16663ZM3.6673 3.16663C3.94348 3.16663 4.1673 2.94277 4.1673 2.66663C4.1673 2.39048 3.94348 2.16663 3.6673 2.16663V2.66663V3.16663ZM707.667 2.66663V2.16663H706.665V2.66663V3.16663H707.667V2.66663ZM700.657 2.66663V2.16663H698.654V2.66663V3.16663H700.657V2.66663ZM692.645 2.66663V2.16663L690.643 2.16663V2.66663V3.16663L692.645 3.16663V2.66663ZM684.634 2.66663V2.16663L682.631 2.16663V2.66663V3.16663L684.634 3.16663V2.66663ZM676.623 2.66663V2.16663L674.62 2.16663V2.66663V3.16663L676.623 3.16663V2.66663ZM668.611 2.66663V2.16663H666.609V2.66663V3.16663H668.611V2.66663ZM660.6 2.66663V2.16663L658.597 2.16663V2.66663V3.16663L660.6 3.16663V2.66663ZM652.589 2.66663V2.16663L650.586 2.16663V2.66663V3.16663L652.589 3.16663V2.66663ZM644.577 2.66663V2.16663L642.574 2.16663V2.66663V3.16663H644.577V2.66663ZM636.566 2.66663V2.16663H634.563V2.66663V3.16663H636.566V2.66663ZM628.555 2.66663V2.16663H626.552V2.66663V3.16663H628.555V2.66663ZM620.543 2.66663V2.16663L618.54 2.16663V2.66663V3.16663H620.543V2.66663ZM612.532 2.66663V2.16663L610.529 2.16663V2.66663V3.16663L612.532 3.16663V2.66663ZM604.52 2.66663V2.16663L602.518 2.16663V2.66663V3.16663L604.52 3.16663V2.66663ZM596.509 2.66663V2.16663H594.506V2.66663V3.16663H596.509V2.66663ZM588.498 2.66663V2.16663H586.495V2.66663V3.16663L588.498 3.16663V2.66663ZM580.486 2.66663V2.16663L578.484 2.16663V2.66663V3.16663L580.486 3.16663V2.66663ZM572.475 2.66663V2.16663L570.472 2.16663V2.66663V3.16663L572.475 3.16663V2.66663ZM564.464 2.66663V2.16663H562.461V2.66663V3.16663H564.464V2.66663ZM556.452 2.66663V2.16663H554.449V2.66663V3.16663H556.452V2.66663ZM548.441 2.66663V2.16663H546.438V2.66663V3.16663H548.441V2.66663ZM540.43 2.66663V2.16663L538.427 2.16663V2.66663V3.16663L540.43 3.16663V2.66663ZM532.418 2.66663V2.16663L530.415 2.16663V2.66663V3.16663L532.418 3.16663V2.66663ZM524.407 2.66663V2.16663L522.404 2.16663V2.66663V3.16663L524.407 3.16663V2.66663ZM516.395 2.66663V2.16663H514.393V2.66663V3.16663H516.395V2.66663ZM508.384 2.66663V2.16663L506.381 2.16663V2.66663V3.16663L508.384 3.16663V2.66663ZM500.373 2.66663V2.16663L498.37 2.16663V2.66663V3.16663L500.373 3.16663V2.66663ZM492.361 2.66663V2.16663L490.359 2.16663V2.66663V3.16663L492.361 3.16663V2.66663ZM484.35 2.66663V2.16663H482.347V2.66663V3.16663H484.35V2.66663ZM476.339 2.66663V2.16663H474.336V2.66663V3.16663H476.339V2.66663ZM468.327 2.66663V2.16663H466.324V2.66663V3.16663H468.327V2.66663ZM460.316 2.66663V2.16663L458.313 2.16663V2.66663V3.16663L460.316 3.16663V2.66663ZM452.304 2.66663V2.16663L450.302 2.16663V2.66663V3.16663L452.304 3.16663V2.66663ZM444.293 2.66663V2.16663H442.29V2.66663V3.16663H444.293V2.66663ZM436.282 2.66663V2.16663H434.279V2.66663V3.16663L436.282 3.16663V2.66663ZM428.27 2.66663V2.16663L426.268 2.16663V2.66663V3.16663L428.27 3.16663V2.66663ZM420.259 2.66663V2.16663L418.256 2.16663V2.66663V3.16663L420.259 3.16663V2.66663ZM412.248 2.66663V2.16663H410.245V2.66663V3.16663H412.248V2.66663ZM404.236 2.66663V2.16663H402.234V2.66663V3.16663H404.236V2.66663ZM396.225 2.66663V2.16663H394.222V2.66663V3.16663H396.225V2.66663ZM388.214 2.66663V2.16663L386.211 2.16663V2.66663V3.16663L388.214 3.16663V2.66663ZM380.202 2.66663V2.16663L378.199 2.16663V2.66663V3.16663L380.202 3.16663V2.66663ZM372.191 2.66663V2.16663L370.188 2.16663V2.66663V3.16663L372.191 3.16663V2.66663ZM364.18 2.66663V2.16663H362.177V2.66663V3.16663H364.18V2.66663ZM356.168 2.66663V2.16663L354.165 2.16663V2.66663V3.16663L356.168 3.16663V2.66663ZM348.157 2.66663V2.16663L346.154 2.16663V2.66663V3.16663L348.157 3.16663V2.66663ZM340.146 2.66663V2.16663L338.143 2.16663V2.66663V3.16663L340.146 3.16663V2.66663ZM332.134 2.66663V2.16663H330.131V2.66663V3.16663H332.134V2.66663ZM324.123 2.66663V2.16663H322.12V2.66663V3.16663H324.123V2.66663ZM316.111 2.66663V2.16663H314.109V2.66663V3.16663H316.111V2.66663ZM308.1 2.66663V2.16663L306.097 2.16663V2.66663V3.16663L308.1 3.16663V2.66663ZM300.089 2.66663V2.16663L298.086 2.16663V2.66663V3.16663L300.089 3.16663V2.66663ZM292.077 2.66663V2.16663H290.075V2.66663V3.16663L292.077 3.16663V2.66663ZM284.066 2.66663V2.16663H282.063V2.66663V3.16663H284.066V2.66663ZM276.055 2.66663V2.16663L274.052 2.16663V2.66663V3.16663L276.055 3.16663V2.66663ZM268.043 2.66663V2.16663L266.041 2.16663V2.66663V3.16663L268.043 3.16663V2.66663ZM260.032 2.66663V2.16663H258.029V2.66663V3.16663H260.032V2.66663ZM252.021 2.66663V2.16663H250.018V2.66663V3.16663H252.021V2.66663ZM244.009 2.66663V2.16663H242.007V2.66663V3.16663H244.009V2.66663ZM235.998 2.66663V2.16663L233.995 2.16663V2.66663V3.16663H235.998V2.66663ZM227.987 2.66663V2.16663L225.984 2.16663V2.66663V3.16663L227.987 3.16663V2.66663ZM219.975 2.66663V2.16663L217.972 2.16663V2.66663V3.16663L219.975 3.16663V2.66663ZM211.964 2.66663V2.16663H209.961V2.66663V3.16663H211.964V2.66663ZM203.953 2.66663V2.16663L201.95 2.16663V2.66663V3.16663L203.953 3.16663V2.66663ZM195.941 2.66663V2.16663L193.938 2.16663V2.66663V3.16663L195.941 3.16663V2.66663ZM187.93 2.66663V2.16663L185.927 2.16663V2.66663V3.16663L187.93 3.16663V2.66663ZM179.918 2.66663V2.16663H177.916V2.66663V3.16663H179.918V2.66663ZM171.907 2.66663V2.16663H169.904V2.66663V3.16663H171.907V2.66663ZM163.896 2.66663V2.16663H161.893V2.66663V3.16663H163.896V2.66663ZM155.884 2.66663V2.16663L153.881 2.16663V2.66663V3.16663L155.884 3.16663V2.66663ZM147.873 2.66663V2.16663L145.87 2.16663V2.66663V3.16663L147.873 3.16663V2.66663ZM139.861 2.66663V2.16663H137.858V2.66663V3.16663L139.861 3.16663V2.66663ZM131.85 2.66663V2.16663H129.847V2.66663V3.16663H131.85V2.66663ZM123.839 2.66663V2.16663L121.836 2.16663V2.66663V3.16663L123.839 3.16663V2.66663ZM115.827 2.66663V2.16663L113.824 2.16663V2.66663V3.16663L115.827 3.16663V2.66663ZM107.816 2.66663V2.16663L105.813 2.16663V2.66663V3.16663H107.816V2.66663ZM99.8043 2.66663V2.16663H97.8014V2.66663V3.16663H99.8043V2.66663ZM91.7928 2.66663V2.16663H89.79V2.66663V3.16663H91.7928V2.66663ZM83.7814 2.66663V2.16663L81.7786 2.16663V2.66663V3.16663H83.7814V2.66663ZM75.77 2.66663V2.16663L73.7672 2.16663V2.66663V3.16663L75.77 3.16663V2.66663ZM67.7586 2.66663V2.16663L65.7557 2.16663V2.66663V3.16663L67.7586 3.16663V2.66663ZM59.7472 2.66663V2.16663H57.7443V2.66663V3.16663H59.7472V2.66663ZM51.7358 2.66663V2.16663H49.7329V2.66663V3.16663L51.7358 3.16663V2.66663ZM43.7244 2.66663V2.16663L41.7215 2.16663V2.66663V3.16663L43.7244 3.16663V2.66663ZM35.713 2.66663V2.16663L33.7101 2.16663V2.66663V3.16663L35.713 3.16663V2.66663ZM27.7015 2.66663V2.16663H25.6987V2.66663V3.16663H27.7015V2.66663ZM19.6901 2.66663V2.16663H17.6873V2.66663V3.16663H19.6901V2.66663ZM11.6787 2.66663V2.16663H9.67584V2.66663V3.16663H11.6787V2.66663ZM3.6673 2.66663V2.16663H2.66675V2.66663V3.16663H3.6673V2.66663Z" fill="url(#paint0_linear_152_1195)"/>
<defs>
<linearGradient id="paint0_linear_152_1195" x1="84.5903" y1="2.75505" x2="84.5918" y2="1.08937" gradientUnits="userSpaceOnUse">
<stop offset="1" stop-color="#B79F86"/>
</linearGradient>
</defs>
</svg>
