<svg width="6" height="121" viewBox="0 0 6 121" fill="none" xmlns="http://www.w3.org/2000/svg">
<path d="M2.66669 120.333C4.13945 120.333 5.33335 119.139 5.33335 117.667C5.33335 116.194 4.13945 115 2.66669 115C1.19393 115 2.033e-05 116.194 2.02656e-05 117.667C2.02012e-05 119.139 1.19393 120.333 2.66669 120.333ZM2.66669 5.33317C4.13945 5.33317 5.33336 4.13926 5.33336 2.6665C5.33336 1.19374 4.13945 -0.000167782 2.66669 -0.000167847C1.19393 -0.000167911 2.53568e-05 1.19374 2.52924e-05 2.6665C2.5228e-05 4.13926 1.19393 5.33317 2.66669 5.33317ZM3.16669 116.64C3.16669 116.364 2.94283 116.14 2.66669 116.14C2.39054 116.14 2.16669 116.364 2.16669 116.64L2.66669 116.64L3.16669 116.64ZM2.16669 110.479C2.16669 110.755 2.39054 110.979 2.66669 110.979C2.94283 110.979 3.16669 110.755 3.16669 110.479L2.66669 110.479L2.16669 110.479ZM3.16669 108.425C3.16669 108.149 2.94283 107.925 2.66669 107.925C2.39055 107.925 2.16669 108.149 2.16669 108.425L2.66669 108.425L3.16669 108.425ZM2.16669 102.265C2.16669 102.541 2.39055 102.765 2.66669 102.765C2.94283 102.765 3.16669 102.541 3.16669 102.265L2.66669 102.265L2.16669 102.265ZM3.16669 100.211C3.16669 99.935 2.94283 99.7111 2.66669 99.7111C2.39055 99.7111 2.16669 99.935 2.16669 100.211L2.66669 100.211L3.16669 100.211ZM2.16669 94.0504C2.16669 94.3266 2.39055 94.5504 2.66669 94.5504C2.94283 94.5504 3.16669 94.3266 3.16669 94.0504L2.66669 94.0504L2.16669 94.0504ZM3.16669 91.9969C3.16669 91.7207 2.94283 91.4969 2.66669 91.4969C2.39055 91.4969 2.16669 91.7207 2.16669 91.9969L2.66669 91.9969L3.16669 91.9969ZM2.16669 85.8361C2.16669 86.1123 2.39055 86.3361 2.66669 86.3361C2.94283 86.3361 3.16669 86.1123 3.16669 85.8361L2.66669 85.8361L2.16669 85.8361ZM3.16669 83.7826C3.16669 83.5064 2.94283 83.2826 2.66669 83.2826C2.39055 83.2826 2.16669 83.5064 2.16669 83.7826L2.66669 83.7826L3.16669 83.7826ZM2.16669 77.6219C2.16669 77.898 2.39055 78.1219 2.66669 78.1219C2.94283 78.1219 3.16669 77.898 3.16669 77.6219L2.66669 77.6219L2.16669 77.6219ZM3.16669 75.5683C3.16669 75.2922 2.94283 75.0683 2.66669 75.0683C2.39055 75.0683 2.16669 75.2922 2.16669 75.5683L2.66669 75.5683L3.16669 75.5683ZM2.16669 69.4076C2.16669 69.6837 2.39055 69.9076 2.66669 69.9076C2.94283 69.9076 3.16669 69.6837 3.16669 69.4076L2.66669 69.4076L2.16669 69.4076ZM3.16669 67.354C3.16669 67.0779 2.94283 66.854 2.66669 66.854C2.39055 66.854 2.16669 67.0779 2.16669 67.354L2.66669 67.354L3.16669 67.354ZM2.16669 61.1933C2.16669 61.4694 2.39055 61.6933 2.66669 61.6933C2.94283 61.6933 3.16669 61.4694 3.16669 61.1933L2.66669 61.1933L2.16669 61.1933ZM3.16669 59.1397C3.16669 58.8636 2.94283 58.6397 2.66669 58.6397C2.39055 58.6397 2.16669 58.8636 2.16669 59.1397L2.66669 59.1397L3.16669 59.1397ZM2.16669 52.979C2.16669 53.2551 2.39055 53.479 2.66669 53.479C2.94283 53.479 3.16669 53.2551 3.16669 52.979L2.66669 52.979L2.16669 52.979ZM3.16669 50.9254C3.16669 50.6493 2.94283 50.4254 2.66669 50.4254C2.39055 50.4254 2.16669 50.6493 2.16669 50.9254L2.66669 50.9254L3.16669 50.9254ZM2.16669 44.7647C2.16669 45.0409 2.39055 45.2647 2.66669 45.2647C2.94283 45.2647 3.16669 45.0409 3.16669 44.7647L2.66669 44.7647L2.16669 44.7647ZM3.16669 42.7112C3.16669 42.435 2.94283 42.2112 2.66669 42.2112C2.39055 42.2112 2.16669 42.435 2.16669 42.7112L2.66669 42.7112L3.16669 42.7112ZM2.16669 36.5504C2.16669 36.8266 2.39055 37.0504 2.66669 37.0504C2.94283 37.0504 3.16669 36.8266 3.16669 36.5504L2.66669 36.5504L2.16669 36.5504ZM3.16669 34.4969C3.16669 34.2207 2.94283 33.9969 2.66669 33.9969C2.39055 33.9969 2.16669 34.2207 2.16669 34.4969L2.66669 34.4969L3.16669 34.4969ZM2.16669 28.3362C2.16669 28.6123 2.39055 28.8362 2.66669 28.8362C2.94283 28.8362 3.16669 28.6123 3.16669 28.3362L2.66669 28.3362L2.16669 28.3362ZM3.16669 26.2826C3.16669 26.0064 2.94283 25.7826 2.66669 25.7826C2.39055 25.7826 2.16669 26.0064 2.16669 26.2826L2.66669 26.2826L3.16669 26.2826ZM2.16669 20.1219C2.16669 20.398 2.39055 20.6219 2.66669 20.6219C2.94283 20.6219 3.16669 20.398 3.16669 20.1219L2.66669 20.1219L2.16669 20.1219ZM3.16669 18.0683C3.16669 17.7921 2.94283 17.5683 2.66669 17.5683C2.39055 17.5683 2.16669 17.7921 2.16669 18.0683L2.66669 18.0683L3.16669 18.0683ZM2.16669 11.9076C2.16669 12.1837 2.39055 12.4076 2.66669 12.4076C2.94283 12.4076 3.16669 12.1837 3.16669 11.9076L2.66669 11.9076L2.16669 11.9076ZM3.16669 9.854C3.16669 9.57786 2.94283 9.354 2.66669 9.354C2.39055 9.354 2.16669 9.57786 2.16669 9.854L2.66669 9.854L3.16669 9.854ZM2.16669 3.69329C2.16669 3.96943 2.39055 4.19329 2.66669 4.19329C2.94283 4.19329 3.16669 3.96943 3.16669 3.69329L2.66669 3.69329L2.16669 3.69329ZM2.66669 117.667L3.16669 117.667L3.16669 116.64L2.66669 116.64L2.16669 116.64L2.16669 117.667L2.66669 117.667ZM2.66669 110.479L3.16669 110.479L3.16669 108.425L2.66669 108.425L2.16669 108.425L2.16669 110.479L2.66669 110.479ZM2.66669 102.265L3.16669 102.265L3.16669 100.211L2.66669 100.211L2.16669 100.211L2.16669 102.265L2.66669 102.265ZM2.66669 94.0504L3.16669 94.0504L3.16669 91.9969L2.66669 91.9969L2.16669 91.9969L2.16669 94.0504L2.66669 94.0504ZM2.66669 85.8361L3.16669 85.8361L3.16669 83.7826L2.66669 83.7826L2.16669 83.7826L2.16669 85.8361L2.66669 85.8361ZM2.66669 77.6219L3.16669 77.6219L3.16669 75.5683L2.66669 75.5683L2.16669 75.5683L2.16669 77.6219L2.66669 77.6219ZM2.66669 69.4076L3.16669 69.4076L3.16669 67.354L2.66669 67.354L2.16669 67.354L2.16669 69.4076L2.66669 69.4076ZM2.66669 61.1933L3.16669 61.1933L3.16669 59.1397L2.66669 59.1397L2.16669 59.1397L2.16669 61.1933L2.66669 61.1933ZM2.66669 52.979L3.16669 52.979L3.16669 50.9254L2.66669 50.9254L2.16669 50.9254L2.16669 52.979L2.66669 52.979ZM2.66669 44.7647L3.16669 44.7647L3.16669 42.7112L2.66669 42.7112L2.16669 42.7112L2.16669 44.7647L2.66669 44.7647ZM2.66669 36.5504L3.16669 36.5504L3.16669 34.4969L2.66669 34.4969L2.16669 34.4969L2.16669 36.5504L2.66669 36.5504ZM2.66669 28.3362L3.16669 28.3362L3.16669 26.2826L2.66669 26.2826L2.16669 26.2826L2.16669 28.3362L2.66669 28.3362ZM2.66669 20.1219L3.16669 20.1219L3.16669 18.0683L2.66669 18.0683L2.16669 18.0683L2.16669 20.1219L2.66669 20.1219ZM2.66669 11.9076L3.16669 11.9076L3.16669 9.854L2.66669 9.854L2.16669 9.854L2.16669 11.9076L2.66669 11.9076ZM2.66669 3.69329L3.16669 3.69329L3.16669 2.6665L2.66669 2.6665L2.16669 2.6665L2.16669 3.69329L2.66669 3.69329Z" fill="url(#paint0_linear_1_581)"/>
<defs>
<linearGradient id="paint0_linear_1_581" x1="2.57827" y1="16.0299" x2="4.2439" y2="16.0388" gradientUnits="userSpaceOnUse">
<stop offset="1" stop-color="#B79F86"/>
</linearGradient>
</defs>
</svg>
