<svg width="1136" height="6" viewBox="0 0 1136 6" fill="none" xmlns="http://www.w3.org/2000/svg">
<path d="M570.333 2.6665C570.333 1.19374 569.14 -0.00016284 567.667 -0.00016284C566.194 -0.00016284 565 1.19374 565 2.6665C565 4.13926 566.194 5.33317 567.667 5.33317C569.14 5.33317 570.333 4.13926 570.333 2.6665ZM5.33344 2.6665C5.33344 1.19374 4.13953 -0.00016284 2.66675 -0.00016284C1.19397 -0.00016284 6.10352e-05 1.19374 6.10352e-05 2.6665C6.10352e-05 4.13926 1.19397 5.33317 2.66675 5.33317C4.13953 5.33317 5.33344 4.13926 5.33344 2.6665ZM566.672 2.1665C566.396 2.1665 566.172 2.39036 566.172 2.6665C566.172 2.94265 566.396 3.1665 566.672 3.1665V2.6665V2.1665ZM560.704 3.1665C560.98 3.1665 561.204 2.94265 561.204 2.6665C561.204 2.39036 560.98 2.1665 560.704 2.1665V2.6665V3.1665ZM558.714 2.1665C558.438 2.1665 558.214 2.39036 558.214 2.6665C558.214 2.94265 558.438 3.1665 558.714 3.1665V2.6665V2.1665ZM552.746 3.1665C553.022 3.1665 553.246 2.94265 553.246 2.6665C553.246 2.39036 553.022 2.1665 552.746 2.1665V2.6665V3.1665ZM550.757 2.1665C550.48 2.1665 550.257 2.39036 550.257 2.6665C550.257 2.94265 550.48 3.1665 550.757 3.1665V2.6665V2.1665ZM544.788 3.1665C545.064 3.1665 545.288 2.94265 545.288 2.6665C545.288 2.39036 545.064 2.1665 544.788 2.1665V2.6665V3.1665ZM542.799 2.1665C542.523 2.1665 542.299 2.39036 542.299 2.6665C542.299 2.94265 542.523 3.1665 542.799 3.1665V2.6665V2.1665ZM536.83 3.1665C537.107 3.1665 537.33 2.94265 537.33 2.6665C537.33 2.39036 537.107 2.1665 536.83 2.1665V2.6665V3.1665ZM534.841 2.1665C534.565 2.1665 534.341 2.39036 534.341 2.6665C534.341 2.94265 534.565 3.1665 534.841 3.1665V2.6665V2.1665ZM528.873 3.1665C529.149 3.1665 529.373 2.94265 529.373 2.6665C529.373 2.39036 529.149 2.1665 528.873 2.1665V2.6665V3.1665ZM526.883 2.1665C526.607 2.1665 526.383 2.39036 526.383 2.6665C526.383 2.94265 526.607 3.1665 526.883 3.1665V2.6665V2.1665ZM520.915 3.1665C521.191 3.1665 521.415 2.94265 521.415 2.6665C521.415 2.39036 521.191 2.1665 520.915 2.1665V2.6665V3.1665ZM518.926 2.1665C518.649 2.1665 518.426 2.39036 518.426 2.6665C518.426 2.94265 518.649 3.1665 518.926 3.1665V2.6665V2.1665ZM512.957 3.1665C513.233 3.1665 513.457 2.94265 513.457 2.6665C513.457 2.39036 513.233 2.1665 512.957 2.1665V2.6665V3.1665ZM510.968 2.1665C510.692 2.1665 510.468 2.39036 510.468 2.6665C510.468 2.94265 510.692 3.1665 510.968 3.1665V2.6665V2.1665ZM504.999 3.1665C505.276 3.1665 505.499 2.94265 505.499 2.6665C505.499 2.39036 505.276 2.1665 504.999 2.1665V2.6665V3.1665ZM503.01 2.1665C502.734 2.1665 502.51 2.39036 502.51 2.6665C502.51 2.94265 502.734 3.1665 503.01 3.1665V2.6665V2.1665ZM497.042 3.1665C497.318 3.1665 497.542 2.94265 497.542 2.6665C497.542 2.39036 497.318 2.1665 497.042 2.1665V2.6665V3.1665ZM495.052 2.1665C494.776 2.1665 494.552 2.39036 494.552 2.6665C494.552 2.94265 494.776 3.1665 495.052 3.1665V2.6665V2.1665ZM489.084 3.1665C489.36 3.1665 489.584 2.94265 489.584 2.6665C489.584 2.39036 489.36 2.1665 489.084 2.1665V2.6665V3.1665ZM487.095 2.1665C486.818 2.1665 486.595 2.39036 486.595 2.6665C486.595 2.94265 486.818 3.1665 487.095 3.1665V2.6665V2.1665ZM481.126 3.1665C481.402 3.1665 481.626 2.94265 481.626 2.6665C481.626 2.39036 481.402 2.1665 481.126 2.1665V2.6665V3.1665ZM479.137 2.1665C478.861 2.1665 478.637 2.39036 478.637 2.6665C478.637 2.94265 478.861 3.1665 479.137 3.1665V2.6665V2.1665ZM473.169 3.1665C473.445 3.1665 473.669 2.94265 473.669 2.6665C473.669 2.39036 473.445 2.1665 473.169 2.1665V2.6665V3.1665ZM471.179 2.1665C470.903 2.1665 470.679 2.39036 470.679 2.6665C470.679 2.94265 470.903 3.1665 471.179 3.1665V2.6665V2.1665ZM465.211 3.1665C465.487 3.1665 465.711 2.94265 465.711 2.6665C465.711 2.39036 465.487 2.1665 465.211 2.1665V2.6665V3.1665ZM463.221 2.1665C462.945 2.1665 462.721 2.39036 462.721 2.6665C462.721 2.94265 462.945 3.1665 463.221 3.1665V2.6665V2.1665ZM457.253 3.1665C457.529 3.1665 457.753 2.94265 457.753 2.6665C457.753 2.39036 457.529 2.1665 457.253 2.1665V2.6665V3.1665ZM455.264 2.1665C454.987 2.1665 454.764 2.39036 454.764 2.6665C454.764 2.94265 454.987 3.1665 455.264 3.1665V2.6665V2.1665ZM449.295 3.1665C449.571 3.1665 449.795 2.94265 449.795 2.6665C449.795 2.39036 449.571 2.1665 449.295 2.1665V2.6665V3.1665ZM447.306 2.1665C447.03 2.1665 446.806 2.39036 446.806 2.6665C446.806 2.94265 447.03 3.1665 447.306 3.1665V2.6665V2.1665ZM441.338 3.1665C441.614 3.1665 441.838 2.94265 441.838 2.6665C441.838 2.39036 441.614 2.1665 441.338 2.1665V2.6665V3.1665ZM439.348 2.1665C439.072 2.1665 438.848 2.39036 438.848 2.6665C438.848 2.94265 439.072 3.1665 439.348 3.1665V2.6665V2.1665ZM433.38 3.1665C433.656 3.1665 433.88 2.94265 433.88 2.6665C433.88 2.39036 433.656 2.1665 433.38 2.1665V2.6665V3.1665ZM431.39 2.1665C431.114 2.1665 430.89 2.39036 430.89 2.6665C430.89 2.94265 431.114 3.1665 431.39 3.1665V2.6665V2.1665ZM425.422 3.1665C425.698 3.1665 425.922 2.94265 425.922 2.6665C425.922 2.39036 425.698 2.1665 425.422 2.1665V2.6665V3.1665ZM423.433 2.1665C423.156 2.1665 422.933 2.39036 422.933 2.6665C422.933 2.94265 423.156 3.1665 423.433 3.1665V2.6665V2.1665ZM417.464 3.1665C417.74 3.1665 417.964 2.94265 417.964 2.6665C417.964 2.39036 417.74 2.1665 417.464 2.1665V2.6665V3.1665ZM415.475 2.1665C415.199 2.1665 414.975 2.39036 414.975 2.6665C414.975 2.94265 415.199 3.1665 415.475 3.1665V2.6665V2.1665ZM409.507 3.1665C409.783 3.1665 410.007 2.94265 410.007 2.6665C410.007 2.39036 409.783 2.1665 409.507 2.1665V2.6665V3.1665ZM407.517 2.1665C407.241 2.1665 407.017 2.39036 407.017 2.6665C407.017 2.94265 407.241 3.1665 407.517 3.1665V2.6665V2.1665ZM401.549 3.1665C401.825 3.1665 402.049 2.94265 402.049 2.6665C402.049 2.39036 401.825 2.1665 401.549 2.1665V2.6665V3.1665ZM399.559 2.1665C399.283 2.1665 399.059 2.39036 399.059 2.6665C399.059 2.94265 399.283 3.1665 399.559 3.1665V2.6665V2.1665ZM393.591 3.1665C393.867 3.1665 394.091 2.94265 394.091 2.6665C394.091 2.39036 393.867 2.1665 393.591 2.1665V2.6665V3.1665ZM391.602 2.1665C391.325 2.1665 391.102 2.39036 391.102 2.6665C391.102 2.94265 391.325 3.1665 391.602 3.1665V2.6665V2.1665ZM385.633 3.1665C385.909 3.1665 386.133 2.94265 386.133 2.6665C386.133 2.39036 385.909 2.1665 385.633 2.1665V2.6665V3.1665ZM383.644 2.1665C383.368 2.1665 383.144 2.39036 383.144 2.6665C383.144 2.94265 383.368 3.1665 383.644 3.1665V2.6665V2.1665ZM377.676 3.1665C377.952 3.1665 378.176 2.94265 378.176 2.6665C378.176 2.39036 377.952 2.1665 377.676 2.1665V2.6665V3.1665ZM375.686 2.1665C375.41 2.1665 375.186 2.39036 375.186 2.6665C375.186 2.94265 375.41 3.1665 375.686 3.1665V2.6665V2.1665ZM369.718 3.1665C369.994 3.1665 370.218 2.94265 370.218 2.6665C370.218 2.39036 369.994 2.1665 369.718 2.1665V2.6665V3.1665ZM367.728 2.1665C367.452 2.1665 367.228 2.39036 367.228 2.6665C367.228 2.94265 367.452 3.1665 367.728 3.1665V2.6665V2.1665ZM361.76 3.1665C362.036 3.1665 362.26 2.94265 362.26 2.6665C362.26 2.39036 362.036 2.1665 361.76 2.1665V2.6665V3.1665ZM359.771 2.1665C359.494 2.1665 359.271 2.39036 359.271 2.6665C359.271 2.94265 359.494 3.1665 359.771 3.1665V2.6665V2.1665ZM353.802 3.1665C354.078 3.1665 354.302 2.94265 354.302 2.6665C354.302 2.39036 354.078 2.1665 353.802 2.1665V2.6665V3.1665ZM351.813 2.1665C351.537 2.1665 351.313 2.39036 351.313 2.6665C351.313 2.94265 351.537 3.1665 351.813 3.1665V2.6665V2.1665ZM345.845 3.1665C346.121 3.1665 346.345 2.94265 346.345 2.6665C346.345 2.39036 346.121 2.1665 345.845 2.1665V2.6665V3.1665ZM343.855 2.1665C343.579 2.1665 343.355 2.39036 343.355 2.6665C343.355 2.94265 343.579 3.1665 343.855 3.1665V2.6665V2.1665ZM337.887 3.1665C338.163 3.1665 338.387 2.94265 338.387 2.6665C338.387 2.39036 338.163 2.1665 337.887 2.1665V2.6665V3.1665ZM335.897 2.1665C335.621 2.1665 335.397 2.39036 335.397 2.6665C335.397 2.94265 335.621 3.1665 335.897 3.1665V2.6665V2.1665ZM329.929 3.1665C330.205 3.1665 330.429 2.94265 330.429 2.6665C330.429 2.39036 330.205 2.1665 329.929 2.1665V2.6665V3.1665ZM327.94 2.1665C327.663 2.1665 327.44 2.39036 327.44 2.6665C327.44 2.94265 327.663 3.1665 327.94 3.1665V2.6665V2.1665ZM321.971 3.1665C322.247 3.1665 322.471 2.94265 322.471 2.6665C322.471 2.39036 322.247 2.1665 321.971 2.1665V2.6665V3.1665ZM319.982 2.1665C319.706 2.1665 319.482 2.39036 319.482 2.6665C319.482 2.94265 319.706 3.1665 319.982 3.1665V2.6665V2.1665ZM314.014 3.1665C314.29 3.1665 314.514 2.94265 314.514 2.6665C314.514 2.39036 314.29 2.1665 314.014 2.1665V2.6665V3.1665ZM312.024 2.1665C311.748 2.1665 311.524 2.39036 311.524 2.6665C311.524 2.94265 311.748 3.1665 312.024 3.1665V2.6665V2.1665ZM306.056 3.1665C306.332 3.1665 306.556 2.94265 306.556 2.6665C306.556 2.39036 306.332 2.1665 306.056 2.1665V2.6665V3.1665ZM304.066 2.1665C303.79 2.1665 303.566 2.39036 303.566 2.6665C303.566 2.94265 303.79 3.1665 304.066 3.1665V2.6665V2.1665ZM298.098 3.1665C298.374 3.1665 298.598 2.94265 298.598 2.6665C298.598 2.39036 298.374 2.1665 298.098 2.1665V2.6665V3.1665ZM296.109 2.1665C295.832 2.1665 295.609 2.39036 295.609 2.6665C295.609 2.94265 295.832 3.1665 296.109 3.1665V2.6665V2.1665ZM290.14 3.1665C290.416 3.1665 290.64 2.94265 290.64 2.6665C290.64 2.39036 290.416 2.1665 290.14 2.1665V2.6665V3.1665ZM288.151 2.1665C287.875 2.1665 287.651 2.39036 287.651 2.6665C287.651 2.94265 287.875 3.1665 288.151 3.1665V2.6665V2.1665ZM282.183 3.1665C282.459 3.1665 282.683 2.94265 282.683 2.6665C282.683 2.39036 282.459 2.1665 282.183 2.1665V2.6665V3.1665ZM280.193 2.1665C279.917 2.1665 279.693 2.39036 279.693 2.6665C279.693 2.94265 279.917 3.1665 280.193 3.1665V2.6665V2.1665ZM274.225 3.1665C274.501 3.1665 274.725 2.94265 274.725 2.6665C274.725 2.39036 274.501 2.1665 274.225 2.1665V2.6665V3.1665ZM272.235 2.1665C271.959 2.1665 271.735 2.39036 271.735 2.6665C271.735 2.94265 271.959 3.1665 272.235 3.1665V2.6665V2.1665ZM266.267 3.1665C266.543 3.1665 266.767 2.94265 266.767 2.6665C266.767 2.39036 266.543 2.1665 266.267 2.1665V2.6665V3.1665ZM264.278 2.1665C264.001 2.1665 263.778 2.39036 263.778 2.6665C263.778 2.94265 264.001 3.1665 264.278 3.1665V2.6665V2.1665ZM258.309 3.1665C258.585 3.1665 258.809 2.94265 258.809 2.6665C258.809 2.39036 258.585 2.1665 258.309 2.1665V2.6665V3.1665ZM256.32 2.1665C256.044 2.1665 255.82 2.39036 255.82 2.6665C255.82 2.94265 256.044 3.1665 256.32 3.1665V2.6665V2.1665ZM250.352 3.1665C250.628 3.1665 250.852 2.94265 250.852 2.6665C250.852 2.39036 250.628 2.1665 250.352 2.1665V2.6665V3.1665ZM248.362 2.1665C248.086 2.1665 247.862 2.39036 247.862 2.6665C247.862 2.94265 248.086 3.1665 248.362 3.1665V2.6665V2.1665ZM242.394 3.1665C242.67 3.1665 242.894 2.94265 242.894 2.6665C242.894 2.39036 242.67 2.1665 242.394 2.1665V2.6665V3.1665ZM240.404 2.1665C240.128 2.1665 239.904 2.39036 239.904 2.6665C239.904 2.94265 240.128 3.1665 240.404 3.1665V2.6665V2.1665ZM234.436 3.1665C234.712 3.1665 234.936 2.94265 234.936 2.6665C234.936 2.39036 234.712 2.1665 234.436 2.1665V2.6665V3.1665ZM232.447 2.1665C232.17 2.1665 231.947 2.39036 231.947 2.6665C231.947 2.94265 232.17 3.1665 232.447 3.1665V2.6665V2.1665ZM226.478 3.1665C226.754 3.1665 226.978 2.94265 226.978 2.6665C226.978 2.39036 226.754 2.1665 226.478 2.1665V2.6665V3.1665ZM224.489 2.1665C224.213 2.1665 223.989 2.39036 223.989 2.6665C223.989 2.94265 224.213 3.1665 224.489 3.1665V2.6665V2.1665ZM218.52 3.1665C218.797 3.1665 219.02 2.94265 219.02 2.6665C219.02 2.39036 218.797 2.1665 218.52 2.1665V2.6665V3.1665ZM216.531 2.1665C216.255 2.1665 216.031 2.39036 216.031 2.6665C216.031 2.94265 216.255 3.1665 216.531 3.1665V2.6665V2.1665ZM210.563 3.1665C210.839 3.1665 211.063 2.94265 211.063 2.6665C211.063 2.39036 210.839 2.1665 210.563 2.1665V2.6665V3.1665ZM208.573 2.1665C208.297 2.1665 208.073 2.39036 208.073 2.6665C208.073 2.94265 208.297 3.1665 208.573 3.1665V2.6665V2.1665ZM202.605 3.1665C202.881 3.1665 203.105 2.94265 203.105 2.6665C203.105 2.39036 202.881 2.1665 202.605 2.1665V2.6665V3.1665ZM200.615 2.1665C200.339 2.1665 200.115 2.39036 200.115 2.6665C200.115 2.94265 200.339 3.1665 200.615 3.1665V2.6665V2.1665ZM194.647 3.1665C194.923 3.1665 195.147 2.94265 195.147 2.6665C195.147 2.39036 194.923 2.1665 194.647 2.1665V2.6665V3.1665ZM192.658 2.1665C192.382 2.1665 192.158 2.39036 192.158 2.6665C192.158 2.94265 192.382 3.1665 192.658 3.1665V2.6665V2.1665ZM186.689 3.1665C186.966 3.1665 187.189 2.94265 187.189 2.6665C187.189 2.39036 186.966 2.1665 186.689 2.1665V2.6665V3.1665ZM184.7 2.1665C184.424 2.1665 184.2 2.39036 184.2 2.6665C184.2 2.94265 184.424 3.1665 184.7 3.1665V2.6665V2.1665ZM178.732 3.1665C179.008 3.1665 179.232 2.94265 179.232 2.6665C179.232 2.39036 179.008 2.1665 178.732 2.1665V2.6665V3.1665ZM176.742 2.1665C176.466 2.1665 176.242 2.39036 176.242 2.6665C176.242 2.94265 176.466 3.1665 176.742 3.1665V2.6665V2.1665ZM170.774 3.1665C171.05 3.1665 171.274 2.94265 171.274 2.6665C171.274 2.39036 171.05 2.1665 170.774 2.1665V2.6665V3.1665ZM168.784 2.1665C168.508 2.1665 168.284 2.39036 168.284 2.6665C168.284 2.94265 168.508 3.1665 168.784 3.1665V2.6665V2.1665ZM162.816 3.1665C163.092 3.1665 163.316 2.94265 163.316 2.6665C163.316 2.39036 163.092 2.1665 162.816 2.1665V2.6665V3.1665ZM160.827 2.1665C160.551 2.1665 160.327 2.39036 160.327 2.6665C160.327 2.94265 160.551 3.1665 160.827 3.1665V2.6665V2.1665ZM154.858 3.1665C155.134 3.1665 155.358 2.94265 155.358 2.6665C155.358 2.39036 155.134 2.1665 154.858 2.1665V2.6665V3.1665ZM152.869 2.1665C152.593 2.1665 152.369 2.39036 152.369 2.6665C152.369 2.94265 152.593 3.1665 152.869 3.1665V2.6665V2.1665ZM146.901 3.1665C147.177 3.1665 147.401 2.94265 147.401 2.6665C147.401 2.39036 147.177 2.1665 146.901 2.1665V2.6665V3.1665ZM144.911 2.1665C144.635 2.1665 144.411 2.39036 144.411 2.6665C144.411 2.94265 144.635 3.1665 144.911 3.1665V2.6665V2.1665ZM138.943 3.1665C139.219 3.1665 139.443 2.94265 139.443 2.6665C139.443 2.39036 139.219 2.1665 138.943 2.1665V2.6665V3.1665ZM136.953 2.1665C136.677 2.1665 136.453 2.39036 136.453 2.6665C136.453 2.94265 136.677 3.1665 136.953 3.1665V2.6665V2.1665ZM130.985 3.1665C131.261 3.1665 131.485 2.94265 131.485 2.6665C131.485 2.39036 131.261 2.1665 130.985 2.1665V2.6665V3.1665ZM128.996 2.1665C128.719 2.1665 128.496 2.39036 128.496 2.6665C128.496 2.94265 128.719 3.1665 128.996 3.1665V2.6665V2.1665ZM123.027 3.1665C123.303 3.1665 123.527 2.94265 123.527 2.6665C123.527 2.39036 123.303 2.1665 123.027 2.1665V2.6665V3.1665ZM121.038 2.1665C120.762 2.1665 120.538 2.39036 120.538 2.6665C120.538 2.94265 120.762 3.1665 121.038 3.1665V2.6665V2.1665ZM115.07 3.1665C115.346 3.1665 115.57 2.94265 115.57 2.6665C115.57 2.39036 115.346 2.1665 115.07 2.1665V2.6665V3.1665ZM113.08 2.1665C112.804 2.1665 112.58 2.39036 112.58 2.6665C112.58 2.94265 112.804 3.1665 113.08 3.1665V2.6665V2.1665ZM107.112 3.1665C107.388 3.1665 107.612 2.94265 107.612 2.6665C107.612 2.39036 107.388 2.1665 107.112 2.1665V2.6665V3.1665ZM105.122 2.1665C104.846 2.1665 104.622 2.39036 104.622 2.6665C104.622 2.94265 104.846 3.1665 105.122 3.1665V2.6665V2.1665ZM99.154 3.1665C99.4301 3.1665 99.654 2.94265 99.654 2.6665C99.654 2.39036 99.4301 2.1665 99.154 2.1665V2.6665V3.1665ZM97.1645 2.1665C96.8884 2.1665 96.6645 2.39036 96.6645 2.6665C96.6645 2.94265 96.8884 3.1665 97.1645 3.1665V2.6665V2.1665ZM91.1962 3.1665C91.4724 3.1665 91.6962 2.94265 91.6962 2.6665C91.6962 2.39036 91.4724 2.1665 91.1962 2.1665V2.6665V3.1665ZM89.2068 2.1665C88.9306 2.1665 88.7068 2.39036 88.7068 2.6665C88.7068 2.94265 88.9306 3.1665 89.2068 3.1665V2.6665V2.1665ZM83.2385 3.1665C83.5146 3.1665 83.7385 2.94265 83.7385 2.6665C83.7385 2.39036 83.5146 2.1665 83.2385 2.1665V2.6665V3.1665ZM81.249 2.1665C80.9729 2.1665 80.749 2.39036 80.749 2.6665C80.749 2.94265 80.9729 3.1665 81.249 3.1665V2.6665V2.1665ZM75.2807 3.1665C75.5568 3.1665 75.7807 2.94265 75.7807 2.6665C75.7807 2.39036 75.5568 2.1665 75.2807 2.1665V2.6665V3.1665ZM73.2913 2.1665C73.0151 2.1665 72.7913 2.39036 72.7913 2.6665C72.7913 2.94265 73.0151 3.1665 73.2913 3.1665V2.6665V2.1665ZM67.3229 3.1665C67.5991 3.1665 67.8229 2.94265 67.8229 2.6665C67.8229 2.39036 67.5991 2.1665 67.3229 2.1665V2.6665V3.1665ZM65.3335 2.1665C65.0573 2.1665 64.8335 2.39036 64.8335 2.6665C64.8335 2.94265 65.0573 3.1665 65.3335 3.1665V2.6665V2.1665ZM59.3652 3.1665C59.6413 3.1665 59.8652 2.94265 59.8652 2.6665C59.8652 2.39036 59.6413 2.1665 59.3652 2.1665V2.6665V3.1665ZM57.3757 2.1665C57.0996 2.1665 56.8757 2.39036 56.8757 2.6665C56.8757 2.94265 57.0996 3.1665 57.3757 3.1665V2.6665V2.1665ZM51.4074 3.1665C51.6835 3.1665 51.9074 2.94265 51.9074 2.6665C51.9074 2.39036 51.6835 2.1665 51.4074 2.1665V2.6665V3.1665ZM49.418 2.1665C49.1418 2.1665 48.918 2.39036 48.918 2.6665C48.918 2.94265 49.1418 3.1665 49.418 3.1665V2.6665V2.1665ZM43.4496 3.1665C43.7258 3.1665 43.9496 2.94265 43.9496 2.6665C43.9496 2.39036 43.7258 2.1665 43.4496 2.1665V2.6665V3.1665ZM41.4602 2.1665C41.1841 2.1665 40.9602 2.39036 40.9602 2.6665C40.9602 2.94265 41.1841 3.1665 41.4602 3.1665V2.6665V2.1665ZM35.4919 3.1665C35.768 3.1665 35.9919 2.94265 35.9919 2.6665C35.9919 2.39036 35.768 2.1665 35.4919 2.1665V2.6665V3.1665ZM33.5024 2.1665C33.2263 2.1665 33.0024 2.39036 33.0024 2.6665C33.0024 2.94265 33.2263 3.1665 33.5024 3.1665V2.6665V2.1665ZM27.5341 3.1665C27.8102 3.1665 28.0341 2.94265 28.0341 2.6665C28.0341 2.39036 27.8102 2.1665 27.5341 2.1665V2.6665V3.1665ZM25.5447 2.1665C25.2686 2.1665 25.0447 2.39036 25.0447 2.6665C25.0447 2.94265 25.2686 3.1665 25.5447 3.1665V2.6665V2.1665ZM19.5764 3.1665C19.8525 3.1665 20.0764 2.94265 20.0764 2.6665C20.0764 2.39036 19.8525 2.1665 19.5764 2.1665V2.6665V3.1665ZM17.5869 2.1665C17.3108 2.1665 17.0869 2.39036 17.0869 2.6665C17.0869 2.94265 17.3108 3.1665 17.5869 3.1665V2.6665V2.1665ZM11.6186 3.1665C11.8947 3.1665 12.1186 2.94265 12.1186 2.6665C12.1186 2.39036 11.8947 2.1665 11.6186 2.1665V2.6665V3.1665ZM9.62915 2.1665C9.35303 2.1665 9.12915 2.39036 9.12915 2.6665C9.12915 2.94265 9.35303 3.1665 9.62915 3.1665V2.6665V2.1665ZM3.66083 3.1665C3.93695 3.1665 4.16083 2.94265 4.16083 2.6665C4.16083 2.39036 3.93695 2.1665 3.66083 2.1665V2.6665V3.1665ZM567.667 2.6665V2.1665H566.672V2.6665V3.1665H567.667V2.6665ZM560.704 2.6665V2.1665H558.714V2.6665V3.1665H560.704V2.6665ZM552.746 2.6665V2.1665L550.757 2.1665V2.6665V3.1665L552.746 3.1665V2.6665ZM544.788 2.6665V2.1665L542.799 2.1665V2.6665V3.1665L544.788 3.1665V2.6665ZM536.83 2.6665V2.1665L534.841 2.1665V2.6665V3.1665L536.83 3.1665V2.6665ZM528.873 2.6665V2.1665H526.883V2.6665V3.1665H528.873V2.6665ZM520.915 2.6665V2.1665L518.926 2.1665V2.6665V3.1665L520.915 3.1665V2.6665ZM512.957 2.6665V2.1665L510.968 2.1665V2.6665V3.1665L512.957 3.1665V2.6665ZM504.999 2.6665V2.1665L503.01 2.1665V2.6665V3.1665L504.999 3.1665V2.6665ZM497.042 2.6665V2.1665H495.052V2.6665V3.1665H497.042V2.6665ZM489.084 2.6665V2.1665H487.095V2.6665V3.1665H489.084V2.6665ZM481.126 2.6665V2.1665H479.137V2.6665V3.1665H481.126V2.6665ZM473.169 2.6665V2.1665L471.179 2.1665V2.6665V3.1665H473.169V2.6665ZM465.211 2.6665V2.1665L463.221 2.1665V2.6665V3.1665L465.211 3.1665V2.6665ZM457.253 2.6665V2.1665L455.264 2.1665V2.6665V3.1665L457.253 3.1665V2.6665ZM449.295 2.6665V2.1665H447.306V2.6665V3.1665H449.295V2.6665ZM441.338 2.6665V2.1665H439.348V2.6665V3.1665L441.338 3.1665V2.6665ZM433.38 2.6665V2.1665L431.39 2.1665V2.6665V3.1665L433.38 3.1665V2.6665ZM425.422 2.6665V2.1665L423.433 2.1665V2.6665V3.1665L425.422 3.1665V2.6665ZM417.464 2.6665V2.1665L415.475 2.1665V2.6665V3.1665H417.464V2.6665ZM409.507 2.6665V2.1665H407.517V2.6665V3.1665H409.507V2.6665ZM401.549 2.6665V2.1665H399.559V2.6665V3.1665H401.549V2.6665ZM393.591 2.6665V2.1665H391.602V2.6665V3.1665H393.591V2.6665ZM385.633 2.6665V2.1665L383.644 2.1665V2.6665V3.1665L385.633 3.1665V2.6665ZM377.676 2.6665V2.1665L375.686 2.1665V2.6665V3.1665L377.676 3.1665V2.6665ZM369.718 2.6665V2.1665H367.728V2.6665V3.1665L369.718 3.1665V2.6665ZM361.76 2.6665V2.1665H359.771V2.6665V3.1665H361.76V2.6665ZM353.802 2.6665V2.1665L351.813 2.1665V2.6665V3.1665L353.802 3.1665V2.6665ZM345.845 2.6665V2.1665L343.855 2.1665V2.6665V3.1665L345.845 3.1665V2.6665ZM337.887 2.6665V2.1665L335.897 2.1665V2.6665V3.1665L337.887 3.1665V2.6665ZM329.929 2.6665V2.1665H327.94V2.6665V3.1665H329.929V2.6665ZM321.971 2.6665V2.1665H319.982V2.6665V3.1665H321.971V2.6665ZM314.014 2.6665V2.1665H312.024V2.6665V3.1665H314.014V2.6665ZM306.056 2.6665V2.1665L304.066 2.1665V2.6665V3.1665L306.056 3.1665V2.6665ZM298.098 2.6665V2.1665L296.109 2.1665V2.6665V3.1665L298.098 3.1665V2.6665ZM290.14 2.6665V2.1665L288.151 2.1665V2.6665V3.1665L290.14 3.1665V2.6665ZM282.183 2.6665V2.1665H280.193V2.6665V3.1665H282.183V2.6665ZM274.225 2.6665V2.1665L272.235 2.1665V2.6665V3.1665L274.225 3.1665V2.6665ZM266.267 2.6665V2.1665L264.278 2.1665V2.6665V3.1665L266.267 3.1665V2.6665ZM258.309 2.6665V2.1665L256.32 2.1665V2.6665V3.1665L258.309 3.1665V2.6665ZM250.352 2.6665V2.1665H248.362V2.6665V3.1665H250.352V2.6665ZM242.394 2.6665V2.1665H240.404V2.6665V3.1665H242.394V2.6665ZM234.436 2.6665V2.1665H232.447V2.6665V3.1665H234.436V2.6665ZM226.478 2.6665V2.1665L224.489 2.1665V2.6665V3.1665L226.478 3.1665V2.6665ZM218.52 2.6665V2.1665L216.531 2.1665V2.6665V3.1665L218.52 3.1665V2.6665ZM210.563 2.6665V2.1665L208.573 2.1665V2.6665V3.1665L210.563 3.1665V2.6665ZM202.605 2.6665V2.1665H200.615V2.6665V3.1665H202.605V2.6665ZM194.647 2.6665V2.1665H192.658V2.6665V3.1665L194.647 3.1665V2.6665ZM186.689 2.6665V2.1665L184.7 2.1665V2.6665V3.1665L186.689 3.1665V2.6665ZM178.732 2.6665V2.1665L176.742 2.1665V2.6665V3.1665L178.732 3.1665V2.6665ZM170.774 2.6665V2.1665H168.784V2.6665V3.1665H170.774V2.6665ZM162.816 2.6665V2.1665H160.827V2.6665V3.1665H162.816V2.6665ZM154.858 2.6665V2.1665H152.869V2.6665V3.1665H154.858V2.6665ZM146.901 2.6665V2.1665L144.911 2.1665V2.6665V3.1665H146.901V2.6665ZM138.943 2.6665V2.1665L136.953 2.1665V2.6665V3.1665L138.943 3.1665V2.6665ZM130.985 2.6665V2.1665L128.996 2.1665V2.6665V3.1665L130.985 3.1665V2.6665ZM123.027 2.6665V2.1665H121.038V2.6665V3.1665L123.027 3.1665V2.6665ZM115.07 2.6665V2.1665H113.08V2.6665V3.1665H115.07V2.6665ZM107.112 2.6665V2.1665L105.122 2.1665V2.6665V3.1665L107.112 3.1665V2.6665ZM99.154 2.6665V2.1665L97.1645 2.1665V2.6665V3.1665L99.154 3.1665V2.6665ZM91.1962 2.6665V2.1665L89.2068 2.1665V2.6665V3.1665H91.1962V2.6665ZM83.2385 2.6665V2.1665H81.249V2.6665V3.1665H83.2385V2.6665ZM75.2807 2.6665V2.1665H73.2913V2.6665V3.1665H75.2807V2.6665ZM67.3229 2.6665V2.1665H65.3335V2.6665V3.1665H67.3229V2.6665ZM59.3652 2.6665V2.1665L57.3757 2.1665V2.6665V3.1665L59.3652 3.1665V2.6665ZM51.4074 2.6665V2.1665L49.418 2.1665V2.6665V3.1665L51.4074 3.1665V2.6665ZM43.4496 2.6665V2.1665L41.4602 2.1665V2.6665V3.1665L43.4496 3.1665V2.6665ZM35.4919 2.6665V2.1665H33.5024V2.6665V3.1665H35.4919V2.6665ZM27.5341 2.6665V2.1665L25.5447 2.1665V2.6665V3.1665L27.5341 3.1665V2.6665ZM19.5764 2.6665V2.1665L17.5869 2.1665V2.6665V3.1665L19.5764 3.1665V2.6665ZM11.6186 2.6665V2.1665L9.62915 2.1665V2.6665V3.1665L11.6186 3.1665V2.6665ZM3.66083 2.6665V2.1665H2.66675V2.6665V3.1665H3.66083V2.6665Z" fill="url(#paint0_linear_78_334)"/>
<path d="M1135.33 2.6665C1135.33 1.19374 1134.14 -0.00016284 1132.67 -0.00016284C1131.19 -0.00016284 1130 1.19374 1130 2.6665C1130 4.13926 1131.19 5.33317 1132.67 5.33317C1134.14 5.33317 1135.33 4.13926 1135.33 2.6665ZM570.333 2.6665C570.333 1.19374 569.14 -0.00016284 567.667 -0.00016284C566.194 -0.00016284 565 1.19374 565 2.6665C565 4.13926 566.194 5.33317 567.667 5.33317C569.14 5.33317 570.333 4.13926 570.333 2.6665ZM1131.67 2.1665C1131.4 2.1665 1131.17 2.39036 1131.17 2.6665C1131.17 2.94265 1131.4 3.1665 1131.67 3.1665V2.6665V2.1665ZM1125.7 3.1665C1125.98 3.1665 1126.2 2.94265 1126.2 2.6665C1126.2 2.39036 1125.98 2.1665 1125.7 2.1665V2.6665V3.1665ZM1123.71 2.1665C1123.44 2.1665 1123.21 2.39036 1123.21 2.6665C1123.21 2.94265 1123.44 3.1665 1123.71 3.1665V2.6665V2.1665ZM1117.75 3.1665C1118.02 3.1665 1118.25 2.94265 1118.25 2.6665C1118.25 2.39036 1118.02 2.1665 1117.75 2.1665V2.6665V3.1665ZM1115.76 2.1665C1115.48 2.1665 1115.26 2.39036 1115.26 2.6665C1115.26 2.94265 1115.48 3.1665 1115.76 3.1665V2.6665V2.1665ZM1109.79 3.1665C1110.06 3.1665 1110.29 2.94265 1110.29 2.6665C1110.29 2.39036 1110.06 2.1665 1109.79 2.1665V2.6665V3.1665ZM1107.8 2.1665C1107.52 2.1665 1107.3 2.39036 1107.3 2.6665C1107.3 2.94265 1107.52 3.1665 1107.8 3.1665V2.6665V2.1665ZM1101.83 3.1665C1102.11 3.1665 1102.33 2.94265 1102.33 2.6665C1102.33 2.39036 1102.11 2.1665 1101.83 2.1665V2.6665V3.1665ZM1099.84 2.1665C1099.56 2.1665 1099.34 2.39036 1099.34 2.6665C1099.34 2.94265 1099.56 3.1665 1099.84 3.1665V2.6665V2.1665ZM1093.87 3.1665C1094.15 3.1665 1094.37 2.94265 1094.37 2.6665C1094.37 2.39036 1094.15 2.1665 1093.87 2.1665V2.6665V3.1665ZM1091.88 2.1665C1091.61 2.1665 1091.38 2.39036 1091.38 2.6665C1091.38 2.94265 1091.61 3.1665 1091.88 3.1665V2.6665V2.1665ZM1085.91 3.1665C1086.19 3.1665 1086.41 2.94265 1086.41 2.6665C1086.41 2.39036 1086.19 2.1665 1085.91 2.1665V2.6665V3.1665ZM1083.93 2.1665C1083.65 2.1665 1083.43 2.39036 1083.43 2.6665C1083.43 2.94265 1083.65 3.1665 1083.93 3.1665V2.6665V2.1665ZM1077.96 3.1665C1078.23 3.1665 1078.46 2.94265 1078.46 2.6665C1078.46 2.39036 1078.23 2.1665 1077.96 2.1665V2.6665V3.1665ZM1075.97 2.1665C1075.69 2.1665 1075.47 2.39036 1075.47 2.6665C1075.47 2.94265 1075.69 3.1665 1075.97 3.1665V2.6665V2.1665ZM1070 3.1665C1070.28 3.1665 1070.5 2.94265 1070.5 2.6665C1070.5 2.39036 1070.28 2.1665 1070 2.1665V2.6665V3.1665ZM1068.01 2.1665C1067.73 2.1665 1067.51 2.39036 1067.51 2.6665C1067.51 2.94265 1067.73 3.1665 1068.01 3.1665V2.6665V2.1665ZM1062.04 3.1665C1062.32 3.1665 1062.54 2.94265 1062.54 2.6665C1062.54 2.39036 1062.32 2.1665 1062.04 2.1665V2.6665V3.1665ZM1060.05 2.1665C1059.78 2.1665 1059.55 2.39036 1059.55 2.6665C1059.55 2.94265 1059.78 3.1665 1060.05 3.1665V2.6665V2.1665ZM1054.08 3.1665C1054.36 3.1665 1054.58 2.94265 1054.58 2.6665C1054.58 2.39036 1054.36 2.1665 1054.08 2.1665V2.6665V3.1665ZM1052.09 2.1665C1051.82 2.1665 1051.59 2.39036 1051.59 2.6665C1051.59 2.94265 1051.82 3.1665 1052.09 3.1665V2.6665V2.1665ZM1046.13 3.1665C1046.4 3.1665 1046.63 2.94265 1046.63 2.6665C1046.63 2.39036 1046.4 2.1665 1046.13 2.1665V2.6665V3.1665ZM1044.14 2.1665C1043.86 2.1665 1043.64 2.39036 1043.64 2.6665C1043.64 2.94265 1043.86 3.1665 1044.14 3.1665V2.6665V2.1665ZM1038.17 3.1665C1038.44 3.1665 1038.67 2.94265 1038.67 2.6665C1038.67 2.39036 1038.44 2.1665 1038.17 2.1665V2.6665V3.1665ZM1036.18 2.1665C1035.9 2.1665 1035.68 2.39036 1035.68 2.6665C1035.68 2.94265 1035.9 3.1665 1036.18 3.1665V2.6665V2.1665ZM1030.21 3.1665C1030.49 3.1665 1030.71 2.94265 1030.71 2.6665C1030.71 2.39036 1030.49 2.1665 1030.21 2.1665V2.6665V3.1665ZM1028.22 2.1665C1027.95 2.1665 1027.72 2.39036 1027.72 2.6665C1027.72 2.94265 1027.95 3.1665 1028.22 3.1665V2.6665V2.1665ZM1022.25 3.1665C1022.53 3.1665 1022.75 2.94265 1022.75 2.6665C1022.75 2.39036 1022.53 2.1665 1022.25 2.1665V2.6665V3.1665ZM1020.26 2.1665C1019.99 2.1665 1019.76 2.39036 1019.76 2.6665C1019.76 2.94265 1019.99 3.1665 1020.26 3.1665V2.6665V2.1665ZM1014.3 3.1665C1014.57 3.1665 1014.8 2.94265 1014.8 2.6665C1014.8 2.39036 1014.57 2.1665 1014.3 2.1665V2.6665V3.1665ZM1012.31 2.1665C1012.03 2.1665 1011.81 2.39036 1011.81 2.6665C1011.81 2.94265 1012.03 3.1665 1012.31 3.1665V2.6665V2.1665ZM1006.34 3.1665C1006.61 3.1665 1006.84 2.94265 1006.84 2.6665C1006.84 2.39036 1006.61 2.1665 1006.34 2.1665V2.6665V3.1665ZM1004.35 2.1665C1004.07 2.1665 1003.85 2.39036 1003.85 2.6665C1003.85 2.94265 1004.07 3.1665 1004.35 3.1665V2.6665V2.1665ZM998.38 3.1665C998.656 3.1665 998.88 2.94265 998.88 2.6665C998.88 2.39036 998.656 2.1665 998.38 2.1665V2.6665V3.1665ZM996.39 2.1665C996.114 2.1665 995.89 2.39036 995.89 2.6665C995.89 2.94265 996.114 3.1665 996.39 3.1665V2.6665V2.1665ZM990.422 3.1665C990.698 3.1665 990.922 2.94265 990.922 2.6665C990.922 2.39036 990.698 2.1665 990.422 2.1665V2.6665V3.1665ZM988.433 2.1665C988.156 2.1665 987.933 2.39036 987.933 2.6665C987.933 2.94265 988.156 3.1665 988.433 3.1665V2.6665V2.1665ZM982.464 3.1665C982.74 3.1665 982.964 2.94265 982.964 2.6665C982.964 2.39036 982.74 2.1665 982.464 2.1665V2.6665V3.1665ZM980.475 2.1665C980.199 2.1665 979.975 2.39036 979.975 2.6665C979.975 2.94265 980.199 3.1665 980.475 3.1665V2.6665V2.1665ZM974.507 3.1665C974.783 3.1665 975.007 2.94265 975.007 2.6665C975.007 2.39036 974.783 2.1665 974.507 2.1665V2.6665V3.1665ZM972.517 2.1665C972.241 2.1665 972.017 2.39036 972.017 2.6665C972.017 2.94265 972.241 3.1665 972.517 3.1665V2.6665V2.1665ZM966.549 3.1665C966.825 3.1665 967.049 2.94265 967.049 2.6665C967.049 2.39036 966.825 2.1665 966.549 2.1665V2.6665V3.1665ZM964.559 2.1665C964.283 2.1665 964.059 2.39036 964.059 2.6665C964.059 2.94265 964.283 3.1665 964.559 3.1665V2.6665V2.1665ZM958.591 3.1665C958.867 3.1665 959.091 2.94265 959.091 2.6665C959.091 2.39036 958.867 2.1665 958.591 2.1665V2.6665V3.1665ZM956.602 2.1665C956.325 2.1665 956.102 2.39036 956.102 2.6665C956.102 2.94265 956.325 3.1665 956.602 3.1665V2.6665V2.1665ZM950.633 3.1665C950.909 3.1665 951.133 2.94265 951.133 2.6665C951.133 2.39036 950.909 2.1665 950.633 2.1665V2.6665V3.1665ZM948.644 2.1665C948.368 2.1665 948.144 2.39036 948.144 2.6665C948.144 2.94265 948.368 3.1665 948.644 3.1665V2.6665V2.1665ZM942.676 3.1665C942.952 3.1665 943.176 2.94265 943.176 2.6665C943.176 2.39036 942.952 2.1665 942.676 2.1665V2.6665V3.1665ZM940.686 2.1665C940.41 2.1665 940.186 2.39036 940.186 2.6665C940.186 2.94265 940.41 3.1665 940.686 3.1665V2.6665V2.1665ZM934.718 3.1665C934.994 3.1665 935.218 2.94265 935.218 2.6665C935.218 2.39036 934.994 2.1665 934.718 2.1665V2.6665V3.1665ZM932.728 2.1665C932.452 2.1665 932.228 2.39036 932.228 2.6665C932.228 2.94265 932.452 3.1665 932.728 3.1665V2.6665V2.1665ZM926.76 3.1665C927.036 3.1665 927.26 2.94265 927.26 2.6665C927.26 2.39036 927.036 2.1665 926.76 2.1665V2.6665V3.1665ZM924.771 2.1665C924.494 2.1665 924.271 2.39036 924.271 2.6665C924.271 2.94265 924.494 3.1665 924.771 3.1665V2.6665V2.1665ZM918.802 3.1665C919.078 3.1665 919.302 2.94265 919.302 2.6665C919.302 2.39036 919.078 2.1665 918.802 2.1665V2.6665V3.1665ZM916.813 2.1665C916.537 2.1665 916.313 2.39036 916.313 2.6665C916.313 2.94265 916.537 3.1665 916.813 3.1665V2.6665V2.1665ZM910.845 3.1665C911.121 3.1665 911.345 2.94265 911.345 2.6665C911.345 2.39036 911.121 2.1665 910.845 2.1665V2.6665V3.1665ZM908.855 2.1665C908.579 2.1665 908.355 2.39036 908.355 2.6665C908.355 2.94265 908.579 3.1665 908.855 3.1665V2.6665V2.1665ZM902.887 3.1665C903.163 3.1665 903.387 2.94265 903.387 2.6665C903.387 2.39036 903.163 2.1665 902.887 2.1665V2.6665V3.1665ZM900.897 2.1665C900.621 2.1665 900.397 2.39036 900.397 2.6665C900.397 2.94265 900.621 3.1665 900.897 3.1665V2.6665V2.1665ZM894.929 3.1665C895.205 3.1665 895.429 2.94265 895.429 2.6665C895.429 2.39036 895.205 2.1665 894.929 2.1665V2.6665V3.1665ZM892.94 2.1665C892.663 2.1665 892.44 2.39036 892.44 2.6665C892.44 2.94265 892.663 3.1665 892.94 3.1665V2.6665V2.1665ZM886.971 3.1665C887.247 3.1665 887.471 2.94265 887.471 2.6665C887.471 2.39036 887.247 2.1665 886.971 2.1665V2.6665V3.1665ZM884.982 2.1665C884.706 2.1665 884.482 2.39036 884.482 2.6665C884.482 2.94265 884.706 3.1665 884.982 3.1665V2.6665V2.1665ZM879.014 3.1665C879.29 3.1665 879.514 2.94265 879.514 2.6665C879.514 2.39036 879.29 2.1665 879.014 2.1665V2.6665V3.1665ZM877.024 2.1665C876.748 2.1665 876.524 2.39036 876.524 2.6665C876.524 2.94265 876.748 3.1665 877.024 3.1665V2.6665V2.1665ZM871.056 3.1665C871.332 3.1665 871.556 2.94265 871.556 2.6665C871.556 2.39036 871.332 2.1665 871.056 2.1665V2.6665V3.1665ZM869.066 2.1665C868.79 2.1665 868.566 2.39036 868.566 2.6665C868.566 2.94265 868.79 3.1665 869.066 3.1665V2.6665V2.1665ZM863.098 3.1665C863.374 3.1665 863.598 2.94265 863.598 2.6665C863.598 2.39036 863.374 2.1665 863.098 2.1665V2.6665V3.1665ZM861.109 2.1665C860.832 2.1665 860.609 2.39036 860.609 2.6665C860.609 2.94265 860.832 3.1665 861.109 3.1665V2.6665V2.1665ZM855.14 3.1665C855.416 3.1665 855.64 2.94265 855.64 2.6665C855.64 2.39036 855.416 2.1665 855.14 2.1665V2.6665V3.1665ZM853.151 2.1665C852.875 2.1665 852.651 2.39036 852.651 2.6665C852.651 2.94265 852.875 3.1665 853.151 3.1665V2.6665V2.1665ZM847.183 3.1665C847.459 3.1665 847.683 2.94265 847.683 2.6665C847.683 2.39036 847.459 2.1665 847.183 2.1665V2.6665V3.1665ZM845.193 2.1665C844.917 2.1665 844.693 2.39036 844.693 2.6665C844.693 2.94265 844.917 3.1665 845.193 3.1665V2.6665V2.1665ZM839.225 3.1665C839.501 3.1665 839.725 2.94265 839.725 2.6665C839.725 2.39036 839.501 2.1665 839.225 2.1665V2.6665V3.1665ZM837.235 2.1665C836.959 2.1665 836.735 2.39036 836.735 2.6665C836.735 2.94265 836.959 3.1665 837.235 3.1665V2.6665V2.1665ZM831.267 3.1665C831.543 3.1665 831.767 2.94265 831.767 2.6665C831.767 2.39036 831.543 2.1665 831.267 2.1665V2.6665V3.1665ZM829.278 2.1665C829.001 2.1665 828.778 2.39036 828.778 2.6665C828.778 2.94265 829.001 3.1665 829.278 3.1665V2.6665V2.1665ZM823.309 3.1665C823.585 3.1665 823.809 2.94265 823.809 2.6665C823.809 2.39036 823.585 2.1665 823.309 2.1665V2.6665V3.1665ZM821.32 2.1665C821.044 2.1665 820.82 2.39036 820.82 2.6665C820.82 2.94265 821.044 3.1665 821.32 3.1665V2.6665V2.1665ZM815.352 3.1665C815.628 3.1665 815.852 2.94265 815.852 2.6665C815.852 2.39036 815.628 2.1665 815.352 2.1665V2.6665V3.1665ZM813.362 2.1665C813.086 2.1665 812.862 2.39036 812.862 2.6665C812.862 2.94265 813.086 3.1665 813.362 3.1665V2.6665V2.1665ZM807.394 3.1665C807.67 3.1665 807.894 2.94265 807.894 2.6665C807.894 2.39036 807.67 2.1665 807.394 2.1665V2.6665V3.1665ZM805.404 2.1665C805.128 2.1665 804.904 2.39036 804.904 2.6665C804.904 2.94265 805.128 3.1665 805.404 3.1665V2.6665V2.1665ZM799.436 3.1665C799.712 3.1665 799.936 2.94265 799.936 2.6665C799.936 2.39036 799.712 2.1665 799.436 2.1665V2.6665V3.1665ZM797.447 2.1665C797.17 2.1665 796.947 2.39036 796.947 2.6665C796.947 2.94265 797.17 3.1665 797.447 3.1665V2.6665V2.1665ZM791.478 3.1665C791.754 3.1665 791.978 2.94265 791.978 2.6665C791.978 2.39036 791.754 2.1665 791.478 2.1665V2.6665V3.1665ZM789.489 2.1665C789.213 2.1665 788.989 2.39036 788.989 2.6665C788.989 2.94265 789.213 3.1665 789.489 3.1665V2.6665V2.1665ZM783.52 3.1665C783.797 3.1665 784.02 2.94265 784.02 2.6665C784.02 2.39036 783.797 2.1665 783.52 2.1665V2.6665V3.1665ZM781.531 2.1665C781.255 2.1665 781.031 2.39036 781.031 2.6665C781.031 2.94265 781.255 3.1665 781.531 3.1665V2.6665V2.1665ZM775.563 3.1665C775.839 3.1665 776.063 2.94265 776.063 2.6665C776.063 2.39036 775.839 2.1665 775.563 2.1665V2.6665V3.1665ZM773.573 2.1665C773.297 2.1665 773.073 2.39036 773.073 2.6665C773.073 2.94265 773.297 3.1665 773.573 3.1665V2.6665V2.1665ZM767.605 3.1665C767.881 3.1665 768.105 2.94265 768.105 2.6665C768.105 2.39036 767.881 2.1665 767.605 2.1665V2.6665V3.1665ZM765.615 2.1665C765.339 2.1665 765.115 2.39036 765.115 2.6665C765.115 2.94265 765.339 3.1665 765.615 3.1665V2.6665V2.1665ZM759.647 3.1665C759.923 3.1665 760.147 2.94265 760.147 2.6665C760.147 2.39036 759.923 2.1665 759.647 2.1665V2.6665V3.1665ZM757.658 2.1665C757.382 2.1665 757.158 2.39036 757.158 2.6665C757.158 2.94265 757.382 3.1665 757.658 3.1665V2.6665V2.1665ZM751.689 3.1665C751.966 3.1665 752.189 2.94265 752.189 2.6665C752.189 2.39036 751.966 2.1665 751.689 2.1665V2.6665V3.1665ZM749.7 2.1665C749.424 2.1665 749.2 2.39036 749.2 2.6665C749.2 2.94265 749.424 3.1665 749.7 3.1665V2.6665V2.1665ZM743.732 3.1665C744.008 3.1665 744.232 2.94265 744.232 2.6665C744.232 2.39036 744.008 2.1665 743.732 2.1665V2.6665V3.1665ZM741.742 2.1665C741.466 2.1665 741.242 2.39036 741.242 2.6665C741.242 2.94265 741.466 3.1665 741.742 3.1665V2.6665V2.1665ZM735.774 3.1665C736.05 3.1665 736.274 2.94265 736.274 2.6665C736.274 2.39036 736.05 2.1665 735.774 2.1665V2.6665V3.1665ZM733.784 2.1665C733.508 2.1665 733.284 2.39036 733.284 2.6665C733.284 2.94265 733.508 3.1665 733.784 3.1665V2.6665V2.1665ZM727.816 3.1665C728.092 3.1665 728.316 2.94265 728.316 2.6665C728.316 2.39036 728.092 2.1665 727.816 2.1665V2.6665V3.1665ZM725.827 2.1665C725.551 2.1665 725.327 2.39036 725.327 2.6665C725.327 2.94265 725.551 3.1665 725.827 3.1665V2.6665V2.1665ZM719.858 3.1665C720.134 3.1665 720.358 2.94265 720.358 2.6665C720.358 2.39036 720.134 2.1665 719.858 2.1665V2.6665V3.1665ZM717.869 2.1665C717.593 2.1665 717.369 2.39036 717.369 2.6665C717.369 2.94265 717.593 3.1665 717.869 3.1665V2.6665V2.1665ZM711.901 3.1665C712.177 3.1665 712.401 2.94265 712.401 2.6665C712.401 2.39036 712.177 2.1665 711.901 2.1665V2.6665V3.1665ZM709.911 2.1665C709.635 2.1665 709.411 2.39036 709.411 2.6665C709.411 2.94265 709.635 3.1665 709.911 3.1665V2.6665V2.1665ZM703.943 3.1665C704.219 3.1665 704.443 2.94265 704.443 2.6665C704.443 2.39036 704.219 2.1665 703.943 2.1665V2.6665V3.1665ZM701.953 2.1665C701.677 2.1665 701.453 2.39036 701.453 2.6665C701.453 2.94265 701.677 3.1665 701.953 3.1665V2.6665V2.1665ZM695.985 3.1665C696.261 3.1665 696.485 2.94265 696.485 2.6665C696.485 2.39036 696.261 2.1665 695.985 2.1665V2.6665V3.1665ZM693.996 2.1665C693.719 2.1665 693.496 2.39036 693.496 2.6665C693.496 2.94265 693.719 3.1665 693.996 3.1665V2.6665V2.1665ZM688.027 3.1665C688.303 3.1665 688.527 2.94265 688.527 2.6665C688.527 2.39036 688.303 2.1665 688.027 2.1665V2.6665V3.1665ZM686.038 2.1665C685.762 2.1665 685.538 2.39036 685.538 2.6665C685.538 2.94265 685.762 3.1665 686.038 3.1665V2.6665V2.1665ZM680.07 3.1665C680.346 3.1665 680.57 2.94265 680.57 2.6665C680.57 2.39036 680.346 2.1665 680.07 2.1665V2.6665V3.1665ZM678.08 2.1665C677.804 2.1665 677.58 2.39036 677.58 2.6665C677.58 2.94265 677.804 3.1665 678.08 3.1665V2.6665V2.1665ZM672.112 3.1665C672.388 3.1665 672.612 2.94265 672.612 2.6665C672.612 2.39036 672.388 2.1665 672.112 2.1665V2.6665V3.1665ZM670.122 2.1665C669.846 2.1665 669.622 2.39036 669.622 2.6665C669.622 2.94265 669.846 3.1665 670.122 3.1665V2.6665V2.1665ZM664.154 3.1665C664.43 3.1665 664.654 2.94265 664.654 2.6665C664.654 2.39036 664.43 2.1665 664.154 2.1665V2.6665V3.1665ZM662.165 2.1665C661.888 2.1665 661.665 2.39036 661.665 2.6665C661.665 2.94265 661.888 3.1665 662.165 3.1665V2.6665V2.1665ZM656.196 3.1665C656.472 3.1665 656.696 2.94265 656.696 2.6665C656.696 2.39036 656.472 2.1665 656.196 2.1665V2.6665V3.1665ZM654.207 2.1665C653.931 2.1665 653.707 2.39036 653.707 2.6665C653.707 2.94265 653.931 3.1665 654.207 3.1665V2.6665V2.1665ZM648.238 3.1665C648.515 3.1665 648.738 2.94265 648.738 2.6665C648.738 2.39036 648.515 2.1665 648.238 2.1665V2.6665V3.1665ZM646.249 2.1665C645.973 2.1665 645.749 2.39036 645.749 2.6665C645.749 2.94265 645.973 3.1665 646.249 3.1665V2.6665V2.1665ZM640.281 3.1665C640.557 3.1665 640.781 2.94265 640.781 2.6665C640.781 2.39036 640.557 2.1665 640.281 2.1665V2.6665V3.1665ZM638.291 2.1665C638.015 2.1665 637.791 2.39036 637.791 2.6665C637.791 2.94265 638.015 3.1665 638.291 3.1665V2.6665V2.1665ZM632.323 3.1665C632.599 3.1665 632.823 2.94265 632.823 2.6665C632.823 2.39036 632.599 2.1665 632.323 2.1665V2.6665V3.1665ZM630.333 2.1665C630.057 2.1665 629.833 2.39036 629.833 2.6665C629.833 2.94265 630.057 3.1665 630.333 3.1665V2.6665V2.1665ZM624.365 3.1665C624.641 3.1665 624.865 2.94265 624.865 2.6665C624.865 2.39036 624.641 2.1665 624.365 2.1665V2.6665V3.1665ZM622.376 2.1665C622.1 2.1665 621.876 2.39036 621.876 2.6665C621.876 2.94265 622.1 3.1665 622.376 3.1665V2.6665V2.1665ZM616.407 3.1665C616.684 3.1665 616.907 2.94265 616.907 2.6665C616.907 2.39036 616.684 2.1665 616.407 2.1665V2.6665V3.1665ZM614.418 2.1665C614.142 2.1665 613.918 2.39036 613.918 2.6665C613.918 2.94265 614.142 3.1665 614.418 3.1665V2.6665V2.1665ZM608.45 3.1665C608.726 3.1665 608.95 2.94265 608.95 2.6665C608.95 2.39036 608.726 2.1665 608.45 2.1665V2.6665V3.1665ZM606.46 2.1665C606.184 2.1665 605.96 2.39036 605.96 2.6665C605.96 2.94265 606.184 3.1665 606.46 3.1665V2.6665V2.1665ZM600.492 3.1665C600.768 3.1665 600.992 2.94265 600.992 2.6665C600.992 2.39036 600.768 2.1665 600.492 2.1665V2.6665V3.1665ZM598.502 2.1665C598.226 2.1665 598.002 2.39036 598.002 2.6665C598.002 2.94265 598.226 3.1665 598.502 3.1665V2.6665V2.1665ZM592.534 3.1665C592.81 3.1665 593.034 2.94265 593.034 2.6665C593.034 2.39036 592.81 2.1665 592.534 2.1665V2.6665V3.1665ZM590.545 2.1665C590.269 2.1665 590.045 2.39036 590.045 2.6665C590.045 2.94265 590.269 3.1665 590.545 3.1665V2.6665V2.1665ZM584.576 3.1665C584.852 3.1665 585.076 2.94265 585.076 2.6665C585.076 2.39036 584.852 2.1665 584.576 2.1665V2.6665V3.1665ZM582.587 2.1665C582.311 2.1665 582.087 2.39036 582.087 2.6665C582.087 2.94265 582.311 3.1665 582.587 3.1665V2.6665V2.1665ZM576.619 3.1665C576.895 3.1665 577.119 2.94265 577.119 2.6665C577.119 2.39036 576.895 2.1665 576.619 2.1665V2.6665V3.1665ZM574.629 2.1665C574.353 2.1665 574.129 2.39036 574.129 2.6665C574.129 2.94265 574.353 3.1665 574.629 3.1665V2.6665V2.1665ZM568.661 3.1665C568.937 3.1665 569.161 2.94265 569.161 2.6665C569.161 2.39036 568.937 2.1665 568.661 2.1665V2.6665V3.1665ZM1132.67 2.6665V2.1665H1131.67V2.6665V3.1665H1132.67V2.6665ZM1125.7 2.6665V2.1665H1123.71V2.6665V3.1665H1125.7V2.6665ZM1117.75 2.6665V2.1665L1115.76 2.1665V2.6665V3.1665L1117.75 3.1665V2.6665ZM1109.79 2.6665V2.1665L1107.8 2.1665V2.6665V3.1665L1109.79 3.1665V2.6665ZM1101.83 2.6665V2.1665L1099.84 2.1665V2.6665V3.1665L1101.83 3.1665V2.6665ZM1093.87 2.6665V2.1665H1091.88V2.6665V3.1665H1093.87V2.6665ZM1085.91 2.6665V2.1665L1083.93 2.1665V2.6665V3.1665L1085.91 3.1665V2.6665ZM1077.96 2.6665V2.1665L1075.97 2.1665V2.6665V3.1665L1077.96 3.1665V2.6665ZM1070 2.6665V2.1665L1068.01 2.1665V2.6665V3.1665L1070 3.1665V2.6665ZM1062.04 2.6665V2.1665H1060.05V2.6665V3.1665H1062.04V2.6665ZM1054.08 2.6665V2.1665H1052.09V2.6665V3.1665H1054.08V2.6665ZM1046.13 2.6665V2.1665H1044.14V2.6665V3.1665H1046.13V2.6665ZM1038.17 2.6665V2.1665L1036.18 2.1665V2.6665V3.1665H1038.17V2.6665ZM1030.21 2.6665V2.1665L1028.22 2.1665V2.6665V3.1665L1030.21 3.1665V2.6665ZM1022.25 2.6665V2.1665L1020.26 2.1665V2.6665V3.1665L1022.25 3.1665V2.6665ZM1014.3 2.6665V2.1665H1012.31V2.6665V3.1665H1014.3V2.6665ZM1006.34 2.6665V2.1665H1004.35V2.6665V3.1665L1006.34 3.1665V2.6665ZM998.38 2.6665V2.1665L996.39 2.1665V2.6665V3.1665L998.38 3.1665V2.6665ZM990.422 2.6665V2.1665L988.433 2.1665V2.6665V3.1665L990.422 3.1665V2.6665ZM982.464 2.6665V2.1665L980.475 2.1665V2.6665V3.1665H982.464V2.6665ZM974.507 2.6665V2.1665H972.517V2.6665V3.1665H974.507V2.6665ZM966.549 2.6665V2.1665H964.559V2.6665V3.1665H966.549V2.6665ZM958.591 2.6665V2.1665H956.602V2.6665V3.1665H958.591V2.6665ZM950.633 2.6665V2.1665L948.644 2.1665V2.6665V3.1665L950.633 3.1665V2.6665ZM942.676 2.6665V2.1665L940.686 2.1665V2.6665V3.1665L942.676 3.1665V2.6665ZM934.718 2.6665V2.1665H932.728V2.6665V3.1665L934.718 3.1665V2.6665ZM926.76 2.6665V2.1665H924.771V2.6665V3.1665H926.76V2.6665ZM918.802 2.6665V2.1665L916.813 2.1665V2.6665V3.1665L918.802 3.1665V2.6665ZM910.845 2.6665V2.1665L908.855 2.1665V2.6665V3.1665L910.845 3.1665V2.6665ZM902.887 2.6665V2.1665L900.897 2.1665V2.6665V3.1665L902.887 3.1665V2.6665ZM894.929 2.6665V2.1665H892.94V2.6665V3.1665H894.929V2.6665ZM886.971 2.6665V2.1665H884.982V2.6665V3.1665H886.971V2.6665ZM879.014 2.6665V2.1665H877.024V2.6665V3.1665H879.014V2.6665ZM871.056 2.6665V2.1665L869.066 2.1665V2.6665V3.1665L871.056 3.1665V2.6665ZM863.098 2.6665V2.1665L861.109 2.1665V2.6665V3.1665L863.098 3.1665V2.6665ZM855.14 2.6665V2.1665L853.151 2.1665V2.6665V3.1665L855.14 3.1665V2.6665ZM847.183 2.6665V2.1665H845.193V2.6665V3.1665H847.183V2.6665ZM839.225 2.6665V2.1665L837.235 2.1665V2.6665V3.1665L839.225 3.1665V2.6665ZM831.267 2.6665V2.1665L829.278 2.1665V2.6665V3.1665L831.267 3.1665V2.6665ZM823.309 2.6665V2.1665L821.32 2.1665V2.6665V3.1665L823.309 3.1665V2.6665ZM815.352 2.6665V2.1665H813.362V2.6665V3.1665H815.352V2.6665ZM807.394 2.6665V2.1665H805.404V2.6665V3.1665H807.394V2.6665ZM799.436 2.6665V2.1665H797.447V2.6665V3.1665H799.436V2.6665ZM791.478 2.6665V2.1665L789.489 2.1665V2.6665V3.1665L791.478 3.1665V2.6665ZM783.52 2.6665V2.1665L781.531 2.1665V2.6665V3.1665L783.52 3.1665V2.6665ZM775.563 2.6665V2.1665L773.573 2.1665V2.6665V3.1665L775.563 3.1665V2.6665ZM767.605 2.6665V2.1665H765.615V2.6665V3.1665H767.605V2.6665ZM759.647 2.6665V2.1665H757.658V2.6665V3.1665L759.647 3.1665V2.6665ZM751.689 2.6665V2.1665L749.7 2.1665V2.6665V3.1665L751.689 3.1665V2.6665ZM743.732 2.6665V2.1665L741.742 2.1665V2.6665V3.1665L743.732 3.1665V2.6665ZM735.774 2.6665V2.1665H733.784V2.6665V3.1665H735.774V2.6665ZM727.816 2.6665V2.1665H725.827V2.6665V3.1665H727.816V2.6665ZM719.858 2.6665V2.1665H717.869V2.6665V3.1665H719.858V2.6665ZM711.901 2.6665V2.1665L709.911 2.1665V2.6665V3.1665H711.901V2.6665ZM703.943 2.6665V2.1665L701.953 2.1665V2.6665V3.1665L703.943 3.1665V2.6665ZM695.985 2.6665V2.1665L693.996 2.1665V2.6665V3.1665L695.985 3.1665V2.6665ZM688.027 2.6665V2.1665H686.038V2.6665V3.1665L688.027 3.1665V2.6665ZM680.07 2.6665V2.1665H678.08V2.6665V3.1665H680.07V2.6665ZM672.112 2.6665V2.1665L670.122 2.1665V2.6665V3.1665L672.112 3.1665V2.6665ZM664.154 2.6665V2.1665L662.165 2.1665V2.6665V3.1665L664.154 3.1665V2.6665ZM656.196 2.6665V2.1665L654.207 2.1665V2.6665V3.1665H656.196V2.6665ZM648.238 2.6665V2.1665H646.249V2.6665V3.1665H648.238V2.6665ZM640.281 2.6665V2.1665H638.291V2.6665V3.1665H640.281V2.6665ZM632.323 2.6665V2.1665H630.333V2.6665V3.1665H632.323V2.6665ZM624.365 2.6665V2.1665L622.376 2.1665V2.6665V3.1665L624.365 3.1665V2.6665ZM616.407 2.6665V2.1665L614.418 2.1665V2.6665V3.1665L616.407 3.1665V2.6665ZM608.45 2.6665V2.1665L606.46 2.1665V2.6665V3.1665L608.45 3.1665V2.6665ZM600.492 2.6665V2.1665H598.502V2.6665V3.1665H600.492V2.6665ZM592.534 2.6665V2.1665L590.545 2.1665V2.6665V3.1665L592.534 3.1665V2.6665ZM584.576 2.6665V2.1665L582.587 2.1665V2.6665V3.1665L584.576 3.1665V2.6665ZM576.619 2.6665V2.1665L574.629 2.1665V2.6665V3.1665L576.619 3.1665V2.6665ZM568.661 2.6665V2.1665H567.667V2.6665V3.1665H568.661V2.6665Z" fill="url(#paint1_linear_78_334)"/>
<defs>
<linearGradient id="paint0_linear_78_334" x1="68.3218" y1="2.75493" x2="68.3236" y2="1.08925" gradientUnits="userSpaceOnUse">
<stop offset="1" stop-color="#B79F86"/>
</linearGradient>
<linearGradient id="paint1_linear_78_334" x1="633.322" y1="2.75493" x2="633.324" y2="1.08925" gradientUnits="userSpaceOnUse">
<stop offset="1" stop-color="#B79F86"/>
</linearGradient>
</defs>
</svg>
