<svg width="6" height="352" viewBox="0 0 6 352" fill="none" xmlns="http://www.w3.org/2000/svg">
<path d="M2.66699 8.13007e-05C1.19423 8.12364e-05 0.000325506 1.19399 0.000325441 2.66675C0.000325377 4.13951 1.19423 5.33341 2.66699 5.33341C4.13975 5.33341 5.33366 4.13951 5.33366 2.66675C5.33366 1.19399 4.13975 8.13651e-05 2.66699 8.13007e-05ZM2.66698 346C1.19422 346 0.000310382 347.194 0.000310317 348.667C0.000310253 350.139 1.19422 351.333 2.66698 351.333C4.13974 351.333 5.33364 350.139 5.33364 348.667C5.33364 347.194 4.13974 346 2.66698 346ZM2.16699 3.67256C2.16699 3.9487 2.39085 4.17256 2.66699 4.17256C2.94313 4.17256 3.16699 3.9487 3.16699 3.67256L2.66699 3.67256L2.16699 3.67256ZM3.16699 9.70745C3.16699 9.4313 2.94313 9.20745 2.66699 9.20745C2.39085 9.20745 2.16699 9.4313 2.16699 9.70745L2.66699 9.70745L3.16699 9.70745ZM2.16699 11.7191C2.16699 11.9952 2.39085 12.2191 2.66699 12.2191C2.94313 12.2191 3.16699 11.9952 3.16699 11.7191L2.66699 11.7191L2.16699 11.7191ZM3.16699 17.754C3.16699 17.4778 2.94313 17.254 2.66699 17.254C2.39085 17.254 2.16699 17.4778 2.16699 17.754L2.66699 17.754L3.16699 17.754ZM2.16699 19.7656C2.16699 20.0417 2.39085 20.2656 2.66699 20.2656C2.94313 20.2656 3.16699 20.0417 3.16699 19.7656L2.66699 19.7656L2.16699 19.7656ZM3.16699 25.8005C3.16699 25.5243 2.94313 25.3005 2.66699 25.3005C2.39085 25.3005 2.16699 25.5243 2.16699 25.8005L2.66699 25.8005L3.16699 25.8005ZM2.16699 27.8121C2.16699 28.0882 2.39085 28.3121 2.66699 28.3121C2.94313 28.3121 3.16699 28.0882 3.16699 27.8121L2.66699 27.8121L2.16699 27.8121ZM3.16699 33.847C3.16699 33.5708 2.94313 33.347 2.66699 33.347C2.39085 33.347 2.16699 33.5708 2.16699 33.847L2.66699 33.847L3.16699 33.847ZM2.16699 35.8586C2.16699 36.1348 2.39085 36.3586 2.66699 36.3586C2.94313 36.3586 3.16699 36.1348 3.16699 35.8586L2.66699 35.8586L2.16699 35.8586ZM3.16699 41.8935C3.16699 41.6174 2.94313 41.3935 2.66699 41.3935C2.39085 41.3935 2.16699 41.6174 2.16699 41.8935L2.66699 41.8935L3.16699 41.8935ZM2.16699 43.9051C2.16699 44.1813 2.39085 44.4051 2.66699 44.4051C2.94313 44.4051 3.16699 44.1813 3.16699 43.9051L2.66699 43.9051L2.16699 43.9051ZM3.16699 49.94C3.16699 49.6639 2.94313 49.44 2.66699 49.44C2.39085 49.44 2.16699 49.6639 2.16699 49.94L2.66699 49.94L3.16699 49.94ZM2.16699 51.9516C2.16699 52.2278 2.39085 52.4516 2.66699 52.4516C2.94313 52.4516 3.16699 52.2278 3.16699 51.9516L2.66699 51.9516L2.16699 51.9516ZM3.16699 57.9865C3.16699 57.7104 2.94313 57.4865 2.66699 57.4865C2.39085 57.4865 2.16699 57.7104 2.16699 57.9865L2.66699 57.9865L3.16699 57.9865ZM2.16699 59.9981C2.16699 60.2743 2.39085 60.4981 2.66699 60.4981C2.94313 60.4981 3.16699 60.2743 3.16699 59.9981L2.66699 59.9981L2.16699 59.9981ZM3.16699 66.033C3.16699 65.7569 2.94313 65.533 2.66699 65.533C2.39085 65.533 2.16699 65.7569 2.16699 66.033L2.66699 66.033L3.16699 66.033ZM2.16699 68.0446C2.16699 68.3208 2.39085 68.5446 2.66699 68.5446C2.94313 68.5446 3.16699 68.3208 3.16699 68.0446L2.66699 68.0446L2.16699 68.0446ZM3.16699 74.0795C3.16699 73.8034 2.94313 73.5795 2.66699 73.5795C2.39085 73.5795 2.16699 73.8034 2.16699 74.0795L2.66699 74.0795L3.16699 74.0795ZM2.16699 76.0912C2.16699 76.3673 2.39085 76.5912 2.66699 76.5912C2.94313 76.5912 3.16699 76.3673 3.16699 76.0912L2.66699 76.0912L2.16699 76.0912ZM3.16699 82.126C3.16699 81.8499 2.94313 81.626 2.66699 81.626C2.39085 81.626 2.16699 81.8499 2.16699 82.126L2.66699 82.126L3.16699 82.126ZM2.16699 84.1377C2.16699 84.4138 2.39085 84.6377 2.66699 84.6377C2.94313 84.6377 3.16699 84.4138 3.16699 84.1377L2.66699 84.1377L2.16699 84.1377ZM3.16699 90.1725C3.16699 89.8964 2.94313 89.6725 2.66699 89.6725C2.39085 89.6725 2.16699 89.8964 2.16699 90.1725L2.66699 90.1725L3.16699 90.1725ZM2.16699 92.1842C2.16699 92.4603 2.39085 92.6842 2.66699 92.6842C2.94313 92.6842 3.16699 92.4603 3.16699 92.1842L2.66699 92.1842L2.16699 92.1842ZM3.16699 98.2191C3.16699 97.9429 2.94313 97.7191 2.66699 97.7191C2.39085 97.7191 2.16699 97.9429 2.16699 98.2191L2.66699 98.2191L3.16699 98.2191ZM2.16699 100.231C2.16699 100.507 2.39085 100.731 2.66699 100.731C2.94313 100.731 3.16699 100.507 3.16699 100.231L2.66699 100.231L2.16699 100.231ZM3.16699 106.266C3.16699 105.989 2.94313 105.766 2.66699 105.766C2.39085 105.766 2.16699 105.989 2.16699 106.266L2.66699 106.266L3.16699 106.266ZM2.16699 108.277C2.16699 108.553 2.39085 108.777 2.66699 108.777C2.94313 108.777 3.16699 108.553 3.16699 108.277L2.66699 108.277L2.16699 108.277ZM3.16699 114.312C3.16699 114.036 2.94313 113.812 2.66699 113.812C2.39084 113.812 2.16699 114.036 2.16699 114.312L2.66699 114.312L3.16699 114.312ZM2.16699 116.324C2.16699 116.6 2.39084 116.824 2.66699 116.824C2.94313 116.824 3.16699 116.6 3.16699 116.324L2.66699 116.324L2.16699 116.324ZM3.16699 122.359C3.16699 122.082 2.94313 121.859 2.66699 121.859C2.39084 121.859 2.16699 122.082 2.16699 122.359L2.66699 122.359L3.16699 122.359ZM2.16699 124.37C2.16699 124.646 2.39084 124.87 2.66699 124.87C2.94313 124.87 3.16699 124.646 3.16699 124.37L2.66699 124.37L2.16699 124.37ZM3.16699 130.405C3.16699 130.129 2.94313 129.905 2.66699 129.905C2.39084 129.905 2.16699 130.129 2.16699 130.405L2.66699 130.405L3.16699 130.405ZM2.16699 132.417C2.16699 132.693 2.39084 132.917 2.66699 132.917C2.94313 132.917 3.16699 132.693 3.16699 132.417L2.66699 132.417L2.16699 132.417ZM3.16699 138.452C3.16699 138.175 2.94313 137.952 2.66699 137.952C2.39084 137.952 2.16699 138.175 2.16699 138.452L2.66699 138.452L3.16699 138.452ZM2.16699 140.463C2.16699 140.739 2.39084 140.963 2.66699 140.963C2.94313 140.963 3.16699 140.739 3.16699 140.463L2.66699 140.463L2.16699 140.463ZM3.16699 146.498C3.16699 146.222 2.94313 145.998 2.66699 145.998C2.39084 145.998 2.16699 146.222 2.16699 146.498L2.66699 146.498L3.16699 146.498ZM2.16699 148.51C2.16699 148.786 2.39084 149.01 2.66699 149.01C2.94313 149.01 3.16699 148.786 3.16699 148.51L2.66699 148.51L2.16699 148.51ZM3.16699 154.545C3.16699 154.268 2.94313 154.045 2.66699 154.045C2.39084 154.045 2.16699 154.268 2.16699 154.545L2.66699 154.545L3.16699 154.545ZM2.16699 156.556C2.16699 156.832 2.39084 157.056 2.66699 157.056C2.94313 157.056 3.16699 156.832 3.16699 156.556L2.66699 156.556L2.16699 156.556ZM3.16699 162.591C3.16699 162.315 2.94313 162.091 2.66699 162.091C2.39084 162.091 2.16699 162.315 2.16699 162.591L2.66699 162.591L3.16699 162.591ZM2.16699 164.603C2.16699 164.879 2.39084 165.103 2.66699 165.103C2.94313 165.103 3.16699 164.879 3.16699 164.603L2.66699 164.603L2.16699 164.603ZM3.16698 170.638C3.16698 170.361 2.94313 170.138 2.66698 170.138C2.39084 170.138 2.16698 170.361 2.16698 170.638L2.66698 170.638L3.16698 170.638ZM2.16698 172.649C2.16698 172.925 2.39084 173.149 2.66698 173.149C2.94313 173.149 3.16698 172.925 3.16698 172.649L2.66698 172.649L2.16698 172.649ZM3.16698 178.684C3.16698 178.408 2.94313 178.184 2.66698 178.184C2.39084 178.184 2.16698 178.408 2.16698 178.684L2.66698 178.684L3.16698 178.684ZM2.16698 180.696C2.16698 180.972 2.39084 181.196 2.66698 181.196C2.94313 181.196 3.16698 180.972 3.16698 180.696L2.66698 180.696L2.16698 180.696ZM3.16698 186.731C3.16698 186.454 2.94313 186.231 2.66698 186.231C2.39084 186.231 2.16698 186.454 2.16698 186.731L2.66698 186.731L3.16698 186.731ZM2.16698 188.742C2.16698 189.018 2.39084 189.242 2.66698 189.242C2.94313 189.242 3.16698 189.018 3.16698 188.742L2.66698 188.742L2.16698 188.742ZM3.16698 194.777C3.16698 194.501 2.94313 194.277 2.66698 194.277C2.39084 194.277 2.16698 194.501 2.16698 194.777L2.66698 194.777L3.16698 194.777ZM2.16698 196.789C2.16698 197.065 2.39084 197.289 2.66698 197.289C2.94313 197.289 3.16698 197.065 3.16698 196.789L2.66698 196.789L2.16698 196.789ZM3.16698 202.824C3.16698 202.548 2.94313 202.324 2.66698 202.324C2.39084 202.324 2.16698 202.548 2.16698 202.824L2.66698 202.824L3.16698 202.824ZM2.16698 204.835C2.16698 205.111 2.39084 205.335 2.66698 205.335C2.94313 205.335 3.16698 205.111 3.16698 204.835L2.66698 204.835L2.16698 204.835ZM3.16698 210.87C3.16698 210.594 2.94313 210.37 2.66698 210.37C2.39084 210.37 2.16698 210.594 2.16698 210.87L2.66698 210.87L3.16698 210.87ZM2.16698 212.882C2.16698 213.158 2.39084 213.382 2.66698 213.382C2.94313 213.382 3.16698 213.158 3.16698 212.882L2.66698 212.882L2.16698 212.882ZM3.16698 218.917C3.16698 218.641 2.94313 218.417 2.66698 218.417C2.39084 218.417 2.16698 218.641 2.16698 218.917L2.66698 218.917L3.16698 218.917ZM2.16698 220.928C2.16698 221.204 2.39084 221.428 2.66698 221.428C2.94313 221.428 3.16698 221.204 3.16698 220.928L2.66698 220.928L2.16698 220.928ZM3.16698 226.963C3.16698 226.687 2.94312 226.463 2.66698 226.463C2.39084 226.463 2.16698 226.687 2.16698 226.963L2.66698 226.963L3.16698 226.963ZM2.16698 228.975C2.16698 229.251 2.39084 229.475 2.66698 229.475C2.94312 229.475 3.16698 229.251 3.16698 228.975L2.66698 228.975L2.16698 228.975ZM3.16698 235.01C3.16698 234.734 2.94312 234.51 2.66698 234.51C2.39084 234.51 2.16698 234.734 2.16698 235.01L2.66698 235.01L3.16698 235.01ZM2.16698 237.021C2.16698 237.297 2.39084 237.521 2.66698 237.521C2.94312 237.521 3.16698 237.297 3.16698 237.021L2.66698 237.021L2.16698 237.021ZM3.16698 243.056C3.16698 242.78 2.94312 242.556 2.66698 242.556C2.39084 242.556 2.16698 242.78 2.16698 243.056L2.66698 243.056L3.16698 243.056ZM2.16698 245.068C2.16698 245.344 2.39084 245.568 2.66698 245.568C2.94312 245.568 3.16698 245.344 3.16698 245.068L2.66698 245.068L2.16698 245.068ZM3.16698 251.103C3.16698 250.827 2.94312 250.603 2.66698 250.603C2.39084 250.603 2.16698 250.827 2.16698 251.103L2.66698 251.103L3.16698 251.103ZM2.16698 253.114C2.16698 253.391 2.39084 253.614 2.66698 253.614C2.94312 253.614 3.16698 253.391 3.16698 253.114L2.66698 253.114L2.16698 253.114ZM3.16698 259.149C3.16698 258.873 2.94312 258.649 2.66698 258.649C2.39084 258.649 2.16698 258.873 2.16698 259.149L2.66698 259.149L3.16698 259.149ZM2.16698 261.161C2.16698 261.437 2.39084 261.661 2.66698 261.661C2.94312 261.661 3.16698 261.437 3.16698 261.161L2.66698 261.161L2.16698 261.161ZM3.16698 267.196C3.16698 266.92 2.94312 266.696 2.66698 266.696C2.39084 266.696 2.16698 266.92 2.16698 267.196L2.66698 267.196L3.16698 267.196ZM2.16698 269.207C2.16698 269.484 2.39084 269.707 2.66698 269.707C2.94312 269.707 3.16698 269.484 3.16698 269.207L2.66698 269.207L2.16698 269.207ZM3.16698 275.242C3.16698 274.966 2.94312 274.742 2.66698 274.742C2.39084 274.742 2.16698 274.966 2.16698 275.242L2.66698 275.242L3.16698 275.242ZM2.16698 277.254C2.16698 277.53 2.39084 277.754 2.66698 277.754C2.94312 277.754 3.16698 277.53 3.16698 277.254L2.66698 277.254L2.16698 277.254ZM3.16698 283.289C3.16698 283.013 2.94312 282.789 2.66698 282.789C2.39084 282.789 2.16698 283.013 2.16698 283.289L2.66698 283.289L3.16698 283.289ZM2.16698 285.3C2.16698 285.577 2.39084 285.8 2.66698 285.8C2.94312 285.8 3.16698 285.577 3.16698 285.3L2.66698 285.3L2.16698 285.3ZM3.16698 291.335C3.16698 291.059 2.94312 290.835 2.66698 290.835C2.39084 290.835 2.16698 291.059 2.16698 291.335L2.66698 291.335L3.16698 291.335ZM2.16698 293.347C2.16698 293.623 2.39084 293.847 2.66698 293.847C2.94312 293.847 3.16698 293.623 3.16698 293.347L2.66698 293.347L2.16698 293.347ZM3.16698 299.382C3.16698 299.106 2.94312 298.882 2.66698 298.882C2.39084 298.882 2.16698 299.106 2.16698 299.382L2.66698 299.382L3.16698 299.382ZM2.16698 301.393C2.16698 301.67 2.39084 301.893 2.66698 301.893C2.94312 301.893 3.16698 301.67 3.16698 301.393L2.66698 301.393L2.16698 301.393ZM3.16698 307.428C3.16698 307.152 2.94312 306.928 2.66698 306.928C2.39084 306.928 2.16698 307.152 2.16698 307.428L2.66698 307.428L3.16698 307.428ZM2.16698 309.44C2.16698 309.716 2.39084 309.94 2.66698 309.94C2.94312 309.94 3.16698 309.716 3.16698 309.44L2.66698 309.44L2.16698 309.44ZM3.16698 315.475C3.16698 315.199 2.94312 314.975 2.66698 314.975C2.39084 314.975 2.16698 315.199 2.16698 315.475L2.66698 315.475L3.16698 315.475ZM2.16698 317.486C2.16698 317.763 2.39084 317.986 2.66698 317.986C2.94312 317.986 3.16698 317.763 3.16698 317.486L2.66698 317.486L2.16698 317.486ZM3.16698 323.521C3.16698 323.245 2.94312 323.021 2.66698 323.021C2.39084 323.021 2.16698 323.245 2.16698 323.521L2.66698 323.521L3.16698 323.521ZM2.16698 325.533C2.16698 325.809 2.39084 326.033 2.66698 326.033C2.94312 326.033 3.16698 325.809 3.16698 325.533L2.66698 325.533L2.16698 325.533ZM3.16698 331.568C3.16698 331.292 2.94312 331.068 2.66698 331.068C2.39084 331.068 2.16698 331.292 2.16698 331.568L2.66698 331.568L3.16698 331.568ZM2.16698 333.579C2.16698 333.856 2.39084 334.079 2.66698 334.079C2.94312 334.079 3.16698 333.856 3.16698 333.579L2.66698 333.579L2.16698 333.579ZM3.16698 339.614C3.16698 339.338 2.94312 339.114 2.66698 339.114C2.39084 339.114 2.16698 339.338 2.16698 339.614L2.66698 339.614L3.16698 339.614ZM2.16698 341.626C2.16698 341.902 2.39083 342.126 2.66698 342.126C2.94312 342.126 3.16698 341.902 3.16698 341.626L2.66698 341.626L2.16698 341.626ZM3.16698 347.661C3.16698 347.385 2.94312 347.161 2.66698 347.161C2.39083 347.161 2.16698 347.385 2.16698 347.661L2.66698 347.661L3.16698 347.661ZM2.66699 2.66675L2.16699 2.66675L2.16699 3.67256L2.66699 3.67256L3.16699 3.67256L3.16699 2.66675L2.66699 2.66675ZM2.66699 9.70745L2.16699 9.70745L2.16699 11.7191L2.66699 11.7191L3.16699 11.7191L3.16699 9.70745L2.66699 9.70745ZM2.66699 17.754L2.16699 17.754L2.16699 19.7656L2.66699 19.7656L3.16699 19.7656L3.16699 17.754L2.66699 17.754ZM2.66699 25.8005L2.16699 25.8005L2.16699 27.8121L2.66699 27.8121L3.16699 27.8121L3.16699 25.8005L2.66699 25.8005ZM2.66699 33.847L2.16699 33.847L2.16699 35.8586L2.66699 35.8586L3.16699 35.8586L3.16699 33.847L2.66699 33.847ZM2.66699 41.8935L2.16699 41.8935L2.16699 43.9051L2.66699 43.9051L3.16699 43.9051L3.16699 41.8935L2.66699 41.8935ZM2.66699 49.94L2.16699 49.94L2.16699 51.9516L2.66699 51.9516L3.16699 51.9516L3.16699 49.94L2.66699 49.94ZM2.66699 57.9865L2.16699 57.9865L2.16699 59.9981L2.66699 59.9981L3.16699 59.9981L3.16699 57.9865L2.66699 57.9865ZM2.66699 66.033L2.16699 66.033L2.16699 68.0446L2.66699 68.0446L3.16699 68.0446L3.16699 66.033L2.66699 66.033ZM2.66699 74.0795L2.16699 74.0795L2.16699 76.0912L2.66699 76.0912L3.16699 76.0912L3.16699 74.0795L2.66699 74.0795ZM2.66699 82.126L2.16699 82.126L2.16699 84.1377L2.66699 84.1377L3.16699 84.1377L3.16699 82.126L2.66699 82.126ZM2.66699 90.1725L2.16699 90.1725L2.16699 92.1842L2.66699 92.1842L3.16699 92.1842L3.16699 90.1725L2.66699 90.1725ZM2.66699 98.2191L2.16699 98.2191L2.16699 100.231L2.66699 100.231L3.16699 100.231L3.16699 98.2191L2.66699 98.2191ZM2.66699 106.266L2.16699 106.266L2.16699 108.277L2.66699 108.277L3.16699 108.277L3.16699 106.266L2.66699 106.266ZM2.66699 114.312L2.16699 114.312L2.16699 116.324L2.66699 116.324L3.16699 116.324L3.16699 114.312L2.66699 114.312ZM2.66699 122.359L2.16699 122.359L2.16699 124.37L2.66699 124.37L3.16699 124.37L3.16699 122.359L2.66699 122.359ZM2.66699 130.405L2.16699 130.405L2.16699 132.417L2.66699 132.417L3.16699 132.417L3.16699 130.405L2.66699 130.405ZM2.66699 138.452L2.16699 138.452L2.16699 140.463L2.66699 140.463L3.16699 140.463L3.16699 138.452L2.66699 138.452ZM2.66699 146.498L2.16699 146.498L2.16699 148.51L2.66699 148.51L3.16699 148.51L3.16699 146.498L2.66699 146.498ZM2.66699 154.545L2.16699 154.545L2.16699 156.556L2.66699 156.556L3.16699 156.556L3.16699 154.545L2.66699 154.545ZM2.66699 162.591L2.16699 162.591L2.16699 164.603L2.66699 164.603L3.16699 164.603L3.16699 162.591L2.66699 162.591ZM2.66698 170.638L2.16698 170.638L2.16698 172.649L2.66698 172.649L3.16698 172.649L3.16698 170.638L2.66698 170.638ZM2.66698 178.684L2.16698 178.684L2.16698 180.696L2.66698 180.696L3.16698 180.696L3.16698 178.684L2.66698 178.684ZM2.66698 186.731L2.16698 186.731L2.16698 188.742L2.66698 188.742L3.16698 188.742L3.16698 186.731L2.66698 186.731ZM2.66698 194.777L2.16698 194.777L2.16698 196.789L2.66698 196.789L3.16698 196.789L3.16698 194.777L2.66698 194.777ZM2.66698 202.824L2.16698 202.824L2.16698 204.835L2.66698 204.835L3.16698 204.835L3.16698 202.824L2.66698 202.824ZM2.66698 210.87L2.16698 210.87L2.16698 212.882L2.66698 212.882L3.16698 212.882L3.16698 210.87L2.66698 210.87ZM2.66698 218.917L2.16698 218.917L2.16698 220.928L2.66698 220.928L3.16698 220.928L3.16698 218.917L2.66698 218.917ZM2.66698 226.963L2.16698 226.963L2.16698 228.975L2.66698 228.975L3.16698 228.975L3.16698 226.963L2.66698 226.963ZM2.66698 235.01L2.16698 235.01L2.16698 237.021L2.66698 237.021L3.16698 237.021L3.16698 235.01L2.66698 235.01ZM2.66698 243.056L2.16698 243.056L2.16698 245.068L2.66698 245.068L3.16698 245.068L3.16698 243.056L2.66698 243.056ZM2.66698 251.103L2.16698 251.103L2.16698 253.114L2.66698 253.114L3.16698 253.114L3.16698 251.103L2.66698 251.103ZM2.66698 259.149L2.16698 259.149L2.16698 261.161L2.66698 261.161L3.16698 261.161L3.16698 259.149L2.66698 259.149ZM2.66698 267.196L2.16698 267.196L2.16698 269.207L2.66698 269.207L3.16698 269.207L3.16698 267.196L2.66698 267.196ZM2.66698 275.242L2.16698 275.242L2.16698 277.254L2.66698 277.254L3.16698 277.254L3.16698 275.242L2.66698 275.242ZM2.66698 283.289L2.16698 283.289L2.16698 285.3L2.66698 285.3L3.16698 285.3L3.16698 283.289L2.66698 283.289ZM2.66698 291.335L2.16698 291.335L2.16698 293.347L2.66698 293.347L3.16698 293.347L3.16698 291.335L2.66698 291.335ZM2.66698 299.382L2.16698 299.382L2.16698 301.393L2.66698 301.393L3.16698 301.393L3.16698 299.382L2.66698 299.382ZM2.66698 307.428L2.16698 307.428L2.16698 309.44L2.66698 309.44L3.16698 309.44L3.16698 307.428L2.66698 307.428ZM2.66698 315.475L2.16698 315.475L2.16698 317.486L2.66698 317.486L3.16698 317.486L3.16698 315.475L2.66698 315.475ZM2.66698 323.521L2.16698 323.521L2.16698 325.533L2.66698 325.533L3.16698 325.533L3.16698 323.521L2.66698 323.521ZM2.66698 331.568L2.16698 331.568L2.16698 333.579L2.66698 333.579L3.16698 333.579L3.16698 331.568L2.66698 331.568ZM2.66698 339.614L2.16698 339.614L2.16698 341.626L2.66698 341.626L3.16698 341.626L3.16698 339.614L2.66698 339.614ZM2.66698 347.661L2.16698 347.661L2.16698 348.667L2.66698 348.667L3.16698 348.667L3.16698 347.661L2.66698 347.661Z" fill="url(#paint0_linear_332_488)"/>
<defs>
<linearGradient id="paint0_linear_332_488" x1="2.7554" y1="308.46" x2="1.08973" y2="308.457" gradientUnits="userSpaceOnUse">
<stop offset="1" stop-color="#B79F86"/>
</linearGradient>
</defs>
</svg>
