<svg width="28" height="28" viewBox="0 0 28 28" fill="none" xmlns="http://www.w3.org/2000/svg">
<path d="M26.1101 19.9001V23.6501C26.1116 23.9982 26.0402 24.3428 25.9008 24.6618C25.7613 24.9808 25.5568 25.2671 25.3002 25.5025C25.0437 25.7378 24.7409 25.917 24.4111 26.0285C24.0813 26.14 23.7319 26.1815 23.3851 26.1501C19.5387 25.7322 15.8439 24.4178 12.5976 22.3126C9.57743 20.3935 7.01682 17.8328 5.09765 14.8126C2.98512 11.5516 1.67045 7.83886 1.26015 3.97512C1.22891 3.62945 1.26999 3.28107 1.38077 2.95215C1.49155 2.62323 1.66961 2.32098 1.9036 2.06465C2.1376 1.80831 2.4224 1.60351 2.73988 1.46327C3.05737 1.32304 3.40057 1.25045 3.74765 1.25012H7.49765C8.10428 1.24415 8.69239 1.45897 9.15235 1.85454C9.61231 2.2501 9.91274 2.79943 9.99765 3.40012C10.1559 4.6002 10.4495 5.77853 10.8726 6.91262C11.0408 7.36003 11.0772 7.84626 10.9775 8.31372C10.8778 8.78118 10.6462 9.21026 10.3101 9.55012L8.72265 11.1376C10.5021 14.2671 13.0932 16.8582 16.2226 18.6376L17.8101 17.0501C18.15 16.714 18.5791 16.4824 19.0465 16.3827C19.514 16.283 20.0002 16.3194 20.4476 16.4876C21.5817 16.9108 22.7601 17.2043 23.9601 17.3626C24.5674 17.4483 25.1219 17.7541 25.5183 18.222C25.9147 18.6899 26.1254 19.2871 26.1101 19.9001Z" stroke="url(#paint0_linear_1_598)" stroke-width="2.5" stroke-linecap="round" stroke-linejoin="round"/>
<defs>
<linearGradient id="paint0_linear_1_598" x1="23.222" y1="-0.952712" x2="4.75111" y2="29.2401" gradientUnits="userSpaceOnUse">
<stop stop-color="#FDEEBD"/>
<stop offset="1" stop-color="#6D5C4B"/>
</linearGradient>
</defs>
</svg>
